<svg width="1202" height="423" viewBox="0 0 1202 423" fill="none" xmlns="http://www.w3.org/2000/svg">
<path d="M550.754 312.046C552.359 307.692 554.852 302.024 559.018 295.957C561.084 292.915 563.56 289.777 566.411 286.623C569.313 283.501 572.592 280.379 576.263 277.353C583.656 271.35 592.654 265.81 602.898 261.391C613.143 256.989 624.634 253.691 636.825 252.042C661.531 248.68 687.45 253.323 710.671 261.151C733.977 269.044 754.756 279.963 772.445 289.889C792.917 301.448 812.552 313.727 832.922 324.502C853.24 335.26 874.361 344.562 896.557 349.669C907.638 352.199 918.924 353.768 930.313 353.976C941.684 354.232 953.107 353.335 964.342 351.446C986.828 347.572 1008.53 339.631 1028.49 328.873C1048.43 318.066 1066.84 304.602 1083.01 289.104C1091.1 281.372 1098.68 273.143 1105.68 264.513C1107.44 262.368 1109.1 260.143 1110.8 257.965L1115.67 251.193C1117.26 248.904 1118.98 246.727 1120.45 244.357L1124.99 237.377L1127.26 233.887L1129.38 230.301L1133.61 223.144C1136.36 218.341 1138.93 213.41 1141.55 208.543C1143.96 203.564 1146.52 198.649 1148.81 193.606C1151.05 188.547 1153.45 183.552 1155.5 178.413C1164.08 158.001 1171.3 137.06 1177.77 115.879C1185.95 89.4308 1197.32 43.6109 1200.87 45.356C1202.7 46.2685 1202.29 54.5135 1199.79 68.41C1197.28 82.2905 1192.81 101.87 1185.62 125.197C1181.25 139.301 1176.56 153.358 1171.18 167.206C1165.83 181.071 1160.03 194.807 1153.28 208.191C1146.57 221.575 1139.3 234.751 1130.85 247.287C1129.81 248.856 1128.83 250.473 1127.72 252.01L1124.41 256.621C1122.18 259.678 1120.09 262.816 1117.7 265.794C1113.07 271.846 1108.12 277.657 1102.95 283.293C1082.24 305.77 1057.55 325.094 1029.8 339.487C1002.11 353.832 971.035 363.149 939.123 364.142C927.495 364.51 915.783 363.822 904.292 361.853C892.801 359.947 881.583 356.922 870.741 353.127C849.005 345.523 828.841 334.972 809.376 323.91C789.878 312.831 771.045 301.096 751.461 290.881C731.928 280.651 711.61 271.718 690.284 266.499C679.647 263.889 668.771 262.256 657.86 261.856C647.052 261.375 636.227 262.608 625.744 265.186C615.277 267.779 605.186 271.798 596.035 277.129C586.9 282.46 578.67 289.168 572.267 297.109C565.847 305.018 561.323 314.192 559.427 323.862C557.447 333.531 558.318 343.602 561.272 353.127C561.579 354.344 562.057 355.497 562.501 356.665L563.867 360.172L565.523 363.582L566.343 365.279L567.299 366.928L569.228 370.21C569.911 371.282 570.679 372.307 571.397 373.364C572.78 375.509 574.487 377.446 576.092 379.463C582.751 387.34 591.032 393.984 600.149 399.155C602.215 400.308 604.367 401.285 606.467 402.357C608.687 403.254 610.855 404.246 613.109 405.063C617.616 406.68 622.226 408.121 626.956 409.113C636.398 411.227 646.147 412.155 655.931 412.043C665.714 411.883 675.498 410.73 685.093 408.713C689.891 407.737 694.638 406.456 699.316 405.047C701.672 404.358 703.96 403.51 706.282 402.758C708.553 401.877 710.807 400.932 713.078 400.02C731.142 392.671 747.773 382.217 762.183 369.537C776.645 356.874 788.682 341.84 798.09 325.526C807.464 309.197 814.072 291.474 817.299 273.223C820.526 254.988 820.355 236.24 816.326 218.117C808.369 181.839 786.958 148.347 757.266 123.948C743.299 112.501 727.454 103.071 710.38 96.411L697.37 91.9283L690.677 90.1673L687.33 89.2867C686.22 88.9825 685.093 88.6944 683.949 88.5022C674.9 86.6291 665.731 85.1082 656.46 84.4358C637.918 82.8988 619.153 83.6513 600.559 85.9727C581.966 88.2941 563.56 92.2645 545.376 97.0514C508.99 106.625 473.732 120.218 437.638 132.401C419.59 138.501 401.321 144.296 382.676 149.115C364.031 153.95 344.976 157.808 325.563 159.826C308.847 161.587 291.875 162.195 274.887 160.706C257.949 159.249 240.994 155.663 225.132 149.179C209.27 142.759 194.706 132.897 183.386 120.458C172.015 108.066 163.921 92.6167 161.548 76.0627C160.319 67.7216 160.882 59.2204 162.863 51.1195C164.843 43.0025 168.275 35.1898 173.039 28.1295C177.769 21.0532 183.984 14.7614 191.411 9.9104L194.228 8.13332C195.167 7.54096 196.192 7.09269 197.182 6.56437C198.189 6.06807 199.163 5.53975 200.187 5.05945L203.329 3.81069C207.512 2.12967 212.071 1.10505 216.578 0.480666C225.662 -0.720065 234.848 0.400618 243.368 3.04223C251.888 5.73186 259.844 10.0705 266.418 15.9621C272.991 21.8377 277.96 29.5544 280.179 38.0235C282.536 46.3646 282.058 55.282 279.394 63.447C276.918 71.1797 272.274 78.4641 266.503 84.868C260.732 91.32 253.766 96.9073 246.287 101.79C238.809 106.689 230.716 110.804 222.435 114.294C218.286 116.039 214.068 117.576 209.817 118.953C205.548 120.378 201.314 121.45 197.182 122.555C183.437 126.205 164.826 130.176 145.994 132.593C127.161 135.107 108.174 136.067 94.0368 135.971C92.5172 135.971 90.9805 135.971 89.4438 135.971C87.9072 135.923 86.3706 135.891 84.8168 135.843C81.7264 135.747 78.636 135.651 75.5455 135.571C69.3818 135.219 63.2351 134.995 57.2762 134.514C50.4294 134.13 44.2315 133.378 38.6653 132.801C33.0992 132.065 28.1647 131.36 23.8279 130.624C19.5081 129.823 15.803 129.087 12.6784 128.415C9.57094 127.678 7.04396 126.974 5.0975 126.381C-2.72247 123.964 -1.37362 122.859 7.96595 122.667C10.0149 122.619 9.9807 122.075 11.0564 121.803C11.5857 121.658 12.3881 121.594 13.8736 121.674C15.3591 121.722 17.5104 121.899 20.7375 122.299C21.2668 122.363 22.3424 122.491 22.8205 122.555C42.4216 124.62 62.2448 126.093 82.2728 126.445C102.284 126.782 122.551 126.109 142.63 123.419C154.975 121.899 167.183 119.577 179.288 116.936L188.338 114.806C191.343 114.07 194.314 113.205 197.319 112.421C203.363 110.884 209.031 109.027 214.717 106.865C226.003 102.511 236.828 96.9714 246.321 90.0232C255.798 83.123 264.01 74.6058 268.449 64.6957C269.559 62.2302 270.345 59.6687 270.959 57.0911C271.438 54.4975 271.83 51.8719 271.745 49.2303C271.779 47.9175 271.608 46.5887 271.523 45.2759C271.284 43.9791 271.216 42.6023 270.806 41.3856C270.43 40.1368 270.208 38.84 269.73 37.6233L268.193 33.9891C263.31 24.5433 253.971 17.1948 243.316 13.1444C232.594 9.25401 220.437 8.4215 209.783 11.9276C199.043 15.5298 189.652 22.6862 183.181 31.8117C176.744 40.9213 172.646 51.6958 171.963 62.6625C171.144 73.5652 173.705 84.6919 178.759 94.746C181.269 99.7891 184.359 104.592 187.911 109.091C191.513 113.557 195.577 117.72 199.982 121.53C208.792 129.215 219.105 135.203 230.22 139.685C241.319 144.216 253.219 147.066 265.291 148.827C277.396 150.556 289.724 151.036 302.051 150.684C314.396 150.204 326.724 149.035 338.966 147.21C351.191 145.257 363.348 142.775 375.402 139.797C404.958 132.401 433.864 122.379 462.839 112.309C477.335 107.266 491.848 102.191 506.583 97.4677C521.301 92.7448 536.207 88.4062 551.317 84.7079C566.428 81.0257 581.76 77.9358 597.332 75.9346C612.887 73.9494 628.663 72.9728 644.44 73.4531C660.216 73.9334 676.027 75.9026 691.394 79.6649L697.131 81.1698C699.043 81.6821 700.972 82.1304 702.833 82.8188L714.068 86.6611C717.705 88.182 721.308 89.767 724.927 91.32C725.832 91.7202 726.737 92.0884 727.625 92.5207L730.221 93.8815L735.428 96.6192C765.547 112.965 791.09 136.98 807.891 166.23L807.584 165.733C816.53 180.862 823.275 197.192 827.202 214.179C831.163 231.149 832.188 248.792 830.122 266.082C826.246 298.822 812.074 330.474 790.373 356.762C779.445 369.857 766.623 381.609 752.263 391.471C748.814 394.112 744.938 396.193 741.216 398.483L738.399 400.18C737.477 400.756 736.521 401.317 735.531 401.781L729.64 404.743C727.676 405.719 725.73 406.744 723.732 407.656L717.603 410.154L711.473 412.636C709.407 413.42 707.29 414.076 705.207 414.797C688.372 420.192 670.615 423.154 652.772 422.994C634.964 422.834 617.002 419.344 600.918 411.915C584.697 404.407 571.158 392.735 561.511 378.823C551.915 364.942 546.229 348.372 547.066 331.706C547.117 330.393 547.305 328.985 547.442 327.464C547.595 325.943 547.698 324.326 548.039 322.677C548.193 321.844 548.346 320.996 548.5 320.115C548.705 319.251 548.927 318.386 549.149 317.49C549.49 315.68 550.173 313.903 550.754 312.046Z" fill="#F2C344" fill-opacity="0.86"/>
</svg>
