<svg width="348" height="352" viewBox="0 0 348 352" fill="none" xmlns="http://www.w3.org/2000/svg">
<path d="M146.335 217.469C139.324 217.469 132.733 213.048 128.25 205.318C124.323 198.564 122.156 189.706 122.156 180.407C122.156 171.091 124.323 162.249 128.25 155.495C132.733 147.781 139.339 143.344 146.335 143.344C153.346 143.344 159.937 147.765 164.42 155.495C168.347 162.249 170.514 171.107 170.514 180.407C170.514 189.706 168.347 198.564 164.42 205.318C159.937 213.032 153.346 217.469 146.335 217.469Z" fill="#3C87F0" stroke="#252532" stroke-width="3" stroke-miterlimit="10"/>
<path d="M146.335 210.974C156.157 210.974 164.119 197.289 164.119 180.406C164.119 163.524 156.157 149.839 146.335 149.839C136.513 149.839 128.551 163.524 128.551 180.406C128.551 197.289 136.513 210.974 146.335 210.974Z" stroke="#252532" stroke-width="3" stroke-miterlimit="10"/>
<path d="M147.794 143.405L252.304 152.355C252.304 152.355 262.4 159.535 262.4 180.407C262.4 201.278 252.304 208.443 252.304 208.443L147.794 217.408" stroke="#04396A" stroke-width="3" stroke-miterlimit="10"/>
<path d="M255.118 155.236L301.55 159.215C301.55 159.215 309.178 164.627 309.178 180.406C309.178 196.186 301.55 201.583 301.55 201.583L255.118 205.562" stroke="#04396A" stroke-width="3" stroke-miterlimit="10"/>
<path d="M306.997 167.341L313.361 167.89C313.361 167.89 317.86 171.091 317.86 180.407C317.86 189.722 313.361 192.923 313.361 192.923L306.997 193.472" stroke="#04396A" stroke-width="3" stroke-miterlimit="10"/>
<path d="M93.6587 217.469C86.6473 217.469 80.0571 213.048 75.5734 205.318C71.6464 198.564 69.4797 189.706 69.4797 180.407C69.4797 171.091 71.6464 162.249 75.5734 155.495C80.0571 147.781 86.6623 143.344 93.6587 143.344C100.67 143.344 107.26 147.765 111.744 155.495C115.671 162.249 117.838 171.107 117.838 180.407C117.838 189.706 115.671 198.564 111.744 205.318C107.245 213.032 100.655 217.469 93.6587 217.469Z" fill="#3C87F0" stroke="#252532" stroke-width="3" stroke-miterlimit="10"/>
<path d="M93.6587 210.974C103.481 210.974 111.443 197.289 111.443 180.406C111.443 163.524 103.481 149.839 93.6587 149.839C83.8366 149.839 75.8743 163.524 75.8743 180.406C75.8743 197.289 83.8366 210.974 93.6587 210.974Z" stroke="#04396A" stroke-width="3" stroke-miterlimit="10"/>
<path d="M135.803 213.917L95.103 217.408" stroke="#04396A" stroke-width="3" stroke-miterlimit="10"/>
<path d="M95.103 143.405L135.577 146.866" stroke="#04396A" stroke-width="3" stroke-miterlimit="10"/>
<path d="M174.905 253.251L176.921 258.556L182.172 260.599L176.921 262.642L174.905 267.963L172.889 262.658L167.653 260.599L172.889 258.556L174.905 253.251Z" fill="#F2C344"/>
<path d="M53.1753 106.578L55.1915 111.899L60.4425 113.942L55.1915 115.984L53.1753 121.305L51.1591 115.984L45.9231 113.942L51.1591 111.899L53.1753 106.578Z" fill="#F2C344"/>
<path d="M193.67 99.4666L195.686 104.772L200.922 106.83L195.686 108.873L193.67 114.179L191.639 108.873L186.403 106.83L191.654 104.772L193.67 99.4666Z" fill="#F2C344"/>
<path d="M309.178 231.74L311.195 237.061L316.431 239.104L311.195 241.147L309.178 246.468L307.162 241.147L301.911 239.104L307.162 237.061L309.178 231.74Z" fill="#F2C344"/>
<path d="M265.557 265.675H264.323V321.353H265.557V265.675Z" fill="#04396A"/>
<path d="M292.422 294.137V292.887H237.474V294.137H292.422Z" fill="#04396A"/>
<path d="M245.945 273.392L245.072 274.276L283.926 313.646L284.799 312.762L245.945 273.392Z" fill="#04396A"/>
<path d="M284.806 274.265L283.934 273.381L245.08 312.75L245.953 313.634L284.806 274.265Z" fill="#04396A"/>
<path d="M264.94 298.484C267.649 298.484 269.845 296.259 269.845 293.514C269.845 290.769 267.649 288.544 264.94 288.544C262.231 288.544 260.035 290.769 260.035 293.514C260.035 296.259 262.231 298.484 264.94 298.484Z" fill="#04396A"/>
<path d="M200.952 39.0027V64.2496C200.952 66.6736 202.893 68.6556 205.3 68.6556H255.043C257.435 68.6556 259.391 70.6223 259.391 73.0616V101.51C259.391 103.934 261.332 105.916 263.739 105.916H312.458" stroke="#04396A" stroke-width="3" stroke-miterlimit="10"/>
<path d="M200.952 41.0914C202.091 41.0914 203.013 40.1563 203.013 39.0027C203.013 37.8492 202.091 36.9141 200.952 36.9141C199.814 36.9141 198.891 37.8492 198.891 39.0027C198.891 40.1563 199.814 41.0914 200.952 41.0914Z" fill="#99A9B7"/>
<path d="M312.428 108.005C313.567 108.005 314.49 107.07 314.49 105.916C314.49 104.763 313.567 103.827 312.428 103.827C311.29 103.827 310.367 104.763 310.367 105.916C310.367 107.07 311.29 108.005 312.428 108.005Z" fill="#99A9B7"/>
<path d="M15.2141 251.185H34.6686C37.2716 251.185 39.3781 253.319 39.3781 255.956V272.285C39.3781 274.922 41.4845 277.057 44.0875 277.057H93.0924C95.6954 277.057 97.8018 279.191 97.8018 281.828V309.545C97.8018 312.183 99.9083 314.317 102.511 314.317H184.618" stroke="#04396A" stroke-width="3" stroke-miterlimit="10"/>
<path d="M15.2141 253.273C16.3526 253.273 17.2754 252.338 17.2754 251.185C17.2754 250.031 16.3526 249.096 15.2141 249.096C14.0757 249.096 13.1528 250.031 13.1528 251.185C13.1528 252.338 14.0757 253.273 15.2141 253.273Z" fill="#99A9B7"/>
<path d="M184.603 316.39C185.741 316.39 186.664 315.455 186.664 314.302C186.664 313.148 185.741 312.213 184.603 312.213C183.464 312.213 182.541 313.148 182.541 314.302C182.541 315.455 183.464 316.39 184.603 316.39Z" fill="#99A9B7"/>
</svg>
