<svg width="500" height="344" viewBox="0 0 500 344" fill="none" xmlns="http://www.w3.org/2000/svg">
<path d="M500 327.4H0V327.65H500V327.4Z" fill="#EBEBEB"/>
<path d="M449.9 343.49H416.78V343.74H449.9V343.49Z" fill="#EBEBEB"/>
<path d="M301.44 343.62H292.75V343.87H301.44V343.62Z" fill="#EBEBEB"/>
<path d="M415.77 334.21H354.33V334.46H415.77V334.21Z" fill="#EBEBEB"/>
<path d="M225.14 340.11H212.45V340.36H225.14V340.11Z" fill="#EBEBEB"/>
<path d="M203.55 340.11H166.72V340.36H203.55V340.11Z" fill="#EBEBEB"/>
<path d="M77.89 335.89H52.46V336.14H77.89V335.89Z" fill="#EBEBEB"/>
<path d="M158.78 335.89H83.89V336.14H158.78V335.89Z" fill="#EBEBEB"/>
<path d="M237 282.8H43.91C42.3973 282.797 40.9475 282.195 39.8789 281.124C38.8102 280.053 38.21 278.603 38.21 277.09V5.66C38.2232 4.15602 38.8292 2.71798 39.8964 1.65822C40.9637 0.598458 42.406 0.00257639 43.91 0H237C238.514 0 239.967 0.601588 241.038 1.67242C242.108 2.74325 242.71 4.19561 242.71 5.71V277.09C242.71 278.604 242.108 280.057 241.038 281.128C239.967 282.198 238.514 282.8 237 282.8ZM43.91 0.200001C42.4636 0.20265 41.0774 0.779065 40.0557 1.80273C39.0339 2.82639 38.46 4.21365 38.46 5.66V277.09C38.46 278.536 39.0339 279.924 40.0557 280.947C41.0774 281.971 42.4636 282.547 43.91 282.55H237C238.447 282.547 239.835 281.971 240.858 280.948C241.881 279.924 242.457 278.537 242.46 277.09V5.66C242.457 4.21273 241.881 2.82549 240.858 1.80212C239.835 0.77874 238.447 0.202644 237 0.200001H43.91Z" fill="#EBEBEB"/>
<path d="M453.31 282.8H260.21C258.696 282.797 257.246 282.195 256.175 281.125C255.105 280.054 254.503 278.604 254.5 277.09V5.66C254.516 4.15511 255.124 2.71708 256.193 1.65759C257.262 0.598109 258.705 0.00254829 260.21 0H453.31C454.812 0.0052045 456.252 0.602249 457.317 1.66173C458.382 2.72121 458.987 4.15775 459 5.66V277.09C459 278.601 458.401 280.05 457.335 281.121C456.268 282.191 454.821 282.795 453.31 282.8ZM260.21 0.200001C258.763 0.202644 257.375 0.77874 256.352 1.80212C255.329 2.82549 254.753 4.21273 254.75 5.66V277.09C254.753 278.537 255.329 279.924 256.352 280.948C257.375 281.971 258.763 282.547 260.21 282.55H453.31C454.757 282.547 456.145 281.971 457.168 280.948C458.191 279.924 458.767 278.537 458.77 277.09V5.66C458.767 4.21273 458.191 2.82549 457.168 1.80212C456.145 0.77874 454.757 0.202644 453.31 0.200001H260.21Z" fill="#EBEBEB"/>
<path d="M190.78 194.51L433.82 194.51V16.98L190.78 16.98L190.78 194.51Z" fill="#E6E6E6"/>
<path d="M180.04 194.51L431.33 194.51V16.98L180.04 16.98L180.04 194.51Z" fill="#F0F0F0"/>
<path d="M416.28 179.47V32.02L195.07 32.02V179.47H416.28Z" fill="#FAFAFA"/>
<path d="M362.51 179.46L312.15 32.02H264.06L314.42 179.46H362.51Z" fill="white"/>
<path d="M304.09 179.46L253.73 32.02H234.99L285.35 179.46H304.09Z" fill="white"/>
<path d="M196.99 179.47V32.02H195.08V179.47H196.99Z" fill="#E6E6E6"/>
<path d="M64.57 146.22H150.39L150.39 24.55L64.57 24.55L64.57 146.22Z" fill="#E0E0E0"/>
<path d="M58.5 146.22H146.96L146.96 24.55L58.5 24.55L58.5 146.22Z" fill="#F5F5F5"/>
<path d="M138.23 136.62V34.13L67.23 34.13V136.62H138.23Z" fill="white"/>
<path d="M97.93 231.4C104.3 215.68 119.45 209.83 124.69 199.9C131.54 186.9 131.5 167.39 125.69 160.36C120.61 154.24 103.81 195.6 101.92 200.22C96.7348 212.689 93.4905 225.879 92.3 239.33C92.44 229.62 92.57 220.7 92.68 213.82C93.04 191.38 93.48 184.16 93.68 181.94C94.38 180.85 95.21 179.59 95.68 178.94C99.75 173.21 108.77 166.38 113.28 158.05C119.86 145.88 118.8 131.32 114.18 125.9C109.35 120.23 100.82 133.63 96.29 146.9C91.76 160.17 93.69 172.9 92.42 183.9C92.16 186.06 91.88 194.27 91.63 205.67C90.25 193.41 87.51 185.2 82.44 177.54C76.2 168.13 70.81 156.67 65.67 158.15C60.53 159.63 63.29 174.8 67.36 185.44C71 194.92 88.85 204.38 91.48 212C91.17 227.44 90.89 247 90.7 265.23C89.29 255.82 90.26 255.03 84.48 240.62C81.05 232.06 67 221.5 65.3 227.38C63.6 233.26 66.17 244.38 71.48 252.18C75.77 258.46 85.28 258.45 87.48 262.35C87.99 263.26 89.69 266.75 90.66 268.75C90.43 290.99 90.33 310.63 90.44 317.32L91.36 317.39C91.36 315.66 91.43 304.39 91.61 289.39C93.92 281.39 109.47 276.78 114.27 268.49C119.27 259.82 122.91 249.7 120.75 242.93C118.95 237.28 104.75 244.93 99.04 254.32C95.21 260.56 92.87 267.21 91.78 276.15C91.91 265.95 92.06 254.99 92.2 244.65C93.37 242.05 96 236.11 97.93 231.4Z" fill="#E6E6E6"/>
<path d="M107.06 327.4H74.38C73.5164 327.399 72.6795 327.1 72.0109 326.553C71.3422 326.007 70.8827 325.246 70.71 324.4L68.39 313H113.06L110.74 324.43C110.557 325.271 110.093 326.024 109.424 326.564C108.754 327.104 107.92 327.399 107.06 327.4Z" fill="#F0F0F0"/>
<path d="M114 317.39H67.45C66.9108 317.389 66.3909 317.189 65.989 316.83C65.5871 316.47 65.3313 315.976 65.27 315.44L64.27 306.99C64.2363 306.683 64.2676 306.373 64.3617 306.079C64.4558 305.785 64.6107 305.514 64.8163 305.284C65.0219 305.054 65.2736 304.87 65.555 304.743C65.8365 304.617 66.1414 304.551 66.45 304.55H114.89C115.199 304.549 115.505 304.614 115.787 304.74C116.069 304.866 116.322 305.05 116.527 305.281C116.733 305.511 116.888 305.783 116.982 306.077C117.075 306.372 117.105 306.683 117.07 306.99L116.07 315.44C116.012 315.957 115.771 316.437 115.392 316.794C115.013 317.151 114.52 317.363 114 317.39Z" fill="#F0F0F0"/>
<path d="M405.63 320.11H415.62V212.62H405.63V320.11Z" fill="#F0F0F0"/>
<path d="M202.06 327.27H411.79V320.11H202.06V327.27Z" fill="#F0F0F0"/>
<path d="M405.64 212.62H198.23V320.11H405.64V212.62Z" fill="#F5F5F5"/>
<path d="M407.99 212.62H418.31V205.84H407.99V212.62Z" fill="#E0E0E0"/>
<path d="M407.99 205.84H195.54V212.62H407.99V205.84Z" fill="#EBEBEB"/>
<path d="M390.75 259H213.11C210.988 259 208.953 258.157 207.453 256.657C205.953 255.157 205.11 253.122 205.11 251V228C205.11 225.878 205.953 223.843 207.453 222.343C208.953 220.843 210.988 220 213.11 220H390.75C392.872 220 394.907 220.843 396.407 222.343C397.907 223.843 398.75 225.878 398.75 228V251C398.75 253.122 397.907 255.157 396.407 256.657C394.907 258.157 392.872 259 390.75 259ZM213.11 222C211.519 222 209.993 222.632 208.867 223.757C207.742 224.883 207.11 226.409 207.11 228V251C207.11 252.591 207.742 254.117 208.867 255.243C209.993 256.368 211.519 257 213.11 257H390.75C392.341 257 393.867 256.368 394.993 255.243C396.118 254.117 396.75 252.591 396.75 251V228C396.75 226.409 396.118 224.883 394.993 223.757C393.867 222.632 392.341 222 390.75 222H213.11Z" fill="white"/>
<path d="M390.75 307.19H213.11C210.988 307.19 208.953 306.347 207.453 304.847C205.953 303.347 205.11 301.312 205.11 299.19V276.19C205.11 274.068 205.953 272.033 207.453 270.533C208.953 269.033 210.988 268.19 213.11 268.19H390.75C392.872 268.19 394.907 269.033 396.407 270.533C397.907 272.033 398.75 274.068 398.75 276.19V299.19C398.75 301.312 397.907 303.347 396.407 304.847C394.907 306.347 392.872 307.19 390.75 307.19ZM213.11 270.11C211.519 270.11 209.993 270.742 208.867 271.867C207.742 272.993 207.11 274.519 207.11 276.11V299.11C207.11 300.701 207.742 302.227 208.867 303.353C209.993 304.478 211.519 305.11 213.11 305.11H390.75C392.341 305.11 393.867 304.478 394.993 303.353C396.118 302.227 396.75 300.701 396.75 299.11V276.11C396.75 274.519 396.118 272.993 394.993 271.867C393.867 270.742 392.341 270.11 390.75 270.11H213.11Z" fill="white"/>
<path d="M350.38 243H253.48C252.792 243 252.132 242.727 251.645 242.242C251.158 241.757 250.883 241.098 250.88 240.41V238.51C250.883 237.822 251.158 237.163 251.645 236.678C252.132 236.193 252.792 235.92 253.48 235.92H350.38C351.068 235.92 351.728 236.193 352.215 236.678C352.702 237.163 352.977 237.822 352.98 238.51V240.41C352.977 241.098 352.702 241.757 352.215 242.242C351.728 242.727 351.068 243 350.38 243ZM253.48 238C253.323 238.002 253.174 238.065 253.062 238.175C252.95 238.285 252.885 238.433 252.88 238.59V240.49C252.885 240.647 252.95 240.795 253.062 240.905C253.174 241.015 253.323 241.078 253.48 241.08H350.38C350.537 241.08 350.689 241.018 350.801 240.908C350.913 240.797 350.977 240.647 350.98 240.49V238.59C350.977 238.433 350.913 238.283 350.801 238.172C350.689 238.062 350.537 238 350.38 238H253.48Z" fill="white"/>
<path d="M350.38 291.19H253.48C252.792 291.19 252.132 290.917 251.645 290.432C251.158 289.947 250.883 289.288 250.88 288.6V286.7C250.883 286.012 251.158 285.353 251.645 284.868C252.132 284.383 252.792 284.11 253.48 284.11H350.38C351.068 284.11 351.728 284.383 352.215 284.868C352.702 285.353 352.977 286.012 352.98 286.7V288.6C352.977 289.288 352.702 289.947 352.215 290.432C351.728 290.917 351.068 291.19 350.38 291.19ZM253.48 286.11C253.323 286.112 253.174 286.175 253.062 286.285C252.95 286.395 252.885 286.543 252.88 286.7V288.6C252.885 288.757 252.95 288.905 253.062 289.015C253.174 289.125 253.323 289.188 253.48 289.19H350.38C350.537 289.19 350.689 289.128 350.801 289.018C350.913 288.907 350.977 288.757 350.98 288.6V286.7C350.977 286.543 350.913 286.393 350.801 286.282C350.689 286.172 350.537 286.11 350.38 286.11H253.48Z" fill="white"/>
</svg>
