<svg width="500" height="500" viewBox="0 0 500 500" fill="none" xmlns="http://www.w3.org/2000/svg">
<path d="M96.11 434.09C181.93 476.2 321.11 476.2 406.88 434.09C492.65 391.98 492.69 323.69 406.88 281.58C321.07 239.47 181.93 239.46 96.11 281.58C10.29 323.7 10.29 392 96.11 434.09Z" fill="#F5F5F5"/>
<path d="M144.11 428.58C169.902 428.58 190.81 418.614 190.81 406.32C190.81 394.026 169.902 384.06 144.11 384.06C118.318 384.06 97.41 394.026 97.41 406.32C97.41 418.614 118.318 428.58 144.11 428.58Z" fill="#E0E0E0"/>
<path d="M379.01 363.1C404.802 363.1 425.71 353.134 425.71 340.84C425.71 328.546 404.802 318.58 379.01 318.58C353.218 318.58 332.31 328.546 332.31 340.84C332.31 353.134 353.218 363.1 379.01 363.1Z" fill="#E0E0E0"/>
<path d="M201.76 245L162.15 267.87C160.538 268.921 159.394 270.555 158.96 272.43L149.12 329.26C149.01 330.146 149.153 331.045 149.531 331.853C149.91 332.662 150.509 333.347 151.26 333.83L176.8 348.57C177.624 348.989 178.536 349.207 179.46 349.207C180.385 349.207 181.296 348.989 182.12 348.57L236.7 317.06C237.504 316.635 238.176 315.999 238.646 315.22C239.115 314.441 239.363 313.549 239.363 312.64C239.363 311.731 239.115 310.839 238.646 310.06C238.176 309.281 237.504 308.645 236.7 308.22L217.06 296.88C216.266 296.368 215.588 295.695 215.071 294.904C214.554 294.114 214.21 293.223 214.06 292.29L209.69 249.41C209.563 248.505 209.248 247.637 208.763 246.861C208.279 246.086 207.638 245.421 206.88 244.91C206.079 244.525 205.198 244.332 204.309 244.348C203.42 244.363 202.547 244.587 201.76 245Z" fill="#263238"/>
<path d="M179.46 338.59V349.22C180.386 349.234 181.301 349.014 182.12 348.58L236.7 317.07C237.459 316.594 238.096 315.945 238.558 315.178C239.02 314.41 239.295 313.544 239.36 312.65C239.307 311.606 238.941 310.603 238.31 309.77H229.38L179.46 338.59Z" fill="#455A64"/>
<path d="M206.75 247.9L167.14 270.76C165.528 271.814 164.388 273.452 163.96 275.33L155 326.91C154.889 327.796 155.031 328.696 155.41 329.504C155.788 330.313 156.388 330.998 157.14 331.48L176.78 342.82C177.605 343.234 178.516 343.45 179.44 343.45C180.364 343.45 181.274 343.234 182.1 342.82L236.7 311.3C238.17 310.45 238.17 309.08 236.7 308.23L217.06 296.89C216.266 296.378 215.588 295.705 215.071 294.914C214.554 294.124 214.21 293.233 214.06 292.3L209.69 249.42C209.699 249.075 209.61 248.734 209.434 248.437C209.258 248.14 209.002 247.899 208.696 247.74C208.389 247.582 208.044 247.512 207.7 247.541C207.356 247.569 207.027 247.694 206.75 247.9Z" fill="#263238"/>
<path d="M236.7 308.23L217.06 296.89C216.273 296.393 215.607 295.727 215.11 294.94L155.4 329.42C155.759 330.273 156.374 330.992 157.16 331.48L176.8 342.82C177.626 343.234 178.536 343.45 179.46 343.45C180.384 343.45 181.295 343.234 182.12 342.82L236.7 311.3C238.17 310.45 238.17 309.08 236.7 308.23Z" fill="#37474F"/>
<path d="M75.89 358L73.36 356.54C72.274 355.832 71.3702 354.879 70.7221 353.756C70.074 352.634 69.6998 351.374 69.63 350.08V180C69.7006 178.709 70.0752 177.452 70.7234 176.333C71.3716 175.214 72.275 174.264 73.36 173.56L281.16 54.26C282.315 53.6757 283.591 53.3712 284.885 53.3712C286.179 53.3712 287.455 53.6757 288.61 54.26L290.55 55.38C291.635 56.0853 292.538 57.0374 293.184 58.1584C293.831 59.2795 294.203 60.5376 294.27 61.83V232C294.201 233.292 293.827 234.549 293.181 235.67C292.535 236.79 291.633 237.743 290.55 238.45L83.34 358C82.1859 358.587 80.9096 358.892 79.615 358.892C78.3204 358.892 77.0441 358.587 75.89 358Z" fill="#455A64"/>
<path d="M84.61 184.38L70.73 176.38C70.0555 177.489 69.6768 178.753 69.63 180.05V350.12C69.6998 351.414 70.074 352.674 70.7221 353.796C71.3702 354.919 72.274 355.872 73.36 356.58L75.89 358C77.0441 358.587 78.3204 358.892 79.615 358.892C80.9096 358.892 82.1859 358.587 83.34 358L84.61 357.27V184.38Z" fill="#263238"/>
<path d="M79.62 355.89V185.8C79.6903 184.508 80.0636 183.251 80.7099 182.131C81.3562 181.01 82.2572 180.058 83.34 179.35L290.55 59.72C292.61 58.53 294.27 59.49 294.27 61.87V232C294.201 233.292 293.827 234.549 293.181 235.67C292.535 236.79 291.633 237.743 290.55 238.45L83.34 358C81.29 359.23 79.62 358.26 79.62 355.89Z" fill="#37474F"/>
<path d="M176.92 292.49L196.55 281.15C198.02 280.3 199.22 280.91 199.22 282.5C199.153 283.394 198.876 284.261 198.412 285.028C197.948 285.796 197.31 286.444 196.55 286.92L176.92 298.25C175.45 299.1 174.26 298.5 174.26 296.91C174.325 296.016 174.6 295.15 175.062 294.382C175.525 293.615 176.161 292.966 176.92 292.49Z" fill="#E0E0E0"/>
<path d="M89.16 184.55L284.31 71.55C285.48 70.87 286.43 71.41 286.43 72.77V221C286.391 221.738 286.179 222.457 285.811 223.098C285.442 223.739 284.928 224.285 284.31 224.69L89.17 337.38C87.99 338.06 87.04 337.51 87.04 336.16V188.24C87.079 187.502 87.2912 186.783 87.6595 186.142C88.0278 185.501 88.5418 184.956 89.16 184.55Z" fill="white"/>
<path d="M96.44 187.39L275.48 84C278.73 82.13 281.39 83.66 281.39 87.41V216.16C281.337 217.111 281.062 218.036 280.586 218.861C280.11 219.687 279.447 220.388 278.65 220.91L95.38 326.7C93.87 327.58 92.64 326.86 92.64 325.12V194C92.7103 192.677 93.0909 191.39 93.7511 190.241C94.4112 189.093 95.3324 188.116 96.44 187.39Z" fill="#E6E6E6"/>
<path d="M169.85 164.91L268.52 107.94V127.76L169.85 184.72V164.91Z" fill="#F5F5F5"/>
<path d="M169.85 192.57L268.52 135.6V185.24L169.85 242.21V192.57Z" fill="#F0F0F0"/>
<path d="M281.39 90.53V87.44C281.39 83.69 278.73 82.16 275.48 84.03L96.48 187.39C95.375 188.114 94.4555 189.088 93.7955 190.233C93.1355 191.377 92.7534 192.661 92.68 193.98V199.49L281.39 90.53Z" fill="#F2C344"/>
<path d="M256.61 97.55C256.024 97.9413 255.538 98.4644 255.191 99.0774C254.843 99.6904 254.644 100.376 254.61 101.08C254.61 102.38 255.52 102.9 256.61 102.25C257.196 101.861 257.683 101.34 258.03 100.729C258.378 100.117 258.576 99.4325 258.61 98.73C258.65 97.43 257.74 96.91 256.61 97.55Z" fill="white"/>
<path d="M264.69 92.89C264.103 93.2801 263.616 93.803 263.269 94.4162C262.921 95.0295 262.723 95.7159 262.69 96.42C262.69 97.71 263.6 98.24 264.69 97.59C265.275 97.1997 265.76 96.6782 266.107 96.067C266.454 95.4559 266.654 94.772 266.69 94.07C266.72 92.77 265.81 92.24 264.69 92.89Z" fill="white"/>
<path d="M272.76 88.23C272.175 88.6203 271.69 89.1418 271.343 89.753C270.996 90.3641 270.796 91.048 270.76 91.75C270.76 93.05 271.67 93.58 272.76 92.93C273.347 92.5399 273.834 92.017 274.181 91.4038C274.529 90.7905 274.727 90.1041 274.76 89.4C274.8 88.11 273.89 87.58 272.76 88.23Z" fill="white"/>
<path d="M101.21 270C101.028 269.998 100.849 269.95 100.69 269.86C100.529 269.768 100.396 269.636 100.303 269.476C100.21 269.316 100.16 269.135 100.16 268.95V204.55C100.154 204.365 100.199 204.182 100.291 204.021C100.383 203.861 100.518 203.729 100.68 203.64L156.36 171.38C156.522 171.289 156.704 171.241 156.89 171.241C157.076 171.241 157.258 171.289 157.42 171.38C157.581 171.473 157.715 171.607 157.808 171.769C157.902 171.93 157.95 172.114 157.95 172.3V236.75C157.95 236.935 157.9 237.116 157.807 237.276C157.714 237.436 157.581 237.568 157.42 237.66L101.74 269.86C101.578 269.951 101.396 270 101.21 270ZM102.27 205.16V267.16L155.84 236.16V174.16L102.27 205.16Z" fill="#FAFAFA"/>
<path d="M120.4 246.75C118.452 246.771 116.533 246.274 114.84 245.31C110.84 243 108.63 238.22 108.63 231.83C108.63 219.15 117.55 203.65 128.52 197.3C134.03 194.11 139.27 193.62 143.27 195.93C147.27 198.24 149.48 203.02 149.48 209.41C149.48 222.11 140.55 237.6 129.58 243.95C126.817 245.669 123.652 246.634 120.4 246.75ZM137.71 196.61C134.826 196.724 132.023 197.593 129.58 199.13C119.19 205.13 110.74 219.82 110.74 231.83C110.74 237.43 112.57 241.57 115.89 243.48C119.21 245.39 123.7 244.91 128.52 242.12C138.91 236.12 147.37 221.44 147.37 209.41C147.37 203.81 145.54 199.67 142.21 197.76C140.839 196.984 139.286 196.587 137.71 196.61Z" fill="#FAFAFA"/>
<path d="M339.52 278.63L335.65 276.39C335.558 276.341 335.455 276.315 335.35 276.315C335.245 276.315 335.142 276.341 335.05 276.39L328.05 279.54C327.94 279.593 327.819 279.62 327.697 279.621C327.574 279.621 327.454 279.595 327.343 279.543C327.232 279.492 327.134 279.416 327.056 279.322C326.977 279.228 326.921 279.118 326.89 279C326.512 277.785 325.988 276.619 325.33 275.53C325.182 275.276 325.095 274.991 325.076 274.698C325.057 274.405 325.106 274.111 325.22 273.84L329.88 264.44C329.995 264.202 330.017 263.929 329.941 263.675C329.865 263.422 329.697 263.206 329.47 263.07L324.41 260.15C324.298 260.079 324.173 260.03 324.042 260.008C323.911 259.985 323.777 259.989 323.648 260.019C323.518 260.048 323.396 260.104 323.289 260.181C323.181 260.259 323.089 260.357 323.02 260.47L317.21 269.21C317.028 269.441 316.797 269.628 316.535 269.759C316.272 269.891 315.984 269.963 315.69 269.97C315.022 269.952 314.354 269.982 313.69 270.06V263.67L309.8 261.43C309.699 261.385 309.587 261.366 309.477 261.377C309.367 261.387 309.261 261.426 309.17 261.49L301.31 266.03C301.06 266.194 300.846 266.408 300.684 266.66C300.522 266.911 300.415 267.194 300.37 267.49L299.59 276.24C299.5 276.858 299.212 277.429 298.77 277.87C297.213 279.312 295.753 280.855 294.4 282.49C294.212 282.702 293.967 282.857 293.694 282.935C293.421 283.012 293.132 283.011 292.86 282.93L287.81 281.17C287.551 281.089 287.271 281.096 287.016 281.19C286.761 281.284 286.544 281.46 286.4 281.69L280.62 291.69C280.49 291.931 280.444 292.208 280.489 292.478C280.534 292.748 280.668 292.995 280.87 293.18L284.92 296.67C285.126 296.866 285.273 297.117 285.342 297.393C285.411 297.67 285.4 297.96 285.31 298.23C284.568 300.216 283.963 302.251 283.5 304.32C283.336 304.92 282.986 305.452 282.5 305.84L275.32 310.89C275.086 311.078 274.893 311.313 274.756 311.58C274.618 311.847 274.538 312.14 274.52 312.44V321.51C274.51 321.624 274.531 321.739 274.58 321.843C274.63 321.946 274.705 322.035 274.8 322.1L278.67 324.33L284.42 321.61C284.633 322.069 284.87 322.516 285.13 322.95C285.278 323.204 285.365 323.489 285.384 323.782C285.403 324.075 285.354 324.369 285.24 324.64L280.58 334.04C280.465 334.278 280.443 334.551 280.519 334.805C280.595 335.058 280.763 335.274 280.99 335.41L286.05 338.33C286.28 338.459 286.55 338.498 286.807 338.439C287.064 338.38 287.29 338.227 287.44 338.01L293.25 329.27C293.432 329.039 293.663 328.852 293.925 328.721C294.188 328.589 294.476 328.517 294.77 328.51C296.044 328.537 297.317 328.409 298.56 328.13C298.678 328.097 298.803 328.091 298.924 328.112C299.045 328.133 299.16 328.18 299.26 328.251C299.361 328.322 299.444 328.414 299.505 328.521C299.565 328.628 299.601 328.747 299.61 328.87L300.37 336.5C300.373 336.609 300.403 336.715 300.457 336.809C300.511 336.903 300.588 336.982 300.68 337.04L304.55 339.27L309.19 332.45C309.442 332.285 309.655 332.069 309.817 331.816C309.979 331.562 310.086 331.278 310.13 330.98L310.91 322.24C310.956 321.955 311.071 321.685 311.245 321.455C311.419 321.225 311.648 321.041 311.91 320.92C314.213 319.919 316.289 318.459 318.01 316.63C318.212 316.429 318.464 316.285 318.74 316.213C319.015 316.141 319.305 316.143 319.58 316.22L322.68 317.31C322.94 317.392 323.221 317.385 323.477 317.289C323.732 317.193 323.948 317.013 324.09 316.78L329.87 306.78C330 306.539 330.046 306.262 330.001 305.992C329.955 305.722 329.821 305.475 329.62 305.29L326.96 302.99C326.754 302.791 326.605 302.54 326.528 302.264C326.451 301.989 326.448 301.697 326.52 301.42C327.101 299.049 327.347 296.609 327.25 294.17C327.253 293.874 327.322 293.582 327.452 293.316C327.581 293.049 327.769 292.815 328 292.63L335.18 287.57C335.414 287.384 335.607 287.151 335.745 286.886C335.883 286.62 335.963 286.329 335.98 286.03L339.41 281.92L339.52 278.63ZM305.2 314.63C297.87 318.87 293.31 315.86 293.31 307.4C293.31 298.94 299.37 288.56 306.7 284.33C314.03 280.1 318.48 283.17 318.48 291.64C318.48 300.11 312.53 310.36 305.2 314.59V314.63Z" fill="#F2C344"/>
<path opacity="0.1" d="M339.52 278.63L335.65 276.39C335.558 276.341 335.455 276.315 335.35 276.315C335.245 276.315 335.142 276.341 335.05 276.39L328.05 279.54C327.94 279.593 327.819 279.62 327.697 279.621C327.574 279.621 327.454 279.595 327.343 279.543C327.232 279.492 327.134 279.416 327.056 279.322C326.977 279.228 326.921 279.118 326.89 279C326.512 277.785 325.988 276.619 325.33 275.53C325.182 275.276 325.095 274.991 325.076 274.698C325.057 274.405 325.106 274.111 325.22 273.84L329.88 264.44C329.995 264.202 330.017 263.929 329.941 263.675C329.865 263.422 329.697 263.206 329.47 263.07L324.41 260.15C324.298 260.079 324.173 260.03 324.042 260.008C323.911 259.985 323.777 259.989 323.648 260.019C323.518 260.048 323.396 260.104 323.289 260.181C323.181 260.259 323.089 260.357 323.02 260.47L317.21 269.21C317.028 269.441 316.797 269.628 316.535 269.759C316.272 269.891 315.984 269.963 315.69 269.97C315.022 269.952 314.354 269.982 313.69 270.06V263.67L309.8 261.43C309.699 261.385 309.587 261.366 309.477 261.377C309.367 261.387 309.261 261.426 309.17 261.49L301.31 266.03C301.06 266.194 300.846 266.408 300.684 266.66C300.522 266.911 300.415 267.194 300.37 267.49L299.59 276.24C299.5 276.858 299.212 277.429 298.77 277.87C297.213 279.312 295.753 280.855 294.4 282.49C294.212 282.702 293.967 282.857 293.694 282.935C293.421 283.012 293.132 283.011 292.86 282.93L287.81 281.17C287.551 281.089 287.271 281.096 287.016 281.19C286.761 281.284 286.544 281.46 286.4 281.69L280.62 291.69C280.49 291.931 280.444 292.208 280.489 292.478C280.534 292.748 280.668 292.995 280.87 293.18L284.92 296.67C285.126 296.866 285.273 297.117 285.342 297.393C285.411 297.67 285.4 297.96 285.31 298.23C284.568 300.216 283.963 302.251 283.5 304.32C283.336 304.92 282.986 305.452 282.5 305.84L275.32 310.89C275.086 311.078 274.893 311.313 274.756 311.58C274.618 311.847 274.538 312.14 274.52 312.44V321.51C274.51 321.624 274.531 321.739 274.58 321.843C274.63 321.946 274.705 322.035 274.8 322.1L278.67 324.33L284.42 321.61C284.633 322.069 284.87 322.516 285.13 322.95C285.278 323.204 285.365 323.489 285.384 323.782C285.403 324.075 285.354 324.369 285.24 324.64L280.58 334.04C280.465 334.278 280.443 334.551 280.519 334.805C280.595 335.058 280.763 335.274 280.99 335.41L286.05 338.33C286.28 338.459 286.55 338.498 286.807 338.439C287.064 338.38 287.29 338.227 287.44 338.01L293.25 329.27C293.432 329.039 293.663 328.852 293.925 328.721C294.188 328.589 294.476 328.517 294.77 328.51C296.044 328.537 297.317 328.409 298.56 328.13C298.678 328.097 298.803 328.091 298.924 328.112C299.045 328.133 299.16 328.18 299.26 328.251C299.361 328.322 299.444 328.414 299.505 328.521C299.565 328.628 299.601 328.747 299.61 328.87L300.37 336.5C300.373 336.609 300.403 336.715 300.457 336.809C300.511 336.903 300.588 336.982 300.68 337.04L304.55 339.27L309.19 332.45C309.442 332.285 309.655 332.069 309.817 331.816C309.979 331.562 310.086 331.278 310.13 330.98L310.91 322.24C310.956 321.955 311.071 321.685 311.245 321.455C311.419 321.225 311.648 321.041 311.91 320.92C314.213 319.919 316.289 318.459 318.01 316.63C318.212 316.429 318.464 316.285 318.74 316.213C319.015 316.141 319.305 316.143 319.58 316.22L322.68 317.31C322.94 317.392 323.221 317.385 323.477 317.289C323.732 317.193 323.948 317.013 324.09 316.78L329.87 306.78C330 306.539 330.046 306.262 330.001 305.992C329.955 305.722 329.821 305.475 329.62 305.29L326.96 302.99C326.754 302.791 326.605 302.54 326.528 302.264C326.451 301.989 326.448 301.697 326.52 301.42C327.101 299.049 327.347 296.609 327.25 294.17C327.253 293.874 327.322 293.582 327.452 293.316C327.581 293.049 327.769 292.815 328 292.63L335.18 287.57C335.414 287.384 335.607 287.151 335.745 286.886C335.883 286.62 335.963 286.329 335.98 286.03L339.41 281.92L339.52 278.63ZM305.2 314.63C297.87 318.87 293.31 315.86 293.31 307.4C293.31 298.94 299.37 288.56 306.7 284.33C314.03 280.1 318.48 283.17 318.48 291.64C318.48 300.11 312.53 310.36 305.2 314.59V314.63Z" fill="black"/>
<path d="M328.33 267.57L329.87 264.46C329.985 264.222 330.007 263.949 329.931 263.695C329.855 263.442 329.687 263.226 329.46 263.09L324.4 260.17C324.288 260.099 324.163 260.05 324.032 260.028C323.901 260.005 323.767 260.009 323.638 260.039C323.508 260.068 323.386 260.124 323.279 260.201C323.171 260.279 323.079 260.377 323.01 260.49L317.2 269.23C317.09 269.373 316.959 269.498 316.81 269.6L323.31 273.36L328.33 267.57Z" fill="#F2C344"/>
<path d="M283 305.28C282.854 305.508 282.667 305.708 282.45 305.87L275.27 310.92C275.078 311.07 274.918 311.257 274.8 311.47L279.18 314L288.71 308.57L283 305.28Z" fill="#F2C344"/>
<path d="M287.37 281.13C287.169 281.137 286.972 281.194 286.798 281.295C286.623 281.396 286.476 281.539 286.37 281.71L280.59 291.71C280.473 291.934 280.427 292.189 280.46 292.44L285.46 295.32L293.37 284.62L287.37 281.13Z" fill="#F2C344"/>
<path d="M300.49 267L306.65 270.56L313.65 266.56V263.74L309.76 261.5C309.659 261.455 309.548 261.436 309.437 261.447C309.327 261.457 309.221 261.496 309.13 261.56L301.27 266.1C300.928 266.318 300.657 266.631 300.49 267Z" fill="#F2C344"/>
<path d="M339.52 278.63C339.425 278.577 339.318 278.55 339.21 278.55C339.102 278.55 338.995 278.577 338.9 278.63L331.9 281.79C331.79 281.843 331.669 281.87 331.547 281.871C331.425 281.871 331.304 281.845 331.193 281.793C331.082 281.742 330.984 281.666 330.906 281.572C330.827 281.478 330.771 281.368 330.74 281.25C330.48 280.402 330.145 279.579 329.74 278.79L335 276.4C335.095 276.352 335.199 276.328 335.305 276.328C335.411 276.328 335.515 276.352 335.61 276.4L339.52 278.63Z" fill="#F2C344"/>
<g opacity="0.4">
<path d="M328.33 267.57L329.87 264.46C329.985 264.222 330.007 263.949 329.931 263.695C329.855 263.442 329.687 263.226 329.46 263.09L324.4 260.17C324.288 260.099 324.163 260.05 324.032 260.028C323.901 260.005 323.767 260.009 323.638 260.039C323.508 260.068 323.386 260.124 323.279 260.201C323.171 260.279 323.079 260.377 323.01 260.49L317.2 269.23C317.09 269.373 316.959 269.498 316.81 269.6L323.31 273.36L328.33 267.57Z" fill="white"/>
<path d="M283 305.28C282.854 305.508 282.667 305.708 282.45 305.87L275.27 310.92C275.078 311.07 274.918 311.257 274.8 311.47L279.18 314L288.71 308.57L283 305.28Z" fill="white"/>
<path d="M287.37 281.13C287.169 281.137 286.972 281.194 286.798 281.295C286.623 281.396 286.476 281.539 286.37 281.71L280.59 291.71C280.473 291.934 280.427 292.189 280.46 292.44L285.46 295.32L293.37 284.62L287.37 281.13Z" fill="white"/>
<path d="M300.49 267L306.65 270.56L313.65 266.56V263.74L309.76 261.5C309.659 261.455 309.547 261.436 309.437 261.447C309.327 261.457 309.221 261.496 309.13 261.56L301.27 266.1C300.928 266.318 300.657 266.631 300.49 267Z" fill="white"/>
<path d="M339.52 278.63C339.425 278.577 339.318 278.55 339.21 278.55C339.101 278.55 338.995 278.577 338.9 278.63L331.9 281.79C331.79 281.843 331.669 281.87 331.547 281.871C331.424 281.871 331.304 281.845 331.193 281.793C331.082 281.742 330.984 281.666 330.906 281.572C330.827 281.478 330.771 281.368 330.74 281.25C330.48 280.402 330.145 279.579 329.74 278.79L335 276.4C335.095 276.352 335.199 276.328 335.305 276.328C335.411 276.328 335.515 276.352 335.61 276.4L339.52 278.63Z" fill="white"/>
</g>
<path d="M339.8 288.29V279.21C339.815 279.099 339.799 278.985 339.752 278.883C339.705 278.78 339.63 278.693 339.535 278.633C339.441 278.572 339.33 278.539 339.218 278.538C339.105 278.538 338.995 278.57 338.9 278.63L331.9 281.79C331.789 281.843 331.668 281.87 331.545 281.871C331.422 281.871 331.3 281.845 331.189 281.793C331.077 281.742 330.978 281.667 330.899 281.573C330.82 281.479 330.762 281.369 330.73 281.25C330.352 280.035 329.828 278.869 329.17 277.78C329.026 277.524 328.942 277.239 328.925 276.947C328.907 276.654 328.957 276.361 329.07 276.09L333.73 266.68C333.844 266.442 333.863 266.17 333.786 265.918C333.708 265.666 333.538 265.453 333.31 265.32L328.25 262.39C328.019 262.262 327.748 262.225 327.491 262.286C327.234 262.347 327.009 262.502 326.86 262.72L321.05 271.46C320.871 271.694 320.641 271.883 320.378 272.013C320.114 272.143 319.824 272.21 319.53 272.21C318.259 272.187 316.99 272.318 315.75 272.6C315.632 272.633 315.507 272.639 315.386 272.618C315.265 272.597 315.15 272.55 315.05 272.479C314.949 272.408 314.866 272.316 314.805 272.209C314.745 272.102 314.709 271.983 314.7 271.86L313.93 264.22C313.932 264.109 313.903 263.999 313.846 263.904C313.789 263.808 313.705 263.731 313.606 263.681C313.507 263.631 313.395 263.609 313.284 263.62C313.174 263.63 313.068 263.672 312.98 263.74L305.13 268.28C304.879 268.443 304.665 268.657 304.503 268.909C304.341 269.161 304.234 269.444 304.19 269.74L303.4 278.49C303.307 279.107 303.02 279.678 302.58 280.12C301.024 281.559 299.567 283.103 298.22 284.74C298.03 284.953 297.784 285.108 297.509 285.186C297.234 285.264 296.943 285.262 296.67 285.18L291.67 283.42C291.409 283.336 291.128 283.342 290.871 283.436C290.613 283.53 290.395 283.708 290.25 283.94L284.48 293.94C284.348 294.18 284.301 294.458 284.347 294.728C284.392 294.999 284.527 295.246 284.73 295.43L288.78 298.92C288.985 299.115 289.131 299.364 289.2 299.638C289.269 299.913 289.259 300.201 289.17 300.47C288.431 302.461 287.823 304.499 287.35 306.57C287.188 307.171 286.837 307.703 286.35 308.09L279.18 313.09C278.942 313.275 278.746 313.51 278.607 313.777C278.467 314.045 278.386 314.339 278.37 314.64V323.71C278.354 323.821 278.371 323.935 278.418 324.037C278.465 324.14 278.54 324.227 278.635 324.287C278.729 324.348 278.839 324.381 278.952 324.382C279.064 324.382 279.175 324.35 279.27 324.29L286.27 321.14C286.381 321.086 286.502 321.057 286.626 321.055C286.749 321.054 286.871 321.08 286.983 321.131C287.096 321.183 287.195 321.259 287.274 321.354C287.353 321.449 287.409 321.56 287.44 321.68C287.809 322.915 288.333 324.097 289 325.2C289.141 325.459 289.223 325.745 289.24 326.039C289.257 326.333 289.209 326.627 289.1 326.9L284.44 336.3C284.327 336.539 284.307 336.811 284.382 337.064C284.458 337.316 284.625 337.532 284.85 337.67L289.91 340.59C290.142 340.721 290.415 340.76 290.674 340.699C290.934 340.638 291.161 340.481 291.31 340.26L297.12 331.53C297.302 331.299 297.532 331.112 297.795 330.981C298.058 330.849 298.346 330.777 298.64 330.77C299.911 330.797 301.18 330.669 302.42 330.39C302.538 330.357 302.663 330.351 302.784 330.372C302.905 330.393 303.02 330.44 303.12 330.511C303.221 330.582 303.304 330.674 303.365 330.781C303.425 330.888 303.461 331.007 303.47 331.13L304.24 338.76C304.236 338.872 304.263 338.983 304.32 339.08C304.376 339.177 304.459 339.256 304.559 339.307C304.659 339.359 304.771 339.381 304.883 339.37C304.995 339.36 305.101 339.319 305.19 339.25L313.04 334.71C313.292 334.545 313.505 334.329 313.667 334.076C313.829 333.822 313.936 333.537 313.98 333.24L314.77 324.5C314.865 323.881 315.152 323.308 315.59 322.86C317.146 321.42 318.603 319.877 319.95 318.24C320.141 318.031 320.386 317.88 320.658 317.804C320.931 317.728 321.219 317.73 321.49 317.81L326.54 319.57C326.802 319.651 327.083 319.643 327.34 319.547C327.597 319.451 327.815 319.273 327.96 319.04L333.73 309.04C333.859 308.801 333.905 308.525 333.859 308.257C333.814 307.989 333.681 307.744 333.48 307.56L329.43 304.07C329.225 303.873 329.079 303.622 329.01 303.346C328.941 303.07 328.951 302.78 329.04 302.51C329.78 300.522 330.388 298.488 330.86 296.42C331.022 295.819 331.373 295.287 331.86 294.9L339.04 289.84C339.27 289.651 339.456 289.414 339.587 289.147C339.719 288.88 339.791 288.588 339.8 288.29ZM309.06 316.82C301.73 321.06 295.79 317.62 295.79 309.16C295.79 300.7 301.73 290.4 309.06 286.16C316.39 281.92 322.34 285.36 322.34 293.83C322.34 302.3 316.4 312.59 309.06 316.82Z" fill="#F2C344"/>
<path d="M300.82 349.75C300.713 349.695 300.592 349.671 300.471 349.682C300.351 349.692 300.236 349.737 300.14 349.81L296.83 352C296.611 352.128 296.353 352.167 296.106 352.112C295.859 352.056 295.643 351.909 295.5 351.7C295.306 351.422 295.092 351.158 294.86 350.91C294.665 350.704 294.526 350.452 294.458 350.176C294.39 349.901 294.394 349.613 294.47 349.34L299.73 346.01L295.8 343.74C295.721 343.687 295.633 343.65 295.54 343.63L293.05 343.07C292.776 343.022 292.493 343.06 292.241 343.178C291.989 343.296 291.779 343.489 291.64 343.73L289.29 348.19C288.97 348.71 288.467 349.092 287.88 349.26H287.73C287.832 348.934 287.902 348.599 287.94 348.26L284 346C283.884 345.936 283.75 345.912 283.618 345.93C283.487 345.948 283.365 346.007 283.27 346.1L279.53 349C279.307 349.2 279.128 349.446 279.006 349.72C278.884 349.993 278.82 350.29 278.82 350.59L279.04 354.14C279.047 354.762 278.842 355.369 278.46 355.86C277.844 356.597 277.267 357.364 276.73 358.16C276.553 358.397 276.324 358.589 276.06 358.723C275.796 358.856 275.505 358.927 275.21 358.93L272.81 358.81C272.523 358.808 272.242 358.887 271.998 359.037C271.754 359.188 271.557 359.403 271.43 359.66L269.17 364.72C269.085 364.936 269.077 365.174 269.148 365.395C269.219 365.616 269.365 365.805 269.56 365.93L272.22 367.46C272.305 367.68 272.325 367.919 272.28 368.15C272.093 368.948 271.953 369.756 271.86 370.57C271.767 371.188 271.484 371.761 271.05 372.21L267.74 375.21C267.533 375.424 267.376 375.681 267.281 375.963C267.186 376.245 267.155 376.544 267.19 376.84L267.81 380.45C267.82 380.549 267.853 380.644 267.905 380.729C267.957 380.814 268.027 380.886 268.11 380.94L272.06 383.22L272.11 378.7C272.328 378.572 272.587 378.533 272.834 378.588C273.081 378.644 273.297 378.791 273.44 379C273.635 379.28 273.852 379.545 274.09 379.79C274.285 379.998 274.423 380.253 274.489 380.53C274.556 380.807 274.549 381.096 274.47 381.37L272.78 386C272.711 386.179 272.706 386.377 272.766 386.559C272.826 386.741 272.948 386.897 273.11 387L277.06 389.28L278.13 386.34L279.65 382.56C279.975 382.04 280.481 381.659 281.07 381.49C281.592 381.361 282.103 381.194 282.6 380.99C282.711 380.936 282.832 380.906 282.956 380.904C283.079 380.902 283.202 380.927 283.315 380.978C283.427 381.028 283.527 381.103 283.608 381.197C283.688 381.291 283.747 381.401 283.78 381.52L284.63 384.32C284.651 384.411 284.69 384.497 284.745 384.573C284.8 384.649 284.87 384.712 284.95 384.76L288.95 387.04L288.25 382.67L289.46 381.72C289.687 381.522 289.868 381.278 289.99 381.003C290.113 380.729 290.174 380.431 290.17 380.13L289.95 376.58C289.949 375.959 290.153 375.354 290.53 374.86C291.14 374.13 292.07 373.74 292.61 372.94C292.92 372.49 293.25 371.77 293.79 371.79L296.19 371.91C296.475 371.912 296.755 371.834 296.999 371.685C297.243 371.537 297.44 371.324 297.57 371.07L299.82 366C299.916 365.763 299.918 365.499 299.825 365.26C299.732 365.022 299.551 364.829 299.32 364.72L297.38 363.9C297.135 363.784 296.936 363.589 296.816 363.345C296.696 363.102 296.662 362.825 296.72 362.56C296.899 361.761 297.036 360.953 297.13 360.14C297.223 359.522 297.506 358.949 297.94 358.5L301.25 355.5C301.55 355.192 301.743 354.796 301.8 354.37L304.8 352.03L300.82 349.75ZM285.82 373.1C281.82 376.28 277.9 375.41 277.17 371.16C276.44 366.91 279.75 361.5 283.8 358.32C287.85 355.14 291.1 355.38 291.8 359.63C292.5 363.88 289.84 369.91 285.79 373.1H285.82Z" fill="#F2C344"/>
<path opacity="0.1" d="M300.82 349.75C300.713 349.695 300.592 349.671 300.471 349.682C300.351 349.692 300.236 349.737 300.14 349.81L296.83 352C296.611 352.128 296.353 352.167 296.106 352.112C295.859 352.056 295.643 351.909 295.5 351.7C295.306 351.422 295.092 351.158 294.86 350.91C294.665 350.704 294.526 350.452 294.458 350.176C294.39 349.901 294.394 349.613 294.47 349.34L299.73 346.01L295.8 343.74C295.721 343.687 295.633 343.65 295.54 343.63L293.05 343.07C292.776 343.022 292.493 343.06 292.241 343.178C291.989 343.296 291.779 343.489 291.64 343.73L289.29 348.19C288.97 348.71 288.467 349.092 287.88 349.26H287.73C287.832 348.934 287.902 348.599 287.94 348.26L284 346C283.884 345.936 283.75 345.912 283.618 345.93C283.487 345.948 283.365 346.007 283.27 346.1L279.53 349C279.307 349.2 279.128 349.446 279.006 349.72C278.884 349.993 278.82 350.29 278.82 350.59L279.04 354.14C279.047 354.762 278.842 355.369 278.46 355.86C277.844 356.597 277.267 357.364 276.73 358.16C276.553 358.397 276.324 358.589 276.06 358.723C275.796 358.856 275.505 358.927 275.21 358.93L272.81 358.81C272.523 358.808 272.242 358.887 271.998 359.037C271.754 359.188 271.557 359.403 271.43 359.66L269.17 364.72C269.085 364.936 269.077 365.174 269.148 365.395C269.219 365.616 269.365 365.805 269.56 365.93L272.22 367.46C272.305 367.68 272.325 367.919 272.28 368.15C272.093 368.948 271.953 369.756 271.86 370.57C271.767 371.188 271.484 371.761 271.05 372.21L267.74 375.21C267.533 375.424 267.376 375.681 267.281 375.963C267.186 376.245 267.155 376.544 267.19 376.84L267.81 380.45C267.82 380.549 267.853 380.644 267.905 380.729C267.957 380.814 268.027 380.886 268.11 380.94L272.06 383.22L272.11 378.7C272.328 378.572 272.587 378.533 272.834 378.588C273.081 378.644 273.297 378.791 273.44 379C273.635 379.28 273.852 379.545 274.09 379.79C274.285 379.998 274.423 380.253 274.489 380.53C274.556 380.807 274.549 381.096 274.47 381.37L272.78 386C272.711 386.179 272.706 386.377 272.766 386.559C272.826 386.741 272.948 386.897 273.11 387L277.06 389.28L278.13 386.34L279.65 382.56C279.975 382.04 280.481 381.659 281.07 381.49C281.592 381.361 282.103 381.194 282.6 380.99C282.711 380.936 282.832 380.906 282.956 380.904C283.079 380.902 283.202 380.927 283.315 380.978C283.427 381.028 283.527 381.103 283.608 381.197C283.688 381.291 283.747 381.401 283.78 381.52L284.63 384.32C284.651 384.411 284.69 384.497 284.745 384.573C284.8 384.649 284.87 384.712 284.95 384.76L288.95 387.04L288.25 382.67L289.46 381.72C289.687 381.522 289.868 381.278 289.99 381.003C290.113 380.729 290.174 380.431 290.17 380.13L289.95 376.58C289.949 375.959 290.153 375.354 290.53 374.86C291.14 374.13 292.07 373.74 292.61 372.94C292.92 372.49 293.25 371.77 293.79 371.79L296.19 371.91C296.475 371.912 296.755 371.834 296.999 371.685C297.243 371.537 297.44 371.324 297.57 371.07L299.82 366C299.916 365.763 299.918 365.499 299.825 365.26C299.732 365.022 299.551 364.829 299.32 364.72L297.38 363.9C297.135 363.784 296.936 363.589 296.816 363.345C296.696 363.102 296.662 362.825 296.72 362.56C296.899 361.761 297.036 360.953 297.13 360.14C297.223 359.522 297.506 358.949 297.94 358.5L301.25 355.5C301.55 355.192 301.743 354.796 301.8 354.37L304.8 352.03L300.82 349.75ZM285.82 373.1C281.82 376.28 277.9 375.41 277.17 371.16C276.44 366.91 279.75 361.5 283.8 358.32C287.85 355.14 291.1 355.38 291.8 359.63C292.5 363.88 289.84 369.91 285.79 373.1H285.82Z" fill="black"/>
<path d="M271 372.29L267.72 375.29C267.469 375.551 267.296 375.876 267.22 376.23L272.08 379.04V378.78C272.298 378.652 272.557 378.613 272.804 378.668C273.051 378.724 273.267 378.871 273.41 379.08L278.09 376.37L271 372.29Z" fill="#F2C344"/>
<path d="M279.36 363.18C279.727 362.604 280.128 362.049 280.56 361.52L275.89 358.82C275.678 358.922 275.445 358.973 275.21 358.97L272.81 358.85C272.444 358.848 272.09 358.975 271.81 359.21L278.99 363.36L279.36 363.18Z" fill="#F2C344"/>
<path d="M304.75 352C304.64 351.95 304.519 351.931 304.399 351.945C304.279 351.959 304.165 352.006 304.07 352.08L300.76 354.26C300.542 354.385 300.286 354.423 300.041 354.367C299.797 354.312 299.582 354.166 299.44 353.96C299.242 353.682 299.025 353.418 298.79 353.17C298.594 352.963 298.455 352.708 298.387 352.431C298.318 352.155 298.323 351.865 298.4 351.59L298.72 350.75L300.14 349.81C300.236 349.737 300.351 349.692 300.471 349.682C300.592 349.671 300.712 349.695 300.82 349.75L304.75 352Z" fill="#F2C344"/>
<path d="M295 351.05C294.966 351.001 294.929 350.955 294.89 350.91C294.695 350.704 294.556 350.452 294.488 350.176C294.42 349.901 294.424 349.613 294.5 349.34L299.76 346.01L295.83 343.74C295.751 343.687 295.663 343.65 295.57 343.63L293.08 343.07C292.806 343.022 292.523 343.06 292.271 343.178C292.019 343.296 291.809 343.489 291.67 343.73L289.32 348.19C289.189 348.426 289.008 348.631 288.79 348.79L294.08 351.85L295 351.05Z" fill="#F2C344"/>
<path d="M278.92 350L283.78 352.81L287.78 349.15C287.854 348.854 287.907 348.553 287.94 348.25L284 346C283.884 345.936 283.75 345.912 283.618 345.93C283.487 345.948 283.365 346.007 283.27 346.1L279.53 349C279.234 349.267 279.022 349.614 278.92 350Z" fill="#F2C344"/>
<g opacity="0.4">
<path d="M271 372.29L267.72 375.29C267.469 375.551 267.296 375.876 267.22 376.23L272.08 379.04V378.78C272.298 378.652 272.557 378.613 272.804 378.668C273.051 378.724 273.267 378.871 273.41 379.08L278.09 376.37L271 372.29Z" fill="white"/>
<path d="M279.36 363.18C279.727 362.604 280.128 362.049 280.56 361.52L275.89 358.82C275.678 358.922 275.445 358.973 275.21 358.97L272.81 358.85C272.444 358.848 272.09 358.975 271.81 359.21L278.99 363.36L279.36 363.18Z" fill="white"/>
<path d="M304.75 352C304.64 351.95 304.519 351.931 304.399 351.945C304.279 351.959 304.165 352.006 304.07 352.08L300.76 354.26C300.542 354.385 300.286 354.423 300.041 354.367C299.797 354.312 299.582 354.166 299.44 353.96C299.242 353.682 299.025 353.418 298.79 353.17C298.594 352.963 298.455 352.708 298.387 352.431C298.318 352.155 298.323 351.865 298.4 351.59L298.72 350.75L300.14 349.81C300.236 349.737 300.351 349.692 300.471 349.682C300.592 349.671 300.712 349.695 300.82 349.75L304.75 352Z" fill="white"/>
<path d="M295 351.05C294.966 351.001 294.929 350.955 294.89 350.91C294.695 350.704 294.556 350.452 294.488 350.176C294.42 349.901 294.424 349.613 294.5 349.34L299.76 346.01L295.83 343.74C295.751 343.687 295.663 343.65 295.57 343.63L293.08 343.07C292.806 343.022 292.523 343.06 292.271 343.178C292.019 343.296 291.809 343.489 291.67 343.73L289.32 348.19C289.189 348.426 289.008 348.631 288.79 348.79L294.08 351.85L295 351.05Z" fill="white"/>
<path d="M278.92 350L283.78 352.81L287.78 349.15C287.854 348.854 287.907 348.553 287.94 348.25L284 346C283.884 345.936 283.75 345.912 283.618 345.93C283.487 345.948 283.365 346.007 283.27 346.1L279.53 349C279.234 349.267 279.022 349.614 278.92 350Z" fill="white"/>
</g>
<path d="M305.68 356.13L305.06 352.52C305.057 352.406 305.021 352.295 304.957 352.2C304.892 352.105 304.802 352.031 304.697 351.986C304.592 351.941 304.476 351.926 304.363 351.945C304.25 351.963 304.145 352.014 304.06 352.09L300.75 354.27C300.532 354.395 300.276 354.433 300.032 354.377C299.787 354.322 299.572 354.176 299.43 353.97C299.232 353.692 299.015 353.428 298.78 353.18C298.586 352.973 298.449 352.72 298.381 352.446C298.313 352.171 298.316 351.883 298.39 351.61L300.08 347.04C300.127 346.926 300.147 346.802 300.14 346.679C300.133 346.556 300.099 346.436 300.039 346.327C299.98 346.219 299.897 346.125 299.797 346.053C299.697 345.981 299.581 345.932 299.46 345.91L296.97 345.35C296.695 345.299 296.412 345.336 296.159 345.454C295.907 345.573 295.697 345.767 295.56 346.01L293.22 350.47C292.891 350.986 292.387 351.366 291.8 351.54C291.275 351.672 290.76 351.843 290.26 352.05C290.149 352.103 290.028 352.13 289.905 352.131C289.782 352.131 289.66 352.105 289.549 352.053C289.437 352.002 289.338 351.926 289.259 351.833C289.18 351.739 289.122 351.629 289.09 351.51L288.24 348.71C288.22 348.598 288.17 348.494 288.095 348.408C288.02 348.323 287.924 348.26 287.815 348.226C287.707 348.192 287.591 348.188 287.481 348.215C287.371 348.243 287.27 348.3 287.19 348.38L283.45 351.31C283.227 351.51 283.048 351.756 282.926 352.03C282.804 352.303 282.74 352.6 282.74 352.9L282.97 356.45C282.968 357.071 282.764 357.675 282.39 358.17C281.768 358.904 281.187 359.672 280.65 360.47C280.469 360.702 280.239 360.892 279.976 361.025C279.713 361.158 279.424 361.231 279.13 361.24L276.73 361.12C276.443 361.118 276.162 361.197 275.918 361.347C275.674 361.498 275.477 361.713 275.35 361.97L273.1 367C273.005 367.238 273.004 367.504 273.099 367.742C273.194 367.98 273.377 368.173 273.61 368.28L275.55 369.11C275.793 369.225 275.991 369.419 276.11 369.661C276.23 369.902 276.265 370.176 276.21 370.44C276.031 371.239 275.894 372.047 275.8 372.86C275.703 373.476 275.42 374.048 274.99 374.5L271.68 377.5C271.471 377.713 271.312 377.97 271.215 378.252C271.119 378.534 271.086 378.834 271.12 379.13L271.74 382.74C271.743 382.854 271.779 382.965 271.843 383.06C271.908 383.155 271.998 383.229 272.103 383.274C272.208 383.319 272.324 383.334 272.437 383.315C272.549 383.297 272.655 383.246 272.74 383.17L276.05 380.99C276.268 380.865 276.524 380.827 276.768 380.883C277.013 380.938 277.228 381.084 277.37 381.29C277.565 381.57 277.782 381.835 278.02 382.08C278.214 382.288 278.352 382.543 278.42 382.819C278.489 383.096 278.485 383.385 278.41 383.66L276.72 388.22C276.673 388.334 276.653 388.458 276.66 388.581C276.667 388.704 276.701 388.824 276.761 388.933C276.82 389.041 276.903 389.135 277.003 389.207C277.103 389.279 277.218 389.328 277.34 389.35L279.83 389.91C280.104 389.961 280.388 389.924 280.641 389.806C280.893 389.687 281.103 389.493 281.24 389.25L283.58 384.79C283.909 384.274 284.413 383.894 285 383.72C285.524 383.587 286.038 383.42 286.54 383.22C286.65 383.167 286.771 383.139 286.893 383.138C287.016 383.137 287.137 383.163 287.248 383.213C287.36 383.264 287.459 383.338 287.538 383.43C287.618 383.523 287.677 383.632 287.71 383.75L288.56 386.55C288.58 386.662 288.63 386.766 288.705 386.851C288.779 386.937 288.876 387 288.985 387.034C289.093 387.068 289.209 387.072 289.319 387.045C289.429 387.017 289.53 386.96 289.61 386.88L293.35 383.95C293.573 383.75 293.752 383.504 293.874 383.23C293.996 382.957 294.06 382.66 294.06 382.36L293.83 378.81C293.832 378.189 294.036 377.585 294.41 377.09C295.032 376.356 295.613 375.588 296.15 374.79C296.331 374.558 296.561 374.368 296.824 374.235C297.087 374.102 297.376 374.028 297.67 374.02L300.07 374.14C300.357 374.142 300.638 374.063 300.882 373.913C301.126 373.762 301.323 373.547 301.45 373.29L303.71 368.23C303.805 367.992 303.806 367.726 303.711 367.488C303.616 367.25 303.433 367.057 303.2 366.95L301.26 366.12C301.017 366.005 300.819 365.811 300.7 365.569C300.58 365.328 300.545 365.054 300.6 364.79C300.779 363.991 300.916 363.183 301.01 362.37C301.109 361.754 301.392 361.183 301.82 360.73L305.13 357.73C305.333 357.52 305.487 357.267 305.583 356.991C305.678 356.715 305.711 356.421 305.68 356.13ZM289.73 375.36C285.68 378.55 281.8 377.68 281.07 373.43C280.34 369.18 283.07 363.15 287.07 359.97C291.07 356.79 295 357.65 295.73 361.9C296.46 366.15 293.77 372.18 289.73 375.36Z" fill="#F2C344"/>
<path d="M268.67 343.13L264.8 340.9C264.705 340.853 264.601 340.829 264.495 340.829C264.389 340.829 264.285 340.853 264.19 340.9L257.19 344.05C257.081 344.105 256.96 344.134 256.838 344.136C256.716 344.138 256.595 344.113 256.483 344.062C256.372 344.011 256.274 343.936 256.195 343.842C256.117 343.749 256.06 343.638 256.03 343.52C255.654 342.304 255.13 341.138 254.47 340.05C254.328 339.792 254.244 339.506 254.225 339.212C254.206 338.918 254.252 338.624 254.36 338.35L259 329C259.114 328.761 259.134 328.487 259.057 328.233C258.979 327.98 258.809 327.764 258.58 327.63L253.52 324.71C253.289 324.582 253.018 324.545 252.761 324.606C252.504 324.667 252.279 324.822 252.13 325.04L246.32 333.78C246.141 334.014 245.911 334.203 245.648 334.333C245.384 334.463 245.094 334.53 244.8 334.53C244.132 334.516 243.463 334.549 242.8 334.63V328.2L238.92 326C238.817 325.954 238.704 325.935 238.592 325.945C238.48 325.956 238.372 325.995 238.28 326.06L230.42 330.59C230.168 330.753 229.954 330.969 229.794 331.223C229.633 331.477 229.53 331.762 229.49 332.06L228.7 340.8C228.604 341.419 228.318 341.992 227.88 342.44C226.324 343.879 224.867 345.423 223.52 347.06C223.328 347.27 223.081 347.423 222.808 347.501C222.534 347.578 222.244 347.578 221.97 347.5L216.97 345.73C216.708 345.651 216.427 345.659 216.17 345.755C215.914 345.851 215.696 346.028 215.55 346.26L209.77 356.26C209.643 356.502 209.599 356.78 209.646 357.049C209.694 357.319 209.828 357.565 210.03 357.75L214.03 361.23C214.235 361.427 214.381 361.678 214.452 361.953C214.522 362.229 214.515 362.519 214.43 362.79C213.685 364.776 213.077 366.811 212.61 368.88C212.448 369.483 212.097 370.019 211.61 370.41L204.43 375.46C204.196 375.646 204.003 375.879 203.865 376.144C203.727 376.41 203.647 376.701 203.63 377V386.08C203.621 386.193 203.643 386.306 203.692 386.408C203.741 386.51 203.816 386.597 203.91 386.66L207.78 388.9L213.53 386.17C213.75 386.64 213.99 387.09 214.24 387.51C214.388 387.766 214.475 388.052 214.494 388.347C214.513 388.642 214.464 388.937 214.35 389.21L209.69 398.61C209.575 398.848 209.553 399.121 209.629 399.375C209.705 399.628 209.873 399.844 210.1 399.98L215.16 402.9C215.391 403.028 215.662 403.065 215.919 403.004C216.176 402.943 216.401 402.788 216.55 402.57L222.36 393.83C222.54 393.596 222.772 393.406 223.037 393.276C223.303 393.146 223.594 393.079 223.89 393.08C225.161 393.103 226.43 392.972 227.67 392.69C227.788 392.659 227.912 392.654 228.032 392.676C228.153 392.698 228.267 392.745 228.367 392.816C228.467 392.886 228.55 392.978 228.611 393.084C228.672 393.19 228.709 393.308 228.72 393.43L229.49 401.07C229.491 401.177 229.519 401.281 229.572 401.374C229.624 401.466 229.699 401.544 229.79 401.6L233.65 403.83L238.29 397.02C238.541 396.854 238.754 396.638 238.916 396.385C239.078 396.131 239.185 395.847 239.23 395.55L240.02 386.8C240.062 386.514 240.176 386.242 240.351 386.012C240.525 385.781 240.756 385.598 241.02 385.48C243.327 384.485 245.407 383.028 247.13 381.2C247.327 380.994 247.576 380.846 247.851 380.772C248.126 380.698 248.416 380.701 248.69 380.78L251.79 381.87C252.049 381.953 252.329 381.947 252.585 381.853C252.84 381.759 253.057 381.582 253.2 381.35L258.98 371.35C259.11 371.109 259.156 370.832 259.111 370.562C259.065 370.292 258.931 370.045 258.73 369.86L256.07 367.57C255.866 367.37 255.719 367.119 255.643 366.843C255.568 366.567 255.567 366.276 255.64 366C256.213 363.628 256.455 361.188 256.36 358.75C256.362 358.452 256.43 358.158 256.56 357.89C256.689 357.622 256.877 357.386 257.11 357.2L264.29 352.15C264.526 351.963 264.719 351.728 264.857 351.461C264.995 351.194 265.074 350.9 265.09 350.6L268.52 346.49L268.67 343.13ZM234.35 379.13C227.02 383.36 222.46 380.36 222.46 371.89C222.46 363.42 228.52 353.05 235.85 348.82C243.18 344.59 247.63 347.67 247.63 356.13C247.63 364.59 241.68 374.87 234.35 379.1V379.13Z" fill="#F2C344"/>
<path opacity="0.1" d="M268.67 343.13L264.8 340.9C264.705 340.853 264.601 340.829 264.495 340.829C264.389 340.829 264.285 340.853 264.19 340.9L257.19 344.05C257.081 344.105 256.96 344.134 256.838 344.136C256.716 344.138 256.595 344.113 256.483 344.062C256.372 344.011 256.274 343.936 256.195 343.842C256.117 343.749 256.06 343.638 256.03 343.52C255.654 342.304 255.13 341.138 254.47 340.05C254.328 339.792 254.244 339.506 254.225 339.212C254.206 338.918 254.252 338.624 254.36 338.35L259 329C259.114 328.761 259.134 328.487 259.057 328.233C258.979 327.98 258.809 327.764 258.58 327.63L253.52 324.71C253.289 324.582 253.018 324.545 252.761 324.606C252.504 324.667 252.279 324.822 252.13 325.04L246.32 333.78C246.141 334.014 245.911 334.203 245.648 334.333C245.384 334.463 245.094 334.53 244.8 334.53C244.132 334.516 243.463 334.549 242.8 334.63V328.2L238.92 326C238.817 325.954 238.704 325.935 238.592 325.945C238.48 325.956 238.372 325.995 238.28 326.06L230.42 330.59C230.168 330.753 229.954 330.969 229.794 331.223C229.633 331.477 229.53 331.762 229.49 332.06L228.7 340.8C228.604 341.419 228.318 341.992 227.88 342.44C226.324 343.879 224.867 345.423 223.52 347.06C223.328 347.27 223.081 347.423 222.808 347.501C222.534 347.578 222.244 347.578 221.97 347.5L216.97 345.73C216.708 345.651 216.427 345.659 216.17 345.755C215.914 345.851 215.696 346.028 215.55 346.26L209.77 356.26C209.643 356.502 209.599 356.78 209.646 357.049C209.694 357.319 209.828 357.565 210.03 357.75L214.03 361.23C214.235 361.427 214.381 361.678 214.452 361.953C214.522 362.229 214.515 362.519 214.43 362.79C213.685 364.776 213.077 366.811 212.61 368.88C212.448 369.483 212.097 370.019 211.61 370.41L204.43 375.46C204.196 375.646 204.003 375.879 203.865 376.144C203.727 376.41 203.647 376.701 203.63 377V386.08C203.621 386.193 203.643 386.306 203.692 386.408C203.741 386.51 203.816 386.597 203.91 386.66L207.78 388.9L213.53 386.17C213.75 386.64 213.99 387.09 214.24 387.51C214.388 387.766 214.475 388.052 214.494 388.347C214.513 388.642 214.464 388.937 214.35 389.21L209.69 398.61C209.575 398.848 209.553 399.121 209.629 399.375C209.705 399.628 209.873 399.844 210.1 399.98L215.16 402.9C215.391 403.028 215.662 403.065 215.919 403.004C216.176 402.943 216.401 402.788 216.55 402.57L222.36 393.83C222.54 393.596 222.772 393.406 223.037 393.276C223.303 393.146 223.594 393.079 223.89 393.08C225.161 393.103 226.43 392.972 227.67 392.69C227.788 392.659 227.912 392.654 228.032 392.676C228.153 392.698 228.267 392.745 228.367 392.816C228.467 392.886 228.55 392.978 228.611 393.084C228.672 393.19 228.709 393.308 228.72 393.43L229.49 401.07C229.491 401.177 229.519 401.281 229.572 401.374C229.624 401.466 229.699 401.544 229.79 401.6L233.65 403.83L238.29 397.02C238.541 396.854 238.754 396.638 238.916 396.385C239.078 396.131 239.185 395.847 239.23 395.55L240.02 386.8C240.062 386.514 240.176 386.242 240.351 386.012C240.525 385.781 240.756 385.598 241.02 385.48C243.327 384.485 245.407 383.028 247.13 381.2C247.327 380.994 247.576 380.846 247.851 380.772C248.126 380.698 248.416 380.701 248.69 380.78L251.79 381.87C252.049 381.953 252.329 381.947 252.585 381.853C252.84 381.759 253.057 381.582 253.2 381.35L258.98 371.35C259.11 371.109 259.156 370.832 259.111 370.562C259.065 370.292 258.931 370.045 258.73 369.86L256.07 367.57C255.866 367.37 255.719 367.119 255.643 366.843C255.568 366.567 255.567 366.276 255.64 366C256.213 363.628 256.455 361.188 256.36 358.75C256.362 358.452 256.43 358.158 256.56 357.89C256.689 357.622 256.877 357.386 257.11 357.2L264.29 352.15C264.526 351.963 264.719 351.728 264.857 351.461C264.995 351.194 265.074 350.9 265.09 350.6L268.52 346.49L268.67 343.13ZM234.35 379.13C227.02 383.36 222.46 380.36 222.46 371.89C222.46 363.42 228.52 353.05 235.85 348.82C243.18 344.59 247.63 347.67 247.63 356.13C247.63 364.59 241.68 374.87 234.35 379.1V379.13Z" fill="black"/>
<path d="M257.48 332.07L259 329C259.114 328.761 259.134 328.487 259.056 328.233C258.979 327.98 258.809 327.764 258.58 327.63L253.52 324.71C253.289 324.582 253.018 324.545 252.761 324.606C252.504 324.667 252.279 324.822 252.13 325.04L246.32 333.78C246.215 333.928 246.083 334.053 245.93 334.15L252.44 337.9L257.48 332.07Z" fill="#F2C344"/>
<path d="M212.16 369.79C212.005 370.014 211.816 370.213 211.6 370.38L204.42 375.43C204.228 375.576 204.068 375.76 203.95 375.97L208.33 378.5L217.86 373.08L212.16 369.79Z" fill="#F2C344"/>
<path d="M216.52 345.64C216.318 345.646 216.121 345.703 215.947 345.804C215.772 345.905 215.626 346.048 215.52 346.22L209.74 356.22C209.621 356.444 209.576 356.699 209.61 356.95L214.61 359.82L222.52 349.12L216.52 345.64Z" fill="#F2C344"/>
<path d="M229.64 331.5L235.8 335.06L242.8 331.06V328.2L238.92 326C238.817 325.954 238.704 325.935 238.592 325.945C238.48 325.956 238.372 325.995 238.28 326.06L230.42 330.59C230.078 330.812 229.807 331.128 229.64 331.5Z" fill="#F2C344"/>
<path d="M268.67 343.13C268.576 343.076 268.469 343.047 268.36 343.047C268.251 343.047 268.144 343.076 268.05 343.13L261.05 346.28C260.939 346.333 260.818 346.36 260.695 346.361C260.572 346.361 260.45 346.335 260.339 346.283C260.227 346.232 260.128 346.157 260.049 346.063C259.97 345.969 259.912 345.859 259.88 345.74C259.622 344.895 259.287 344.075 258.88 343.29L264.18 340.9C264.275 340.853 264.379 340.829 264.485 340.829C264.591 340.829 264.695 340.853 264.79 340.9L268.67 343.13Z" fill="#F2C344"/>
<g opacity="0.4">
<path d="M257.48 332.07L259 329C259.114 328.761 259.134 328.487 259.056 328.233C258.979 327.98 258.809 327.764 258.58 327.63L253.52 324.71C253.289 324.582 253.018 324.545 252.761 324.606C252.504 324.667 252.279 324.822 252.13 325.04L246.32 333.78C246.215 333.928 246.083 334.053 245.93 334.15L252.44 337.9L257.48 332.07Z" fill="white"/>
<path d="M212.16 369.79C212.005 370.014 211.816 370.213 211.6 370.38L204.42 375.43C204.228 375.576 204.068 375.76 203.95 375.97L208.33 378.5L217.86 373.08L212.16 369.79Z" fill="white"/>
<path d="M216.52 345.64C216.318 345.646 216.121 345.703 215.947 345.804C215.772 345.905 215.626 346.048 215.52 346.22L209.74 356.22C209.621 356.444 209.576 356.699 209.61 356.95L214.61 359.82L222.52 349.12L216.52 345.64Z" fill="white"/>
<path d="M229.64 331.5L235.8 335.06L242.8 331.06V328.2L238.92 326C238.817 325.954 238.704 325.935 238.592 325.945C238.48 325.956 238.372 325.995 238.28 326.06L230.42 330.59C230.078 330.812 229.807 331.128 229.64 331.5Z" fill="white"/>
<path d="M268.67 343.13C268.576 343.076 268.469 343.047 268.36 343.047C268.251 343.047 268.144 343.076 268.05 343.13L261.05 346.28C260.939 346.333 260.818 346.36 260.695 346.361C260.572 346.361 260.45 346.335 260.339 346.283C260.227 346.232 260.128 346.157 260.049 346.063C259.97 345.969 259.912 345.859 259.88 345.74C259.622 344.895 259.287 344.075 258.88 343.29L264.18 340.9C264.275 340.853 264.379 340.829 264.485 340.829C264.591 340.829 264.695 340.853 264.79 340.9L268.67 343.13Z" fill="white"/>
</g>
<path d="M269 352.79V343.72C269.016 343.609 268.999 343.495 268.952 343.393C268.905 343.29 268.83 343.203 268.735 343.143C268.641 343.082 268.531 343.049 268.418 343.048C268.305 343.048 268.195 343.08 268.1 343.14L261.1 346.29C260.989 346.344 260.868 346.373 260.744 346.375C260.621 346.376 260.499 346.35 260.386 346.299C260.274 346.247 260.175 346.171 260.096 346.076C260.017 345.981 259.96 345.87 259.93 345.75C259.556 344.536 259.032 343.374 258.37 342.29C258.229 342.031 258.147 341.745 258.13 341.451C258.113 341.157 258.161 340.863 258.27 340.59L262.93 331.19C263.045 330.952 263.067 330.679 262.991 330.425C262.915 330.172 262.747 329.956 262.52 329.82L257.46 326.9C257.228 326.769 256.955 326.73 256.695 326.791C256.436 326.852 256.209 327.009 256.06 327.23L250.21 336C250.028 336.231 249.797 336.418 249.535 336.549C249.272 336.681 248.984 336.753 248.69 336.76C247.419 336.734 246.15 336.861 244.91 337.14C244.795 337.165 244.676 337.164 244.561 337.139C244.446 337.114 244.338 337.065 244.243 336.995C244.149 336.925 244.07 336.836 244.013 336.734C243.955 336.631 243.92 336.517 243.91 336.4L243.14 328.77C243.147 328.658 243.121 328.546 243.066 328.449C243.011 328.351 242.929 328.271 242.829 328.22C242.73 328.168 242.617 328.146 242.506 328.157C242.394 328.167 242.288 328.21 242.2 328.28L234.34 332.82C234.088 332.985 233.875 333.201 233.713 333.454C233.551 333.708 233.444 333.992 233.4 334.29L232.61 343.03C232.517 343.648 232.234 344.221 231.8 344.67C230.24 346.109 228.78 347.653 227.43 349.29C227.239 349.499 226.994 349.65 226.722 349.726C226.449 349.802 226.161 349.8 225.89 349.72L220.84 347.96C220.578 347.879 220.297 347.887 220.04 347.983C219.783 348.079 219.565 348.257 219.42 348.49L213.65 358.49C213.521 358.729 213.475 359.005 213.52 359.273C213.566 359.541 213.699 359.786 213.9 359.97L217.95 363.46C218.155 363.657 218.301 363.908 218.37 364.184C218.439 364.46 218.429 364.75 218.34 365.02C217.599 367.008 216.991 369.042 216.52 371.11C216.358 371.711 216.007 372.243 215.52 372.63L208.34 377.69C208.104 377.874 207.91 378.107 207.772 378.373C207.634 378.638 207.555 378.931 207.54 379.23V388.31C207.526 388.42 207.543 388.532 207.59 388.632C207.636 388.733 207.71 388.819 207.803 388.879C207.896 388.94 208.004 388.973 208.115 388.975C208.226 388.977 208.335 388.947 208.43 388.89L215.43 385.73C215.541 385.677 215.662 385.65 215.785 385.649C215.908 385.649 216.03 385.675 216.141 385.727C216.253 385.778 216.352 385.853 216.431 385.947C216.51 386.041 216.568 386.151 216.6 386.27C216.978 387.485 217.502 388.651 218.16 389.74C218.306 389.997 218.391 390.283 218.409 390.578C218.426 390.873 218.375 391.168 218.26 391.44L213.6 400.84C213.486 401.078 213.467 401.35 213.544 401.602C213.622 401.854 213.792 402.067 214.02 402.2L219 405.1C219.231 405.228 219.502 405.265 219.759 405.204C220.016 405.143 220.241 404.988 220.39 404.77L226.2 396.03C226.379 395.796 226.609 395.607 226.872 395.477C227.136 395.347 227.426 395.28 227.72 395.28C228.991 395.303 230.26 395.172 231.5 394.89C231.615 394.865 231.734 394.866 231.849 394.891C231.964 394.916 232.072 394.965 232.167 395.035C232.261 395.104 232.34 395.194 232.397 395.296C232.455 395.399 232.49 395.513 232.5 395.63L233.27 403.27C233.268 403.381 233.297 403.491 233.354 403.586C233.411 403.682 233.494 403.759 233.594 403.809C233.693 403.859 233.805 403.88 233.915 403.87C234.026 403.86 234.132 403.818 234.22 403.75L242.08 399.21C242.33 399.047 242.543 398.833 242.703 398.581C242.864 398.329 242.968 398.046 243.01 397.75L243.8 389C243.893 388.383 244.18 387.812 244.62 387.37C246.176 385.931 247.633 384.387 248.98 382.75C249.17 382.538 249.417 382.384 249.691 382.306C249.966 382.228 250.256 382.229 250.53 382.31L255.53 384.07C255.791 384.154 256.072 384.148 256.329 384.054C256.587 383.96 256.805 383.782 256.95 383.55L262.73 373.55C262.859 373.308 262.903 373.03 262.856 372.76C262.809 372.49 262.673 372.244 262.47 372.06L258.42 368.57C258.214 368.375 258.069 368.126 258 367.852C257.93 367.577 257.941 367.289 258.03 367.02C258.774 365.03 259.382 362.992 259.85 360.92C260.012 360.319 260.363 359.787 260.85 359.4L268.03 354.35C268.297 354.178 268.523 353.949 268.691 353.679C268.859 353.41 268.964 353.106 269 352.79ZM238.27 381.33C230.93 385.56 224.99 382.13 224.99 373.66C224.99 365.19 230.93 354.9 238.27 350.66C245.61 346.42 251.54 349.86 251.54 358.32C251.54 366.78 245.55 377.09 238.22 381.33H238.27Z" fill="#F2C344"/>
<path d="M359.44 182.75H392.09V153.49C392.09 149.159 390.37 145.005 387.307 141.943C384.245 138.88 380.091 137.16 375.76 137.16C371.431 137.163 367.28 138.884 364.219 141.946C361.159 145.009 359.44 149.161 359.44 153.49V182.75Z" fill="#263238"/>
<path d="M369.71 174.81L346.34 175.71C345.53 175.01 340.9 169.49 340.9 169.49C340.9 169.49 328.2 167.86 328.13 168.32C328.06 168.78 340.62 182.23 341.86 183.58C342.214 184.037 342.67 184.405 343.19 184.656C343.71 184.908 344.282 185.036 344.86 185.03L366.25 186.37L369.71 174.81Z" fill="#FFA8A7"/>
<path d="M249.34 280.15L248.64 279.75C248.056 279.363 247.571 278.845 247.224 278.238C246.877 277.63 246.677 276.949 246.64 276.25V204.46C246.677 203.761 246.877 203.08 247.224 202.472C247.571 201.865 248.056 201.347 248.64 200.96L340.86 147.73C341.48 147.416 342.165 147.253 342.86 147.253C343.555 147.253 344.24 147.416 344.86 147.73L345.55 148.13C346.135 148.513 346.62 149.029 346.968 149.636C347.315 150.242 347.515 150.922 347.55 151.62V223.42C347.516 224.118 347.317 224.799 346.969 225.405C346.621 226.012 346.135 226.527 345.55 226.91L253.33 280.15C252.71 280.459 252.027 280.62 251.335 280.62C250.643 280.62 249.96 280.459 249.34 280.15Z" fill="#F2C344"/>
<path opacity="0.4" d="M347.59 151.3C347.45 150.25 346.59 149.87 345.59 150.45L253.37 203.7C252.772 204.068 252.279 204.585 251.94 205.2L247.22 202.47C247.561 201.854 248.053 201.334 248.65 200.96L340.86 147.73C341.48 147.416 342.165 147.253 342.86 147.253C343.555 147.253 344.24 147.416 344.86 147.73L345.55 148.13C346.099 148.479 346.566 148.944 346.918 149.491C347.27 150.038 347.499 150.656 347.59 151.3Z" fill="white"/>
<path opacity="0.1" d="M253 280.31C252.41 280.545 251.777 280.652 251.143 280.625C250.508 280.597 249.887 280.435 249.32 280.15L248.61 279.75C248.026 279.363 247.541 278.845 247.194 278.238C246.847 277.63 246.647 276.949 246.61 276.25V204.46C246.626 203.753 246.83 203.063 247.2 202.46L251.92 205.19C251.558 205.796 251.355 206.484 251.33 207.19V279C251.35 280.14 252.08 280.68 253 280.31Z" fill="black"/>
<path d="M260.67 207.65L267.61 203.65C268.11 203.36 268.52 203.59 268.52 204.18V212C268.503 212.318 268.411 212.626 268.251 212.901C268.091 213.176 267.868 213.409 267.6 213.58L260.68 217.49C260.17 217.78 259.76 217.49 259.76 216.95V209.27C259.769 208.946 259.857 208.63 260.015 208.348C260.174 208.066 260.399 207.826 260.67 207.65Z" fill="#FAFAFA"/>
<path d="M266.71 212.44C266.621 212.498 266.516 212.529 266.41 212.529C266.303 212.529 266.199 212.498 266.11 212.44L264 210.84C263.71 210.63 263.75 210.03 264.08 209.51C264.41 208.99 264.91 208.74 265.19 208.96L266.69 210.09L270.84 201.17C271.1 200.61 271.59 200.24 271.95 200.33C272.31 200.42 272.37 200.96 272.12 201.51L267.38 211.69C267.25 211.986 267.038 212.239 266.77 212.42L266.71 212.44Z" fill="#37474F"/>
<path d="M260.67 224.65L267.61 220.65C268.11 220.36 268.52 220.65 268.52 221.18V229C268.503 229.318 268.411 229.626 268.251 229.901C268.091 230.176 267.868 230.409 267.6 230.58L260.68 234.5C260.17 234.78 259.76 234.5 259.76 233.96V226.27C259.769 225.947 259.857 225.63 260.015 225.348C260.174 225.066 260.399 224.826 260.67 224.65Z" fill="#FAFAFA"/>
<path d="M266.71 229.43C266.621 229.488 266.516 229.519 266.41 229.519C266.303 229.519 266.199 229.488 266.11 229.43L264 227.84C263.71 227.62 263.75 227.02 264.08 226.5C264.41 225.98 264.91 225.73 265.19 225.95L266.69 227.08L270.84 218.16C271.1 217.6 271.59 217.23 271.95 217.33C272.31 217.43 272.37 217.95 272.12 218.51L267.38 228.69C267.25 228.983 267.038 229.233 266.77 229.41L266.71 229.43Z" fill="#37474F"/>
<path d="M260.67 241.64L267.61 237.64C268.11 237.34 268.52 237.58 268.52 238.16V246C268.502 246.316 268.409 246.623 268.249 246.896C268.089 247.169 267.867 247.4 267.6 247.57L260.68 251.49C260.17 251.78 259.76 251.54 259.76 250.95V243.26C259.769 242.936 259.857 242.62 260.015 242.338C260.174 242.056 260.399 241.816 260.67 241.64Z" fill="#FAFAFA"/>
<path d="M266.71 246.42C266.623 246.483 266.518 246.518 266.41 246.518C266.302 246.518 266.197 246.483 266.11 246.42L264 244.83C263.71 244.62 263.75 244.02 264.08 243.5C264.41 242.98 264.91 242.73 265.19 242.94L266.69 244.07L270.84 235.15C271.1 234.6 271.59 234.22 271.95 234.32C272.31 234.42 272.37 234.94 272.12 235.5L267.38 245.68C267.25 245.976 267.038 246.229 266.77 246.41L266.71 246.42Z" fill="#37474F"/>
<path d="M260.67 258.68L267.61 254.68C268.11 254.39 268.52 254.68 268.52 255.21V263C268.502 263.316 268.409 263.623 268.249 263.896C268.089 264.169 267.867 264.4 267.6 264.57L260.68 268.49C260.17 268.78 259.76 268.54 259.76 267.95V260.26C259.776 259.943 259.866 259.635 260.024 259.36C260.183 259.086 260.404 258.852 260.67 258.68Z" fill="#FAFAFA"/>
<path d="M266.71 263.46C266.623 263.523 266.518 263.558 266.41 263.558C266.302 263.558 266.197 263.523 266.11 263.46L264 261.87C263.71 261.65 263.75 261.06 264.08 260.53C264.41 260 264.91 259.77 265.19 259.98L266.69 261.11L270.84 252.19C271.1 251.64 271.59 251.26 271.95 251.36C272.31 251.46 272.37 251.98 272.12 252.54L267.38 262.72C267.25 263.013 267.038 263.263 266.77 263.44L266.71 263.46Z" fill="#37474F"/>
<path d="M277.1 200.34C277.1 201.28 277.92 201.57 278.93 200.99L305.3 185.76C305.798 185.474 306.223 185.075 306.541 184.596C306.859 184.117 307.06 183.571 307.13 183C307.13 182.06 306.31 181.76 305.3 182.35L278.93 197.57C278.431 197.858 278.005 198.258 277.688 198.739C277.37 199.22 277.169 199.768 277.1 200.34Z" fill="#455A64"/>
<path d="M277.1 206.06C277.1 207.01 277.92 207.3 278.93 206.72L335.33 174.2C335.83 173.913 336.255 173.513 336.573 173.032C336.891 172.551 337.092 172.002 337.16 171.43C337.16 170.49 336.34 170.2 335.33 170.78L278.93 203.3C278.432 203.586 278.007 203.985 277.689 204.464C277.371 204.943 277.17 205.489 277.1 206.06Z" fill="#F0F0F0"/>
<path d="M277.1 217C277.1 217.94 277.92 218.24 278.93 217.65L305.3 202.43C305.799 202.142 306.224 201.742 306.542 201.261C306.86 200.78 307.061 200.232 307.13 199.66C307.13 198.72 306.31 198.43 305.3 199.01L278.93 214.2C278.426 214.49 277.998 214.895 277.68 215.381C277.363 215.868 277.164 216.422 277.1 217Z" fill="#455A64"/>
<path d="M277.1 222.69C277.1 223.63 277.92 223.92 278.93 223.34L335.33 190.82C335.828 190.534 336.253 190.135 336.571 189.656C336.889 189.177 337.09 188.631 337.16 188.06C337.16 187.12 336.34 186.82 335.33 187.41L278.93 219.92C278.431 220.208 278.005 220.608 277.688 221.089C277.37 221.57 277.169 222.118 277.1 222.69Z" fill="#F0F0F0"/>
<path d="M277.1 234.64C277.1 235.64 277.92 235.88 278.93 235.29L305.3 220.07C305.8 219.783 306.225 219.383 306.543 218.902C306.861 218.421 307.062 217.872 307.13 217.3C307.13 216.36 306.31 216.07 305.3 216.65L278.93 231.88C278.432 232.166 278.007 232.565 277.689 233.044C277.371 233.523 277.17 234.069 277.1 234.64Z" fill="#455A64"/>
<path d="M277.1 240.37C277.1 241.31 277.92 241.6 278.93 241.02L335.33 208.5C335.828 208.214 336.253 207.815 336.571 207.336C336.889 206.857 337.09 206.311 337.16 205.74C337.16 204.8 336.34 204.5 335.33 205.09L278.93 237.61C278.432 237.896 278.007 238.295 277.689 238.774C277.371 239.253 277.17 239.799 277.1 240.37Z" fill="#F0F0F0"/>
<path d="M277.1 252.32C277.1 253.32 277.92 253.56 278.93 252.98L305.3 237.75C305.798 237.464 306.223 237.065 306.541 236.586C306.859 236.107 307.06 235.561 307.13 234.99C307.13 233.99 306.31 233.75 305.3 234.33L278.93 249.56C278.432 249.846 278.007 250.245 277.689 250.724C277.371 251.203 277.17 251.749 277.1 252.32Z" fill="#455A64"/>
<path d="M277.1 258.05C277.1 258.99 277.92 259.29 278.93 258.7L335.33 226.19C335.828 225.901 336.253 225.5 336.57 225.02C336.888 224.539 337.09 223.992 337.16 223.42C337.16 222.48 336.34 222.19 335.33 222.77L278.93 255.29C278.432 255.576 278.007 255.975 277.689 256.454C277.371 256.933 277.17 257.479 277.1 258.05Z" fill="#F0F0F0"/>
<path d="M359.14 333.58C357.273 335.581 355.217 337.396 353 339C352.648 339.226 352.354 339.531 352.14 339.89C351.85 340.5 351.39 342 354.14 342.97C355.541 343.454 357.029 343.631 358.504 343.49C359.979 343.348 361.407 342.891 362.69 342.15C364.96 340.72 365.07 337.76 367.21 336.07C368.8 334.82 370.79 334.5 372.07 332.87C372.97 331.73 372.73 330.21 372.27 328.34C371.76 326.29 371.52 324.74 370.85 324.9L370.96 325.84C370.11 327.19 365.73 327.59 363.78 326.66C362.355 329.046 360.807 331.356 359.14 333.58Z" fill="#263238"/>
<path d="M357.22 335.5C357.892 334.9 358.533 334.266 359.14 333.6C360.442 331.92 361.638 330.16 362.72 328.33C363.473 327.224 363.826 325.894 363.72 324.56C363.57 323.14 363.18 319.51 363.18 319.51L370.12 319.02L370.93 325.83C371.1 327.37 369.82 328.74 367.56 330.69C365.3 332.64 362.43 337.18 360.39 338.32C358.35 339.46 356.88 339.42 356.01 338.83C355.14 338.24 355 337.75 357.22 335.5Z" fill="#FFA8A7"/>
<path d="M390.33 334.2V333.2C389.92 334.43 388.01 339.7 385.12 342.34C382.82 344.44 379.68 346.86 378.88 349.2C378.08 351.54 383.25 352.45 385.4 352.07C388.268 351.594 390.899 350.188 392.89 348.07C394.13 346.55 394.89 344.75 395.8 343.55C396.71 342.35 398.72 341.02 399.2 339.64C399.343 338.348 399.2 337.04 398.78 335.81C398.44 334.52 398.07 333.1 397.63 333.22V334.02C396.59 334.835 395.301 335.269 393.98 335.25C392.92 335.23 390.33 335 390.33 334.2Z" fill="#263238"/>
<path d="M383 344.14C383.72 343.51 384.44 342.88 385.09 342.29C387.09 340.44 388.65 337.29 389.54 335.18C390.041 333.962 390.299 332.657 390.3 331.34V327.18H397.6V334V334.18C397.24 335.7 393.9 339.73 391.99 342.36C390.72 344.12 388.29 346.36 385.4 346.75C382.51 347.14 381.25 346.22 383 344.14Z" fill="#FFA8A7"/>
<path d="M396.18 220.8C401.84 233.15 395.98 276.68 395.98 276.68C396.15 278.68 398.44 282.63 399.29 291.45C400.29 301.88 397.71 328.06 397.71 328.06C396.597 328.706 395.343 329.071 394.057 329.123C392.771 329.175 391.492 328.913 390.33 328.36C390.33 328.36 383.38 288.92 382.07 278.56C380.93 269.51 378.74 248.24 378.74 248.24L372.17 278.57C372.951 281.509 373.38 284.53 373.45 287.57C373.35 293.7 370.5 320.57 370.5 320.57C370.5 320.57 367.96 322.05 363.18 321.35C363.18 321.35 358.57 286.08 358.71 277.86C358.78 273.46 360.71 226.62 360.71 226.62L396.18 220.8Z" fill="#F2C344"/>
<g opacity="0.15">
<path d="M378.74 248.24L376.9 238.14C376.9 238.14 369.13 236.53 365.61 233.21C368.045 236.063 371.228 238.179 374.8 239.32L376.86 248.16L373.13 274.16L378.74 248.24Z" fill="#263238"/>
</g>
<path d="M379.42 138.16L379.8 133.88C379.52 133.839 379.236 133.856 378.963 133.929C378.69 134.003 378.435 134.131 378.213 134.306C377.991 134.481 377.807 134.699 377.673 134.947C377.538 135.196 377.456 135.469 377.43 135.75C377.39 136.33 377.574 136.904 377.944 137.352C378.314 137.8 378.843 138.09 379.42 138.16Z" fill="#263238"/>
<path d="M379.65 138.59L383.11 136.05C382.955 135.81 382.752 135.605 382.514 135.447C382.276 135.289 382.008 135.181 381.727 135.131C381.446 135.08 381.157 135.088 380.879 135.153C380.601 135.218 380.339 135.34 380.11 135.51C379.655 135.868 379.354 136.386 379.269 136.959C379.183 137.531 379.32 138.115 379.65 138.59Z" fill="#263238"/>
<path d="M383.25 175.12C383.25 175.12 391.58 175.85 392.75 176.37C386.75 182.92 395.87 185.64 395.87 185.64L389.64 207.92C393.38 213.63 395.76 218.04 397.17 223.66C392.97 231.06 369.36 232.09 360.7 226.57C361.46 216.24 363.14 208.84 362.58 205.73C359.63 193.06 359.74 190.38 360.12 187.48C360.88 181.82 366.5 176.88 369.71 174.81H372.71L383.25 175.12Z" fill="#37474F"/>
<path d="M366.31 145.14C364.55 146.14 362.38 150.6 362.59 159.88C362.77 167.74 365.32 169.68 366.59 170.24C367.86 170.8 370.34 170.46 372.74 170.06V174.78C372.74 174.78 369.42 178.63 369.63 180.78C369.84 182.93 374.42 183.45 377.52 181.34C379.764 179.596 381.698 177.487 383.24 175.1L383.18 164.25C383.18 164.25 384.59 165.63 386.99 163.53C388.99 161.8 389.63 158.89 388.09 157.33C387.691 156.957 387.209 156.685 386.684 156.535C386.159 156.386 385.606 156.363 385.07 156.47C384.535 156.576 384.033 156.809 383.605 157.148C383.177 157.487 382.836 157.923 382.61 158.42C381.95 159.85 380.45 159.87 380.44 158.24C380.37 149.88 379.38 149.44 378.54 146.01C373.55 144.4 370 145 366.31 145.14Z" fill="#FFA8A7"/>
<path d="M371.37 157.9C371.363 158.031 371.383 158.163 371.427 158.286C371.471 158.41 371.539 158.524 371.628 158.622C371.716 158.719 371.822 158.798 371.941 158.855C372.06 158.911 372.189 158.943 372.32 158.95C372.451 158.957 372.583 158.937 372.706 158.893C372.83 158.849 372.944 158.781 373.042 158.692C373.139 158.604 373.218 158.498 373.275 158.379C373.331 158.26 373.363 158.131 373.37 158C373.377 157.869 373.357 157.737 373.313 157.614C373.269 157.49 373.201 157.376 373.112 157.278C373.024 157.181 372.918 157.102 372.799 157.045C372.68 156.989 372.551 156.957 372.42 156.95C372.289 156.943 372.157 156.963 372.033 157.007C371.91 157.051 371.796 157.119 371.698 157.208C371.601 157.296 371.522 157.402 371.465 157.521C371.409 157.64 371.377 157.769 371.37 157.9Z" fill="#263238"/>
<path d="M371.1 164.57L368.81 165.3C368.85 165.454 368.921 165.598 369.019 165.724C369.116 165.85 369.239 165.954 369.378 166.031C369.518 166.108 369.672 166.155 369.83 166.171C369.988 166.186 370.148 166.169 370.3 166.12C370.611 166.019 370.869 165.8 371.019 165.509C371.168 165.219 371.198 164.882 371.1 164.57Z" fill="#F28F8F"/>
<path d="M363.42 155.28L365.42 153.9C365.336 153.765 365.225 153.648 365.094 153.556C364.964 153.465 364.816 153.401 364.66 153.368C364.504 153.335 364.343 153.335 364.186 153.366C364.03 153.397 363.881 153.46 363.75 153.55C363.486 153.743 363.305 154.029 363.244 154.35C363.183 154.671 363.246 155.004 363.42 155.28Z" fill="#263238"/>
<path d="M374.25 155.6L372.25 154.21C372.334 154.076 372.444 153.96 372.575 153.869C372.705 153.779 372.852 153.716 373.007 153.684C373.162 153.653 373.322 153.653 373.478 153.684C373.633 153.716 373.78 153.78 373.91 153.87C374.176 154.061 374.359 154.347 374.422 154.668C374.485 154.989 374.423 155.322 374.25 155.6Z" fill="#263238"/>
<path d="M363.72 157.19C363.72 157.388 363.779 157.581 363.888 157.746C363.998 157.91 364.155 158.038 364.337 158.114C364.52 158.19 364.721 158.209 364.915 158.171C365.109 158.132 365.287 158.037 365.427 157.897C365.567 157.757 365.662 157.579 365.701 157.385C365.739 157.191 365.72 156.99 365.644 156.807C365.568 156.625 365.44 156.468 365.276 156.359C365.111 156.249 364.918 156.19 364.72 156.19C364.455 156.19 364.2 156.295 364.013 156.483C363.825 156.67 363.72 156.925 363.72 157.19Z" fill="#263238"/>
<path d="M368.39 156.62L368.23 162.57L365.1 161.6L368.39 156.62Z" fill="#F28F8F"/>
<path d="M372.75 170.06C375.28 169.73 380.48 168.24 381.29 166.18C380.964 167.221 380.325 168.136 379.46 168.8C377.91 170.14 372.75 171.64 372.75 171.64V170.06Z" fill="#F28F8F"/>
<path d="M371.52 138.25C369.716 138.25 367.93 138.606 366.264 139.297C364.598 139.989 363.085 141.002 361.811 142.28C360.538 143.557 359.529 145.073 358.842 146.741C358.155 148.409 357.805 150.196 357.81 152V153.77H364.52C366.029 153.771 367.488 153.225 368.625 152.231C369.761 151.238 370.499 149.866 370.7 148.37L370.95 153.77C372.188 153.761 373.379 153.292 374.291 152.455C375.204 151.618 375.774 150.473 375.89 149.24L375.97 148.36C376.088 149.833 376.757 151.208 377.843 152.21C378.928 153.213 380.352 153.77 381.83 153.77H382.43L383.11 144.09L371.52 138.25Z" fill="#263238"/>
<path d="M387.29 180C385.43 182.76 374.82 206 374.82 206C374.82 206 358.82 204.92 352.06 204.2C349.93 203.97 350.4 201.69 349.55 199.43C348.7 197.17 347.61 197.61 347.61 197.61V200.61C347.68 202.61 344.33 203.73 342.89 204.29C340.53 205.21 337.94 205.79 335.5 206.55C334.643 206.712 333.875 207.182 333.34 207.87C333.159 208.218 333.07 208.607 333.082 208.999C333.094 209.391 333.207 209.774 333.41 210.11C333.995 211.06 334.797 211.859 335.749 212.441C336.701 213.023 337.777 213.372 338.89 213.46C341.61 213.79 344.25 213.01 346.89 212.53C350.02 211.98 352.41 211.53 355.51 211.94C358.61 212.35 362.37 213.16 365.32 213.7C369.102 214.357 372.918 214.797 376.75 215.02C378.88 215.12 380.43 214.7 382.27 212.1C384.11 209.5 394.27 188.57 394.27 188.57C398.5 182.57 396.07 177.49 392.93 176.42C391 175.78 389.16 177.28 387.29 180Z" fill="#FFA8A7"/>
<path d="M322.72 157.64C323.527 157.748 324.322 157.939 325.09 158.21C327.062 158.882 328.748 160.204 329.87 161.96C330.357 162.826 330.563 163.822 330.46 164.81C330.431 165.069 330.353 165.32 330.23 165.55C329.949 165.946 329.565 166.257 329.12 166.45C328.414 166.934 327.582 167.199 326.727 167.213C325.872 167.228 325.031 166.99 324.31 166.53C322.356 165.398 320.292 164.466 318.15 163.75C317.069 163.415 315.95 163.217 314.82 163.16C314.169 163.177 313.54 163.405 313.03 163.81C312.852 163.365 312.799 162.88 312.879 162.407C312.958 161.934 313.166 161.492 313.48 161.13C314.586 159.633 316.147 158.535 317.93 158C319.48 157.526 321.116 157.403 322.72 157.64Z" fill="#FFA8A7"/>
<path d="M145.81 226.52C151.603 226.52 156.3 221.823 156.3 216.03C156.3 210.237 151.603 205.54 145.81 205.54C140.017 205.54 135.32 210.237 135.32 216.03C135.32 221.823 140.017 226.52 145.81 226.52Z" fill="#263238"/>
<path d="M120.7 406.09H128.09V393.45H120.7V406.09Z" fill="#FFA8A7"/>
<path d="M146.31 392.77L153.69 393.02L154.06 379.64L146.31 379.39V392.77Z" fill="#FFA8A7"/>
<path d="M121.19 285.08C121.19 292.13 120.28 343.01 120.28 343.01C120.11 345.01 118.2 348.78 118.62 356.58C119.17 367.17 120.39 399.77 120.39 399.77C121.665 400.396 123.062 400.734 124.482 400.762C125.902 400.79 127.311 400.506 128.61 399.93C128.61 399.93 135.13 356.62 136.45 346.12C137.61 336.97 139.57 312.12 139.57 312.12L143.57 342.01C142.716 345.861 142.41 349.813 142.66 353.75C143 358.6 145.85 388.66 145.85 388.66C147.135 389.388 148.565 389.823 150.037 389.936C151.51 390.048 152.989 389.834 154.37 389.31C154.37 389.31 158.11 346.47 158.19 342.01C158.29 336.94 155.73 285.11 155.73 285.11L121.19 285.08Z" fill="#37474F"/>
<path d="M154.72 242.15C159.05 245.71 166.87 252.94 166.87 252.94L154.67 259.65L146.91 238.84C146.91 238.84 150 238.24 154.72 242.15Z" fill="#F2C344"/>
<path opacity="0.1" d="M154.72 242.15C159.05 245.71 166.87 252.94 166.87 252.94L154.67 259.65L146.91 238.84C146.91 238.84 150 238.24 154.72 242.15Z" fill="black"/>
<path d="M123.7 243.91C123.7 243.91 120.94 246.68 120.94 253.38V267.85L120.73 295.18C131.33 300.77 144.73 301.09 156.02 292.83C156.02 292.83 155.48 257.71 155.48 251.95C155.48 246.19 152.28 238.72 143.48 238.21L132.09 240.86L123.7 243.91Z" fill="#F2C344"/>
<path d="M127.69 223.48C127.69 223.48 129.39 231.48 130.07 232.78C130.524 233.588 131.273 234.19 132.16 234.46L132.04 228.85L127.69 223.48Z" fill="#263238"/>
<path d="M129.82 212.05C129.227 211.979 128.626 212.044 128.062 212.242C127.499 212.439 126.988 212.764 126.57 213.19C125.17 214.62 125.95 219.1 127.69 223.48L130.89 223.85L129.82 212.05Z" fill="#263238"/>
<path d="M131.85 223.85C131.21 224.24 130.29 223 129.5 222.18C128.71 221.36 126.13 220.18 124.84 222.93C123.55 225.68 126 229.36 128 230C131.5 231.1 132 228.86 132 228.86L132.27 241.5C132.27 241.5 135.27 246.5 143.06 247.7C147.06 248.32 148 244.46 143.67 241.17V237.32C145.234 237.569 146.819 237.649 148.4 237.56C150.98 237.16 152.6 235.13 153.4 232.34C154.66 227.86 155.13 224.24 154.07 215.42C152.9 205.76 141.66 205.66 135.59 209.48C129.52 213.3 131.85 223.85 131.85 223.85Z" fill="#FFA8A7"/>
<path d="M131.85 224.93C131.53 224.93 130.3 222.93 129.5 222.18C128.39 221.18 129.82 212.05 129.82 212.05C129.531 211.259 129.478 210.401 129.668 209.581C129.858 208.761 130.283 208.013 130.89 207.43C132.41 205.77 134.94 205.58 139.27 204.9C141.54 204.54 144.98 203.9 147.27 203.49C149.97 202.98 152.21 202.49 154.13 204.11C154.877 204.762 155.404 205.629 155.64 206.591C155.876 207.554 155.81 208.566 155.45 209.49C155.252 209.91 154.993 210.297 154.68 210.64C154.169 211.256 153.497 211.72 152.74 211.98C152.74 211.98 151.56 213.03 147.45 213.53C143.658 213.814 139.848 213.74 136.07 213.31C134.88 213.15 134.63 214.31 133.99 217.45C133.4 220.22 132.93 224.91 131.85 224.93Z" fill="#263238"/>
<path d="M129.83 212.76L126 210.67C126.121 210.406 126.295 210.17 126.511 209.975C126.727 209.78 126.98 209.632 127.255 209.538C127.53 209.445 127.821 209.408 128.111 209.431C128.401 209.453 128.683 209.535 128.94 209.67C129.459 209.97 129.841 210.46 130.007 211.036C130.173 211.612 130.11 212.23 129.83 212.76Z" fill="#263238"/>
<path d="M143.7 237.31C143.7 237.31 137.95 236.15 135.94 235.08C134.758 234.464 133.789 233.506 133.16 232.33C133.461 233.506 133.999 234.608 134.74 235.57C136.21 237.45 143.74 238.84 143.74 238.84L143.7 237.31Z" fill="#F28F8F"/>
<path d="M142.32 222.41C142.312 222.638 142.237 222.859 142.105 223.044C141.972 223.23 141.788 223.372 141.575 223.454C141.361 223.535 141.129 223.552 140.907 223.502C140.684 223.452 140.481 223.337 140.323 223.173C140.165 223.008 140.06 222.8 140.019 222.576C139.979 222.351 140.005 222.12 140.096 221.91C140.186 221.701 140.336 221.523 140.527 221.398C140.718 221.274 140.942 221.208 141.17 221.21C141.325 221.213 141.477 221.246 141.619 221.308C141.76 221.369 141.888 221.459 141.995 221.57C142.102 221.682 142.186 221.814 142.242 221.958C142.297 222.102 142.324 222.256 142.32 222.41Z" fill="#263238"/>
<path d="M141.1 218.06L138.63 219.42C138.536 219.251 138.476 219.066 138.454 218.874C138.432 218.682 138.448 218.488 138.501 218.302C138.553 218.116 138.643 217.943 138.763 217.791C138.883 217.64 139.031 217.514 139.2 217.42C139.366 217.332 139.548 217.279 139.735 217.263C139.922 217.248 140.11 217.271 140.288 217.331C140.466 217.391 140.629 217.486 140.769 217.612C140.909 217.737 141.021 217.89 141.1 218.06Z" fill="#263238"/>
<path d="M143.18 230.38L145.81 231.38C145.753 231.556 145.661 231.718 145.539 231.857C145.418 231.997 145.27 232.111 145.104 232.192C144.938 232.273 144.757 232.32 144.573 232.33C144.388 232.34 144.204 232.313 144.03 232.25C143.672 232.111 143.383 231.838 143.224 231.488C143.065 231.139 143.049 230.741 143.18 230.38Z" fill="#F28F8F"/>
<path d="M152.6 219L150.35 217.27C150.455 217.111 150.593 216.976 150.753 216.873C150.914 216.77 151.095 216.703 151.283 216.674C151.472 216.646 151.664 216.658 151.848 216.709C152.032 216.76 152.203 216.849 152.35 216.97C152.643 217.213 152.832 217.558 152.878 217.935C152.925 218.313 152.825 218.694 152.6 219Z" fill="#263238"/>
<path d="M151.91 222.09C151.9 222.317 151.824 222.537 151.69 222.721C151.556 222.906 151.371 223.046 151.158 223.126C150.945 223.206 150.713 223.221 150.491 223.17C150.269 223.119 150.067 223.004 149.91 222.839C149.753 222.674 149.649 222.467 149.609 222.242C149.569 222.018 149.596 221.787 149.687 221.578C149.777 221.369 149.928 221.192 150.118 221.068C150.309 220.944 150.532 220.878 150.76 220.88C151.072 220.89 151.368 221.023 151.583 221.25C151.798 221.476 151.915 221.778 151.91 222.09Z" fill="#263238"/>
<path d="M146.04 220.99L146.41 227.93L150.03 226.69L146.04 220.99Z" fill="#F28F8F"/>
<path d="M128.09 402.44V401.39C128.8 401.7 130.44 407.96 133.37 410.63C135.7 412.76 138.88 415.21 139.69 417.58C140.5 419.95 135.26 421.4 133.08 421.02C130.56 420.57 126.17 418.79 125.08 417.14C123.99 415.49 123.47 413.05 122.57 411.84C121.67 410.63 119.57 409.28 119.13 407.84C118.986 406.534 119.133 405.212 119.56 403.97C119.9 402.66 120.27 401.23 120.72 401.35V402.15C121.768 402.982 123.072 403.424 124.41 403.4C125.48 403.48 128.1 403.27 128.09 402.44Z" fill="#263238"/>
<path d="M153.77 390.75C154.16 390.75 154.47 391.3 155.31 392.22C156.578 393.493 158.048 394.547 159.66 395.34C162.42 396.73 167.8 398.86 170.23 399.95C171.76 400.64 171.68 402.48 170.11 403.52C168.54 404.56 164.75 405.32 160.19 404.3C157.71 403.74 154.48 401.45 152.43 401.58C150.38 401.71 146.56 401.67 145.05 400.63C143.54 399.59 144.15 397.37 144.58 395.46C145.04 393.37 145.58 390.13 146.31 390.27V391C147.2 392.34 151.78 392.89 153.73 391.9L153.77 390.75Z" fill="#263238"/>
<path d="M139.57 312.09C143.386 310.896 146.894 308.882 149.85 306.19C149.85 306.19 147.85 309.91 141.97 313.36L143.23 339.42L139.57 312.09Z" fill="#263238"/>
<path d="M148.78 340.07L148.08 339.67C147.497 339.283 147.012 338.765 146.665 338.157C146.318 337.549 146.118 336.869 146.08 336.17V264.38C146.118 263.681 146.318 263.001 146.665 262.393C147.012 261.785 147.497 261.267 148.08 260.88L210.26 225C210.881 224.689 211.566 224.528 212.26 224.528C212.954 224.528 213.639 224.689 214.26 225L214.96 225.41C215.544 225.794 216.029 226.31 216.377 226.916C216.724 227.522 216.924 228.202 216.96 228.9V300.7C216.923 301.398 216.722 302.077 216.375 302.683C216.027 303.289 215.543 303.805 214.96 304.19L152.78 340.09C152.158 340.398 151.472 340.556 150.778 340.552C150.083 340.549 149.399 340.384 148.78 340.07Z" fill="#F5F5F5"/>
<path d="M182.73 254.26C193.5 248.04 202.24 253.09 202.24 265.53C202.24 277.97 193.5 293.1 182.73 299.32C171.96 305.54 163.21 300.5 163.21 288.06C163.21 275.62 172 260.49 182.73 254.26Z" fill="#455A64"/>
<path d="M182.59 264.06C186.08 262.06 188.92 263.67 188.92 267.71C188.806 269.913 188.173 272.057 187.073 273.968C185.973 275.88 184.437 277.505 182.59 278.71C179.09 280.71 176.26 279.1 176.26 275.06C176.374 272.857 177.007 270.713 178.107 268.802C179.207 266.89 180.743 265.265 182.59 264.06Z" fill="#F2C344"/>
<path d="M195.06 285.58C195.06 278.95 190.41 276.26 184.66 279.58L181.07 281.65C175.33 284.97 170.67 293.03 170.67 299.65V301.44C173.99 302.54 178.17 301.94 182.73 299.31C187.716 296.236 191.934 292.063 195.06 287.11V285.58Z" fill="#F2C344"/>
<path d="M217 228.56C216.86 227.51 216 227.13 215 227.71L152.82 263.62C152.224 263.991 151.732 264.507 151.39 265.12L146.67 262.39C147.011 261.774 147.503 261.254 148.1 260.88L210.26 225C210.88 224.685 211.565 224.52 212.26 224.52C212.955 224.52 213.64 224.685 214.26 225L214.96 225.4C215.506 225.75 215.971 226.214 216.323 226.759C216.675 227.304 216.905 227.918 217 228.56Z" fill="#FAFAFA"/>
<path d="M152.47 340.23C151.878 340.465 151.244 340.573 150.608 340.545C149.972 340.517 149.349 340.356 148.78 340.07L148.07 339.67C147.487 339.283 147.002 338.765 146.655 338.157C146.308 337.549 146.108 336.869 146.07 336.17V264.38C146.086 263.673 146.29 262.983 146.66 262.38L151.38 265.11C151.018 265.716 150.815 266.404 150.79 267.11V338.92C150.79 340.06 151.52 340.6 152.47 340.23Z" fill="#E0E0E0"/>
<path d="M161.28 322.17C161.28 324.17 162.71 325.04 164.48 324.02L201 303C201.932 302.394 202.708 301.576 203.264 300.613C203.82 299.651 204.141 298.57 204.2 297.46C204.2 295.46 202.77 294.59 201 295.61L164.51 316.68C163.581 317.28 162.806 318.089 162.245 319.042C161.684 319.996 161.354 321.067 161.28 322.17Z" fill="#F2C344"/>
<path d="M111.85 287.16C108.06 284.52 108.11 280.6 109.32 276.16C117.57 245.66 120.1 245.49 123.7 243.95L126.59 255.95L118.88 280.95C124.045 284.742 129.907 287.477 136.13 289C137.427 289.217 138.758 289.076 139.98 288.59C142.33 287.27 143.65 287.27 146.06 286.59V290.53C148.215 290.802 150.399 290.728 152.53 290.31C157.53 289.38 159.7 290.42 156.65 296.12C154.74 299.69 151.03 300.87 141.73 299.27C138.341 298.628 135 297.756 131.73 296.66C124.722 294.363 118.04 291.17 111.85 287.16Z" fill="#FFA8A7"/>
<path d="M123.7 243.91C123.7 243.91 127.25 246.14 128.01 251.73C128.77 257.32 123.39 272.53 123.39 272.53C123.39 272.53 114.7 271.7 111.1 267.42C111.1 267.42 116.1 253.51 117.1 250.37C117.532 248.807 118.37 247.385 119.53 246.251C120.689 245.116 122.128 244.309 123.7 243.91Z" fill="#F2C344"/>
<path opacity="0.1" d="M123.7 243.91C123.7 243.91 127.25 246.14 128.01 251.73C128.77 257.32 123.39 272.53 123.39 272.53C123.39 272.53 114.7 271.7 111.1 267.42C111.1 267.42 116.1 253.51 117.1 250.37C117.532 248.807 118.37 247.385 119.53 246.251C120.689 245.116 122.128 244.309 123.7 243.91Z" fill="black"/>
<path d="M217 245.87V250.32C217 250.32 214.6 253.97 212 255.32C209.4 256.67 209.44 262.06 212.65 262.82C215.86 263.58 220.28 259.61 220.65 257.43C221.02 255.25 220.23 245.64 217 245.87Z" fill="#FFA8A7"/>
</svg>
