<svg width="500" height="500" viewBox="0 0 500 500" fill="none" xmlns="http://www.w3.org/2000/svg">
<path d="M500 382.4H0V382.65H500V382.4Z" fill="#EBEBEB"/>
<path d="M449.9 398.49H416.78V398.74H449.9V398.49Z" fill="#EBEBEB"/>
<path d="M301.44 398.62H292.75V398.87H301.44V398.62Z" fill="#EBEBEB"/>
<path d="M415.77 389.21H354.33V389.46H415.77V389.21Z" fill="#EBEBEB"/>
<path d="M225.14 395.11H212.45V395.36H225.14V395.11Z" fill="#EBEBEB"/>
<path d="M203.55 395.11H166.72V395.36H203.55V395.11Z" fill="#EBEBEB"/>
<path d="M77.89 390.89H52.46V391.14H77.89V390.89Z" fill="#EBEBEB"/>
<path d="M158.78 390.89H83.8899V391.14H158.78V390.89Z" fill="#EBEBEB"/>
<path d="M237 337.8H43.91C42.3973 337.797 40.9475 337.195 39.8788 336.124C38.8102 335.054 38.21 333.603 38.21 332.09V60.66C38.2231 59.156 38.8292 57.718 39.8964 56.6582C40.9637 55.5985 42.4059 55.0026 43.91 55H237C238.514 55 239.967 55.6016 241.038 56.6724C242.108 57.7433 242.71 59.1956 242.71 60.71V332.09C242.71 333.604 242.108 335.057 241.038 336.128C239.967 337.198 238.514 337.8 237 337.8ZM43.91 55.2C42.4636 55.2026 41.0774 55.7791 40.0556 56.8027C39.0338 57.8264 38.46 59.2136 38.46 60.66V332.09C38.46 333.536 39.0338 334.924 40.0556 335.947C41.0774 336.971 42.4636 337.547 43.91 337.55H237C238.447 337.547 239.834 336.971 240.858 335.948C241.881 334.924 242.457 333.537 242.46 332.09V60.66C242.457 59.2127 241.881 57.8255 240.858 56.8021C239.834 55.7787 238.447 55.2026 237 55.2H43.91Z" fill="#EBEBEB"/>
<path d="M453.31 337.8H260.21C258.696 337.797 257.246 337.195 256.175 336.125C255.105 335.054 254.503 333.604 254.5 332.09V60.66C254.516 59.1551 255.124 57.7171 256.193 56.6576C257.262 55.5981 258.705 55.0025 260.21 55H453.31C454.812 55.0052 456.252 55.6022 457.317 56.6617C458.382 57.7212 458.987 59.1578 459 60.66V332.09C459 333.601 458.401 335.05 457.335 336.121C456.268 337.191 454.821 337.795 453.31 337.8ZM260.21 55.2C258.763 55.2026 257.375 55.7787 256.352 56.8021C255.329 57.8255 254.753 59.2127 254.75 60.66V332.09C254.753 333.537 255.329 334.924 256.352 335.948C257.375 336.971 258.763 337.547 260.21 337.55H453.31C454.757 337.547 456.145 336.971 457.168 335.948C458.191 334.924 458.767 333.537 458.77 332.09V60.66C458.767 59.2127 458.191 57.8255 457.168 56.8021C456.145 55.7787 454.757 55.2026 453.31 55.2H260.21Z" fill="#EBEBEB"/>
<path d="M190.78 249.51L433.82 249.51V71.98L190.78 71.98L190.78 249.51Z" fill="#E6E6E6"/>
<path d="M180.04 249.51L431.33 249.51V71.98L180.04 71.98L180.04 249.51Z" fill="#E2EDFF"/>
<path d="M416.28 234.47V87.02L195.07 87.02V234.47H416.28Z" fill="#FAFAFA"/>
<path d="M362.51 234.46L312.15 87.02H264.06L314.42 234.46H362.51Z" fill="white"/>
<path d="M304.09 234.46L253.73 87.02H234.99L285.35 234.46H304.09Z" fill="white"/>
<path d="M196.99 234.47V87.02H195.08V234.47H196.99Z" fill="#E6E6E6"/>
<path d="M64.5699 201.22H150.39L150.39 79.55L64.5699 79.55L64.5699 201.22Z" fill="#E0E0E0"/>
<path d="M58.5 201.22H146.96L146.96 79.55L58.5 79.55L58.5 201.22Z" fill="#E2EDFF"/>
<path d="M138.23 191.62V89.13H67.23V191.62H138.23Z" fill="#87AEDD"/>
<path d="M97.9301 286.4C104.3 270.68 119.45 264.83 124.69 254.9C131.54 241.9 131.5 222.39 125.69 215.36C120.61 209.24 103.81 250.6 101.92 255.22C96.7349 267.689 93.4906 280.879 92.3001 294.33C92.4401 284.62 92.5701 275.7 92.6801 268.82C93.0401 246.38 93.4801 239.16 93.6801 236.94C94.3801 235.85 95.2101 234.59 95.6801 233.94C99.7501 228.21 108.77 221.38 113.28 213.05C119.86 200.88 118.8 186.32 114.18 180.9C109.35 175.23 100.82 188.63 96.2901 201.9C91.7601 215.17 93.6901 227.9 92.4201 238.9C92.1601 241.06 91.8801 249.27 91.6301 260.67C90.2501 248.41 87.5101 240.2 82.4401 232.54C76.2001 223.13 70.8101 211.67 65.6701 213.15C60.5301 214.63 63.2901 229.8 67.3601 240.44C71.0001 249.92 88.8501 259.38 91.4801 267C91.1701 282.44 90.8901 302 90.7001 320.23C89.2901 310.82 90.2601 310.03 84.4801 295.62C81.0501 287.06 67.0001 276.5 65.3001 282.38C63.6001 288.26 66.1701 299.38 71.4801 307.18C75.7701 313.46 85.2801 313.45 87.4801 317.35C87.9901 318.26 89.6901 321.75 90.6601 323.75C90.4301 345.99 90.3301 365.63 90.4401 372.32L91.3601 372.39C91.3601 370.66 91.4301 359.39 91.6101 344.39C93.9201 336.39 109.47 331.78 114.27 323.49C119.27 314.82 122.91 304.7 120.75 297.93C118.95 292.28 104.75 299.93 99.0401 309.32C95.2101 315.56 92.8701 322.21 91.7801 331.15C91.9101 320.95 92.0601 309.99 92.2001 299.65C93.3701 297.05 96.0001 291.11 97.9301 286.4Z" fill="#3AAEEF"/>
<path d="M107.06 382.4H74.3799C73.5163 382.399 72.6794 382.1 72.0108 381.553C71.3421 381.007 70.8826 380.246 70.7099 379.4L68.3899 368H113.06L110.74 379.43C110.557 380.271 110.093 381.024 109.423 381.564C108.754 382.104 107.92 382.399 107.06 382.4Z" fill="#3278CC"/>
<path d="M114 372.39H67.45C66.9108 372.389 66.3909 372.189 65.989 371.83C65.5871 371.47 65.3312 370.976 65.27 370.44L64.27 361.99C64.2363 361.683 64.2675 361.373 64.3617 361.079C64.4558 360.785 64.6107 360.514 64.8163 360.284C65.0218 360.054 65.2735 359.87 65.555 359.743C65.8365 359.617 66.1414 359.551 66.45 359.55H114.89C115.199 359.549 115.505 359.614 115.787 359.74C116.069 359.866 116.322 360.05 116.527 360.281C116.733 360.511 116.888 360.783 116.982 361.077C117.075 361.372 117.105 361.683 117.07 361.99L116.07 370.44C116.012 370.957 115.771 371.437 115.392 371.794C115.013 372.151 114.52 372.363 114 372.39Z" fill="#87AEDD"/>
<path d="M405.63 375.11H415.62V267.62H405.63V375.11Z" fill="#E2EDFF"/>
<path d="M202.06 382.27H411.79V375.11H202.06V382.27Z" fill="#E2EDFF"/>
<path d="M405.64 267.62H198.23V375.11H405.64V267.62Z" fill="#F5F5F5"/>
<path d="M407.99 267.62H418.31V260.84H407.99V267.62Z" fill="#E0E0E0"/>
<path d="M407.99 260.84H195.54V267.62H407.99V260.84Z" fill="#EBEBEB"/>
<path d="M390.75 314H213.11C210.988 314 208.954 313.157 207.453 311.657C205.953 310.157 205.11 308.122 205.11 306V283C205.11 280.878 205.953 278.843 207.453 277.343C208.954 275.843 210.988 275 213.11 275H390.75C392.872 275 394.907 275.843 396.407 277.343C397.907 278.843 398.75 280.878 398.75 283V306C398.75 308.122 397.907 310.157 396.407 311.657C394.907 313.157 392.872 314 390.75 314ZM213.11 277C211.519 277 209.993 277.632 208.867 278.757C207.742 279.883 207.11 281.409 207.11 283V306C207.11 307.591 207.742 309.117 208.867 310.243C209.993 311.368 211.519 312 213.11 312H390.75C392.341 312 393.868 311.368 394.993 310.243C396.118 309.117 396.75 307.591 396.75 306V283C396.75 281.409 396.118 279.883 394.993 278.757C393.868 277.632 392.341 277 390.75 277H213.11Z" fill="#E2EDFF"/>
<path d="M390.75 362.19H213.11C210.988 362.19 208.954 361.347 207.453 359.847C205.953 358.347 205.11 356.312 205.11 354.19V331.19C205.11 329.068 205.953 327.033 207.453 325.533C208.954 324.033 210.988 323.19 213.11 323.19H390.75C392.872 323.19 394.907 324.033 396.407 325.533C397.907 327.033 398.75 329.068 398.75 331.19V354.19C398.75 356.312 397.907 358.347 396.407 359.847C394.907 361.347 392.872 362.19 390.75 362.19ZM213.11 325.11C211.519 325.11 209.993 325.742 208.867 326.867C207.742 327.993 207.11 329.519 207.11 331.11V354.11C207.11 355.701 207.742 357.227 208.867 358.353C209.993 359.478 211.519 360.11 213.11 360.11H390.75C392.341 360.11 393.868 359.478 394.993 358.353C396.118 357.227 396.75 355.701 396.75 354.11V331.11C396.75 329.519 396.118 327.993 394.993 326.867C393.868 325.742 392.341 325.11 390.75 325.11H213.11Z" fill="#E2EDFF"/>
<path d="M350.38 298H253.48C252.792 298 252.132 297.727 251.645 297.242C251.158 296.757 250.883 296.098 250.88 295.41V293.51C250.883 292.822 251.158 292.163 251.645 291.678C252.132 291.193 252.792 290.92 253.48 290.92H350.38C351.068 290.92 351.728 291.193 352.215 291.678C352.702 292.163 352.977 292.822 352.98 293.51V295.41C352.977 296.098 352.702 296.757 352.215 297.242C351.728 297.727 351.068 298 350.38 298ZM253.48 293C253.323 293.002 253.174 293.065 253.062 293.175C252.95 293.285 252.885 293.433 252.88 293.59V295.49C252.885 295.647 252.95 295.795 253.062 295.905C253.174 296.015 253.323 296.078 253.48 296.08H350.38C350.537 296.08 350.688 296.018 350.801 295.908C350.913 295.797 350.977 295.647 350.98 295.49V293.59C350.977 293.433 350.913 293.283 350.801 293.172C350.688 293.062 350.537 293 350.38 293H253.48Z" fill="white"/>
<path d="M350.38 346.19H253.48C252.792 346.19 252.132 345.917 251.645 345.432C251.158 344.947 250.883 344.288 250.88 343.6V341.7C250.883 341.012 251.158 340.353 251.645 339.868C252.132 339.383 252.792 339.11 253.48 339.11H350.38C351.068 339.11 351.728 339.383 352.215 339.868C352.702 340.353 352.977 341.012 352.98 341.7V343.6C352.977 344.288 352.702 344.947 352.215 345.432C351.728 345.917 351.068 346.19 350.38 346.19ZM253.48 341.11C253.323 341.112 253.174 341.175 253.062 341.285C252.95 341.395 252.885 341.543 252.88 341.7V343.6C252.885 343.757 252.95 343.905 253.062 344.015C253.174 344.125 253.323 344.188 253.48 344.19H350.38C350.537 344.19 350.688 344.128 350.801 344.018C350.913 343.907 350.977 343.757 350.98 343.6V341.7C350.977 341.543 350.913 341.393 350.801 341.282C350.688 341.172 350.537 341.11 350.38 341.11H253.48Z" fill="white"/>
<path d="M245 427.56C352.083 427.56 438.89 422.492 438.89 416.24C438.89 409.988 352.083 404.92 245 404.92C137.918 404.92 51.1101 409.988 51.1101 416.24C51.1101 422.492 137.918 427.56 245 427.56Z" fill="#E2EDFF"/>
<path d="M374.79 167.753L374.409 173.64L375.407 173.705L375.788 167.817L374.79 167.753Z" fill="#3278CC"/>
<path d="M376.308 143.84L375.06 163.19L376.058 163.254L377.306 143.904L376.308 143.84Z" fill="#3278CC"/>
<path d="M364.44 115.74H246.89C243.872 115.793 240.981 116.969 238.783 119.038C236.584 121.107 235.236 123.92 235 126.93L219.81 361.43C219.699 362.867 219.888 364.312 220.365 365.673C220.842 367.033 221.597 368.279 222.582 369.333C223.566 370.386 224.759 371.223 226.084 371.79C227.409 372.358 228.838 372.644 230.28 372.63H347.81C350.834 372.58 353.73 371.404 355.934 369.334C358.138 367.263 359.492 364.445 359.73 361.43L374.91 126.93C375.021 125.493 374.832 124.049 374.355 122.689C373.877 121.329 373.122 120.083 372.138 119.031C371.153 117.978 369.96 117.142 368.635 116.576C367.31 116.009 365.881 115.725 364.44 115.74Z" fill="#3278CC"/>
<path opacity="0.7" d="M360.71 115.74H246.89C243.872 115.793 240.981 116.969 238.783 119.038C236.584 121.107 235.236 123.92 235 126.93L219.81 361.43C219.699 362.867 219.888 364.312 220.365 365.673C220.842 367.033 221.597 368.279 222.582 369.333C223.566 370.386 224.759 371.223 226.084 371.79C227.409 372.358 228.838 372.644 230.28 372.63H344.08C347.104 372.58 350 371.404 352.204 369.334C354.408 367.263 355.762 364.445 356 361.43L371.18 126.93C371.291 125.493 371.102 124.049 370.625 122.689C370.147 121.329 369.392 120.083 368.408 119.031C367.423 117.978 366.23 117.142 364.905 116.576C363.58 116.009 362.151 115.725 360.71 115.74Z" fill="white"/>
<path d="M351.11 355.3H225.91C225.442 355.301 224.978 355.206 224.548 355.02C224.118 354.835 223.731 354.563 223.41 354.222C223.09 353.881 222.843 353.477 222.684 353.036C222.526 352.596 222.46 352.127 222.49 351.66L236.23 139.46C236.286 138.593 236.669 137.78 237.303 137.186C237.936 136.592 238.772 136.261 239.64 136.26H364.85C365.319 136.26 365.782 136.357 366.212 136.543C366.642 136.73 367.03 137.003 367.35 137.345C367.67 137.687 367.917 138.091 368.076 138.532C368.234 138.973 368.3 139.442 368.27 139.91L354.53 352.1C354.474 352.968 354.089 353.783 353.454 354.377C352.818 354.972 351.98 355.302 351.11 355.3Z" fill="white"/>
<path d="M323.29 129.32H277.78C277.546 129.322 277.314 129.275 277.099 129.183C276.883 129.091 276.69 128.955 276.53 128.784C276.37 128.613 276.248 128.41 276.17 128.189C276.093 127.968 276.062 127.733 276.08 127.5C276.126 127.015 276.348 126.563 276.703 126.23C277.058 125.897 277.523 125.705 278.01 125.69H323.52C323.754 125.687 323.985 125.732 324.201 125.823C324.416 125.914 324.61 126.049 324.77 126.22C324.93 126.39 325.052 126.592 325.13 126.812C325.207 127.033 325.238 127.267 325.22 127.5C325.176 127.987 324.956 128.441 324.6 128.776C324.245 129.111 323.779 129.305 323.29 129.32Z" fill="white"/>
<path d="M287.77 364.21C287.697 365.409 287.172 366.535 286.302 367.362C285.432 368.19 284.281 368.657 283.08 368.67C282.503 368.675 281.932 368.562 281.401 368.336C280.87 368.111 280.391 367.779 279.994 367.36C279.598 366.942 279.291 366.446 279.094 365.904C278.897 365.362 278.814 364.786 278.85 364.21C278.926 363.013 279.451 361.889 280.321 361.064C281.191 360.239 282.341 359.773 283.54 359.76C284.116 359.753 284.687 359.866 285.218 360.09C285.749 360.314 286.228 360.645 286.625 361.063C287.022 361.481 287.328 361.976 287.525 362.517C287.722 363.059 287.806 363.635 287.77 364.21Z" fill="white"/>
<path opacity="0.2" d="M337.47 195H230.56L223.76 299.9H337.47C340.437 299.895 343.281 298.714 345.38 296.617C347.479 294.52 348.662 291.677 348.67 288.71V206.23C348.673 203.256 347.494 200.403 345.394 198.297C343.294 196.191 340.444 195.005 337.47 195Z" fill="#3278CC"/>
<path d="M327.51 185.71H196.49C190.304 185.71 185.29 190.724 185.29 196.91V279.42C185.29 285.606 190.304 290.62 196.49 290.62H327.51C333.696 290.62 338.71 285.606 338.71 279.42V196.91C338.71 190.724 333.696 185.71 327.51 185.71Z" fill="#3AAEEF"/>
<path d="M181.71 184.5C181.448 184.499 181.196 184.395 181.01 184.21L179.21 182.42C179.022 182.232 178.916 181.976 178.916 181.71C178.916 181.444 179.022 181.188 179.21 181C179.398 180.812 179.654 180.706 179.92 180.706C180.186 180.706 180.442 180.812 180.63 181L182.42 182.8C182.606 182.987 182.711 183.241 182.711 183.505C182.711 183.769 182.606 184.023 182.42 184.21C182.326 184.303 182.216 184.376 182.094 184.426C181.972 184.476 181.841 184.501 181.71 184.5Z" fill="#F2C344"/>
<path d="M179 190.78H176.47C176.205 190.78 175.95 190.675 175.763 190.487C175.575 190.3 175.47 190.045 175.47 189.78C175.47 189.515 175.575 189.26 175.763 189.073C175.95 188.885 176.205 188.78 176.47 188.78H179C179.265 188.78 179.52 188.885 179.707 189.073C179.895 189.26 180 189.515 180 189.78C180 190.045 179.895 190.3 179.707 190.487C179.52 190.675 179.265 190.78 179 190.78Z" fill="#F2C344"/>
<path d="M188.08 181.8C187.827 181.801 187.582 181.705 187.397 181.532C187.211 181.36 187.098 181.123 187.08 180.87L186.9 178.34C186.891 178.209 186.907 178.077 186.949 177.952C186.99 177.827 187.056 177.711 187.143 177.612C187.229 177.512 187.334 177.431 187.452 177.372C187.57 177.314 187.699 177.279 187.83 177.27C188.094 177.254 188.353 177.342 188.552 177.516C188.751 177.691 188.872 177.936 188.89 178.2L189.08 180.73C189.09 180.861 189.073 180.993 189.031 181.118C188.99 181.243 188.924 181.359 188.837 181.458C188.751 181.558 188.646 181.639 188.528 181.698C188.41 181.756 188.282 181.791 188.15 181.8H188.08Z" fill="#F2C344"/>
<path d="M273.19 279.83L313.42 320.05V279.83H273.19Z" fill="#3AAEEF"/>
<path d="M284.22 262.21L282.22 253.72C281.715 251.488 281.715 249.172 282.22 246.94L285 234.85C286.137 229.694 285.521 224.307 283.25 219.541C280.978 214.775 277.181 210.903 272.46 208.54C272.548 208.318 272.625 208.091 272.69 207.86C272.854 207.127 272.872 206.368 272.743 205.628C272.614 204.887 272.34 204.179 271.938 203.545C271.535 202.91 271.012 202.361 270.397 201.928C269.782 201.496 269.088 201.189 268.355 201.025C267.621 200.861 266.863 200.843 266.122 200.972C265.382 201.101 264.674 201.374 264.04 201.777C263.405 202.179 262.856 202.703 262.423 203.318C261.991 203.933 261.684 204.627 261.52 205.36C261.47 205.594 261.44 205.831 261.43 206.07C256.152 206.194 251.067 208.075 246.979 211.415C242.891 214.755 240.034 219.363 238.86 224.51L236.15 236.61C235.652 238.838 234.661 240.926 233.25 242.72L227.86 249.57C227.333 250.242 226.984 251.036 226.847 251.879C226.709 252.722 226.787 253.586 227.074 254.391C227.36 255.195 227.846 255.914 228.485 256.481C229.124 257.047 229.897 257.443 230.73 257.63L278.23 268.27C279.06 268.449 279.922 268.416 280.737 268.174C281.551 267.932 282.291 267.488 282.888 266.884C283.485 266.28 283.92 265.535 284.153 264.718C284.386 263.901 284.409 263.038 284.22 262.21Z" fill="white"/>
<path d="M248.35 264.83C247.989 264.75 247.613 264.761 247.257 264.861C246.901 264.961 246.575 265.147 246.308 265.403C246.041 265.66 245.841 265.978 245.726 266.329C245.612 266.681 245.585 267.056 245.65 267.42C245.923 269.027 246.668 270.516 247.79 271.698C248.912 272.88 250.36 273.702 251.951 274.058C253.541 274.414 255.202 274.288 256.721 273.698C258.239 273.107 259.548 272.077 260.48 270.74C260.693 270.439 260.828 270.09 260.875 269.723C260.921 269.357 260.876 268.986 260.745 268.641C260.613 268.296 260.399 267.989 260.121 267.746C259.843 267.504 259.509 267.333 259.15 267.25L248.35 264.83Z" fill="white"/>
<path d="M211.87 248C211.622 248.002 211.378 247.942 211.159 247.824C210.941 247.707 210.756 247.537 210.62 247.33C205.897 240.254 204.178 231.591 205.841 223.248C207.505 214.905 212.414 207.564 219.49 202.84C219.821 202.62 220.227 202.54 220.617 202.619C221.007 202.698 221.35 202.928 221.57 203.26C221.79 203.592 221.87 203.997 221.791 204.387C221.712 204.777 221.481 205.12 221.15 205.34C214.745 209.63 210.304 216.287 208.804 223.849C207.304 231.411 208.867 239.26 213.15 245.67C213.371 246 213.452 246.405 213.375 246.795C213.298 247.185 213.07 247.528 212.74 247.75C212.482 247.92 212.179 248.007 211.87 248Z" fill="white"/>
<path d="M218.22 243.74C217.974 243.738 217.733 243.677 217.516 243.56C217.3 243.443 217.116 243.275 216.98 243.07C213.385 237.68 212.077 231.083 213.342 224.728C214.608 218.374 218.344 212.782 223.73 209.18C223.894 209.07 224.078 208.994 224.272 208.956C224.466 208.917 224.665 208.917 224.858 208.956C225.052 208.994 225.236 209.071 225.4 209.18C225.564 209.29 225.705 209.431 225.815 209.595C225.925 209.759 226.001 209.943 226.039 210.137C226.078 210.331 226.078 210.53 226.039 210.723C226.001 210.917 225.924 211.101 225.815 211.265C225.705 211.429 225.564 211.57 225.4 211.68C220.673 214.835 217.392 219.738 216.28 225.312C215.168 230.885 216.315 236.672 219.47 241.4C219.691 241.73 219.772 242.135 219.695 242.525C219.619 242.915 219.39 243.258 219.06 243.48C218.811 243.646 218.519 243.737 218.22 243.74Z" fill="white"/>
<path d="M224.58 239.49C224.335 239.491 224.093 239.432 223.877 239.316C223.66 239.201 223.476 239.034 223.34 238.83C222.115 236.995 221.263 234.937 220.834 232.773C220.405 230.609 220.407 228.382 220.84 226.219C221.273 224.055 222.128 221.999 223.357 220.166C224.585 218.334 226.163 216.762 228 215.54C228.33 215.335 228.727 215.266 229.107 215.348C229.487 215.43 229.821 215.656 230.037 215.979C230.254 216.302 230.336 216.696 230.268 217.079C230.199 217.461 229.985 217.802 229.67 218.03C228.163 219.036 226.87 220.328 225.863 221.834C224.856 223.34 224.156 225.029 223.802 226.806C223.448 228.582 223.448 230.411 223.801 232.188C224.154 233.964 224.854 235.654 225.86 237.16C226.078 237.491 226.158 237.895 226.081 238.284C226.005 238.673 225.778 239.017 225.45 239.24C225.192 239.41 224.889 239.497 224.58 239.49Z" fill="white"/>
<path d="M298.35 269.09C298.015 269.089 297.689 268.976 297.426 268.768C297.162 268.561 296.976 268.271 296.896 267.945C296.817 267.619 296.849 267.276 296.987 266.971C297.126 266.665 297.363 266.415 297.66 266.26C304.511 262.72 309.677 256.605 312.021 249.258C314.364 241.911 313.695 233.934 310.16 227.08C310.052 226.904 309.982 226.708 309.954 226.504C309.926 226.299 309.94 226.092 309.996 225.893C310.051 225.695 310.147 225.51 310.278 225.35C310.408 225.19 310.57 225.059 310.753 224.965C310.936 224.87 311.137 224.815 311.343 224.801C311.549 224.788 311.755 224.817 311.949 224.887C312.143 224.957 312.32 225.066 312.47 225.208C312.62 225.349 312.739 225.52 312.82 225.71C314.751 229.455 315.925 233.544 316.276 237.743C316.627 241.942 316.147 246.169 314.863 250.183C313.58 254.196 311.518 257.918 308.797 261.135C306.075 264.351 302.746 267 299 268.93C298.797 269.029 298.576 269.084 298.35 269.09Z" fill="white"/>
<path d="M294.84 262.3C294.505 262.299 294.179 262.186 293.916 261.979C293.652 261.771 293.466 261.481 293.386 261.155C293.307 260.829 293.339 260.486 293.477 260.181C293.616 259.875 293.853 259.625 294.15 259.47C296.652 258.18 298.876 256.409 300.693 254.259C302.511 252.109 303.886 249.622 304.742 246.939C305.597 244.257 305.916 241.432 305.678 238.627C305.441 235.822 304.653 233.091 303.36 230.59C303.177 230.236 303.142 229.824 303.263 229.444C303.384 229.064 303.651 228.748 304.005 228.565C304.359 228.382 304.771 228.347 305.151 228.468C305.531 228.589 305.847 228.856 306.03 229.21C307.504 232.061 308.401 235.174 308.671 238.372C308.941 241.569 308.578 244.789 307.603 247.846C306.628 250.904 305.06 253.739 302.988 256.19C300.917 258.641 298.382 260.659 295.53 262.13C295.318 262.243 295.08 262.302 294.84 262.3Z" fill="white"/>
<path d="M291.33 255.51C290.996 255.505 290.673 255.388 290.412 255.18C290.151 254.971 289.966 254.682 289.887 254.357C289.808 254.032 289.839 253.69 289.976 253.385C290.112 253.08 290.345 252.828 290.64 252.67C292.25 251.841 293.681 250.704 294.85 249.321C296.02 247.939 296.906 246.34 297.456 244.615C298.007 242.89 298.212 241.073 298.06 239.269C297.908 237.465 297.402 235.708 296.57 234.1C296.387 233.746 296.352 233.334 296.473 232.954C296.594 232.574 296.861 232.258 297.215 232.075C297.569 231.892 297.981 231.857 298.361 231.978C298.741 232.099 299.057 232.366 299.24 232.72C301.275 236.68 301.656 241.287 300.298 245.527C298.941 249.768 295.956 253.297 292 255.34C291.792 255.447 291.563 255.505 291.33 255.51Z" fill="white"/>
<path d="M189.662 198.149H183.93C183.781 198.153 183.638 198.209 183.527 198.308C183.416 198.407 183.343 198.542 183.322 198.69L182.121 210.125C182.113 210.194 182.119 210.264 182.14 210.33C182.16 210.396 182.195 210.458 182.241 210.509C182.287 210.561 182.344 210.603 182.407 210.631C182.471 210.659 182.54 210.673 182.609 210.673H188.342C188.492 210.669 188.635 210.611 188.747 210.511C188.858 210.411 188.93 210.274 188.95 210.125L190.15 198.69C190.159 198.621 190.153 198.551 190.132 198.485C190.111 198.42 190.077 198.359 190.03 198.308C189.984 198.256 189.927 198.216 189.864 198.188C189.8 198.161 189.732 198.148 189.662 198.149Z" fill="#F2C344"/>
<path opacity="0.4" d="M189.145 198.149H183.93C183.781 198.153 183.638 198.209 183.527 198.308C183.416 198.407 183.343 198.542 183.322 198.69L182.121 210.125C182.113 210.194 182.119 210.264 182.14 210.33C182.16 210.396 182.195 210.458 182.241 210.509C182.287 210.561 182.344 210.603 182.407 210.631C182.471 210.659 182.54 210.673 182.609 210.673H187.862C188.011 210.668 188.153 210.611 188.263 210.51C188.374 210.41 188.444 210.273 188.462 210.125L189.662 198.69C189.673 198.618 189.667 198.545 189.646 198.476C189.624 198.407 189.586 198.344 189.536 198.292C189.486 198.24 189.425 198.2 189.357 198.175C189.289 198.151 189.217 198.142 189.145 198.149Z" fill="white"/>
<path d="M160.931 409.6C161.682 409.6 162.432 409.487 162.695 409.142C162.759 409.049 162.793 408.939 162.793 408.827C162.793 408.714 162.759 408.604 162.695 408.512C162.585 408.344 162.417 408.223 162.222 408.174C161.202 407.896 159.131 409.112 159.041 409.165C159.017 409.179 158.999 409.201 158.988 409.226C158.977 409.252 158.975 409.28 158.981 409.307C158.986 409.337 159.001 409.364 159.022 409.386C159.043 409.407 159.071 409.422 159.101 409.427C159.705 409.536 160.317 409.594 160.931 409.6ZM161.847 408.422C161.939 408.41 162.032 408.41 162.125 408.422C162.244 408.451 162.348 408.523 162.417 408.624C162.522 408.804 162.492 408.894 162.417 408.939C162.155 409.337 160.616 409.345 159.483 409.187C160.211 408.774 161.015 408.514 161.847 408.422Z" fill="#F2C344"/>
<path d="M159.085 409.427H159.146C159.896 409.097 161.262 407.784 161.119 407.094C161.119 406.936 160.961 406.733 160.564 406.696C160.423 406.68 160.28 406.694 160.145 406.735C160.01 406.776 159.884 406.845 159.776 406.936C159.025 407.574 158.943 409.187 158.935 409.277C158.934 409.303 158.94 409.33 158.952 409.353C158.964 409.377 158.981 409.397 159.003 409.412C159.028 409.425 159.057 409.43 159.085 409.427ZM160.466 406.966H160.549C160.811 406.966 160.834 407.094 160.834 407.124C160.924 407.536 159.978 408.572 159.251 409.022C159.296 408.333 159.559 407.677 160.001 407.146C160.131 407.035 160.295 406.971 160.466 406.966Z" fill="#F2C344"/>
<path d="M158.47 395.215H152.392V409.285H158.47V395.215Z" fill="#FF8B7B"/>
<path d="M108.316 402.576L114.387 403.237L118.341 389.58L112.271 388.92L108.316 402.576Z" fill="#FF8B7B"/>
<path d="M117.208 404.61C117.958 404.805 118.709 404.887 119.046 404.61C119.129 404.533 119.185 404.432 119.207 404.322C119.228 404.211 119.214 404.097 119.167 403.995C119.136 403.901 119.087 403.814 119.022 403.74C118.958 403.665 118.879 403.604 118.791 403.559C117.853 403.042 115.527 403.694 115.43 403.717C115.401 403.725 115.376 403.741 115.357 403.764C115.338 403.787 115.327 403.815 115.325 403.844C115.325 403.874 115.333 403.904 115.349 403.929C115.365 403.954 115.388 403.974 115.415 403.987C115.994 404.245 116.594 404.454 117.208 404.61ZM118.394 403.709C118.485 403.731 118.573 403.764 118.656 403.807C118.767 403.86 118.854 403.954 118.896 404.07C118.956 404.272 118.896 404.347 118.896 404.392C118.536 404.7 117.028 404.332 115.955 403.897C116.748 403.679 117.577 403.618 118.394 403.717V403.709Z" fill="#F2C344"/>
<path d="M115.445 404.002H115.505C116.255 403.859 117.981 402.944 118.011 402.254C118.011 402.089 117.951 401.864 117.568 401.728C117.433 401.68 117.29 401.659 117.147 401.667C117.004 401.674 116.864 401.711 116.735 401.773C115.85 402.201 115.355 403.747 115.332 403.807C115.32 403.829 115.313 403.853 115.313 403.878C115.313 403.903 115.32 403.928 115.332 403.95C115.345 403.967 115.362 403.981 115.382 403.99C115.401 404 115.423 404.004 115.445 404.002ZM117.396 401.984H117.486C117.733 402.074 117.726 402.179 117.726 402.209C117.726 402.629 116.525 403.387 115.7 403.634C115.908 402.985 116.318 402.42 116.87 402.021C117.035 401.946 117.222 401.932 117.396 401.984Z" fill="#F2C344"/>
<path d="M114.709 402.674L108.069 400.768C107.955 400.734 107.832 400.741 107.723 400.787C107.613 400.834 107.523 400.917 107.468 401.023L105.022 405.878C104.965 406.001 104.936 406.135 104.936 406.27C104.937 406.406 104.967 406.54 105.025 406.662C105.083 406.785 105.167 406.893 105.272 406.979C105.377 407.065 105.499 407.127 105.63 407.161C107.956 407.784 109.119 407.979 112.038 408.812C113.831 409.33 117.486 410.575 119.969 411.288C122.453 412.001 123.369 409.667 122.408 409.157C118.101 406.868 116.72 405.023 115.58 403.312C115.375 403.002 115.066 402.776 114.709 402.674Z" fill="#263238"/>
<path d="M158.403 408.579H151.769C151.65 408.578 151.534 408.62 151.443 408.697C151.352 408.774 151.292 408.882 151.274 408.999L150.306 414.364C150.285 414.498 150.292 414.635 150.329 414.766C150.365 414.897 150.429 415.018 150.517 415.121C150.605 415.225 150.714 415.308 150.837 415.365C150.96 415.422 151.094 415.452 151.229 415.453C153.623 415.408 157.074 415.265 160.083 415.265C163.603 415.265 165.523 415.46 169.65 415.46C172.142 415.46 172.727 412.939 171.669 412.706C166.874 411.671 164.105 411.558 159.888 409.022C159.44 408.747 158.928 408.594 158.403 408.579Z" fill="#263238"/>
<path opacity="0.2" d="M158.47 395.215H152.392V402.471H158.47V395.215Z" fill="black"/>
<path opacity="0.2" d="M112.271 388.927L118.341 389.58L116.143 397.159L110.23 395.966L112.271 388.927Z" fill="black"/>
<path d="M148.475 255.289C148.475 255.289 145.121 301.166 142.12 318.559C138.811 337.611 119.557 395.943 119.557 395.943L108.526 393.925C108.526 393.925 122.43 339.149 123.969 320.285C125.642 299.815 127.653 257.623 127.653 257.623L148.475 255.289Z" fill="#18388F"/>
<path opacity="0.3" d="M142.825 274.348C143.426 271.827 144.806 275.001 146.412 280.501C145.196 294.112 143.613 309.877 142.097 318.566C141.76 320.51 141.249 322.866 140.597 325.537C141.174 306.118 141.197 281.169 142.825 274.348Z" fill="black"/>
<path d="M159.933 254.043C159.933 254.043 164.338 300.16 164.488 318.687C164.646 337.963 160.676 401.068 160.676 401.068H150.374C150.374 401.068 147.282 339.089 145.999 320.157C144.596 299.522 138.691 256.377 138.691 256.377L159.933 254.043Z" fill="#18388F"/>
<path d="M121.86 392.229C121.905 392.229 120.127 396.228 120.127 396.228L107.716 393.977L108.466 390.263L121.86 392.229Z" fill="#263238"/>
<path d="M162.477 396.964C162.522 396.964 162.079 401.241 162.079 401.241H149.563L149.053 397.429L162.477 396.964Z" fill="#263238"/>
<path d="M127.953 212.939C127.128 214.537 126.22 216.218 125.394 217.876L122.873 222.874C122.055 224.539 121.252 226.213 120.48 227.886C119.707 229.559 118.979 231.225 118.356 232.891L118.296 230.265C118.735 231.613 119.261 232.932 119.872 234.211C120.164 234.872 120.54 235.502 120.862 236.155C121.185 236.808 121.613 237.43 121.995 238.046C122.791 239.318 123.653 240.547 124.576 241.73C125.042 242.323 125.507 242.931 126.002 243.501C126.497 244.071 127.038 244.664 127.503 245.152L127.653 245.317C127.999 245.696 128.198 246.187 128.215 246.7C128.232 247.213 128.066 247.715 127.746 248.117C127.427 248.519 126.974 248.794 126.471 248.892C125.967 248.991 125.444 248.907 124.997 248.656C124.221 248.219 123.47 247.741 122.746 247.223C121.995 246.727 121.335 246.21 120.66 245.662C119.308 244.553 118.039 243.347 116.863 242.053C115.662 240.738 114.571 239.327 113.599 237.836C112.6 236.316 111.731 234.714 111.003 233.048C110.681 232.341 110.625 231.542 110.845 230.797L110.95 230.445C111.52 228.486 112.158 226.588 112.863 224.727C113.569 222.866 114.319 221.043 115.114 219.249C115.91 217.456 116.743 215.685 117.621 213.937C118.499 212.188 119.384 210.478 120.397 208.729C120.957 207.729 121.889 206.99 122.991 206.672C124.092 206.355 125.275 206.485 126.281 207.035C127.287 207.584 128.036 208.509 128.365 209.607C128.693 210.706 128.575 211.89 128.036 212.901L127.953 212.939Z" fill="#FF8B7B"/>
<path d="M132.26 210.268C132.56 215.993 126.062 226.505 126.062 226.505L112.683 219.82C114.309 215.078 116.825 210.689 120.097 206.891C127.173 199.072 131.983 205.015 132.26 210.268Z" fill="#E2EDFF"/>
<path d="M123.196 247.583L125.89 252.085L131.495 248.498C130.516 246.744 128.983 245.364 127.135 244.574C126.708 244.437 126.246 244.459 125.833 244.633C125.42 244.808 125.083 245.125 124.884 245.527L123.196 247.583Z" fill="#FF8B7B"/>
<path d="M128.133 254.006L130.737 253.518C130.956 253.478 131.165 253.394 131.352 253.272C131.539 253.151 131.699 252.993 131.825 252.809C131.951 252.625 132.038 252.418 132.083 252.199C132.129 251.981 132.13 251.756 132.088 251.537L131.495 248.536L125.89 252.122L126.265 253.03C126.418 253.382 126.687 253.67 127.027 253.847C127.367 254.025 127.757 254.081 128.133 254.006Z" fill="#FF8B7B"/>
<path d="M143.943 181.499C143.996 181.987 144.304 182.369 144.619 182.339C144.934 182.309 145.144 181.897 145.084 181.409C145.024 180.921 144.724 180.538 144.409 180.561C144.093 180.583 143.883 181.004 143.943 181.499Z" fill="#263238"/>
<path d="M144.259 182.369C145.017 183.827 145.963 185.179 147.072 186.391C146.322 187.269 144.821 187.014 144.821 187.014L144.259 182.369Z" fill="#FF5652"/>
<path d="M141.842 178.91C141.881 178.916 141.921 178.913 141.959 178.901C141.996 178.89 142.031 178.87 142.06 178.843C142.32 178.599 142.636 178.423 142.98 178.33C143.324 178.237 143.686 178.23 144.033 178.31C144.069 178.321 144.106 178.325 144.143 178.321C144.18 178.318 144.216 178.306 144.248 178.288C144.281 178.269 144.309 178.245 144.332 178.215C144.354 178.185 144.37 178.151 144.378 178.115C144.397 178.04 144.387 177.961 144.349 177.894C144.311 177.827 144.249 177.777 144.176 177.755C143.737 177.65 143.279 177.654 142.843 177.766C142.406 177.879 142.003 178.096 141.67 178.4C141.642 178.427 141.619 178.459 141.604 178.494C141.589 178.53 141.581 178.568 141.581 178.606C141.581 178.645 141.589 178.683 141.604 178.719C141.619 178.754 141.642 178.786 141.67 178.813C141.69 178.84 141.716 178.862 141.746 178.879C141.776 178.896 141.808 178.906 141.842 178.91Z" fill="#263238"/>
<path d="M128.816 186.931C130.249 191.276 132.155 199.282 129.439 202.494C129.439 202.494 131.225 206.868 139.449 206.171C148.506 205.42 143.2 201.331 143.2 201.331C138.113 200.58 137.768 196.911 138.188 193.407L128.816 186.931Z" fill="#FF8B7B"/>
<path d="M127.496 204.077C126.648 202.719 125.702 201.166 127.308 200.588C129.071 199.95 138.976 198.915 142.503 199.785C146.029 200.656 145.309 203.537 145.309 203.537L127.496 204.077Z" fill="#E2EDFF"/>
<path d="M156.497 205.908C157.787 207.094 159.183 208.407 160.571 209.607C161.959 210.808 163.362 212.038 164.773 213.224C166.184 214.41 167.625 215.528 169.073 216.616C170.521 217.704 171.992 218.694 173.462 219.617L170.461 219.332C171.708 218.999 172.889 218.453 173.95 217.719C175.19 216.852 176.341 215.864 177.387 214.77C178.513 213.617 179.568 212.397 180.546 211.115C181.048 210.463 181.551 209.802 182.046 209.12C182.542 208.437 182.992 207.716 183.405 207.086L183.487 206.966C183.772 206.531 184.204 206.212 184.704 206.069C185.204 205.926 185.739 205.967 186.211 206.186C186.684 206.404 187.062 206.785 187.276 207.259C187.491 207.733 187.528 208.268 187.381 208.767C187.096 209.742 186.796 210.575 186.451 211.446C186.106 212.316 185.746 213.171 185.34 214.012C184.519 215.726 183.558 217.37 182.467 218.927C181.321 220.577 179.986 222.088 178.49 223.429C176.833 224.908 174.911 226.059 172.824 226.82C172.377 226.978 171.902 227.046 171.428 227.019C170.954 226.991 170.49 226.871 170.063 226.663L169.816 226.535C167.952 225.62 166.144 224.597 164.398 223.474C162.695 222.371 161.044 221.223 159.453 219.992C157.862 218.762 156.324 217.516 154.823 216.24C153.323 214.965 151.882 213.629 150.419 212.136C149.64 211.324 149.206 210.242 149.208 209.117C149.21 207.992 149.648 206.911 150.429 206.102C151.21 205.292 152.275 204.817 153.399 204.775C154.523 204.733 155.62 205.129 156.459 205.878L156.497 205.908Z" fill="#FF8B7B"/>
<path d="M151.912 202.014C151.912 202.014 159.476 209.352 160.354 254.741C148.258 257.675 136.62 258.756 127.631 257.615C127.203 251.92 126.565 232.155 120.787 211.318C120.539 210.44 120.476 209.521 120.602 208.617C120.728 207.714 121.041 206.847 121.52 206.071C121.999 205.295 122.634 204.627 123.385 204.109C124.136 203.591 124.987 203.236 125.882 203.064C127.03 202.839 128.238 202.636 129.439 202.479C134 201.826 138.595 201.438 143.201 201.316C146.117 201.34 149.029 201.573 151.912 202.014Z" fill="#3AAEEF"/>
<path d="M146.044 209.922C146.795 215.603 156.549 226.52 156.549 226.52L168.127 214.515C164.688 210.904 160.97 207.569 157.007 204.542C148.52 198.202 145.369 204.655 146.044 209.922Z" fill="#E2EDFF"/>
<path d="M186.631 210.763L190.503 207.214L185.866 202.449C184.332 203.755 183.276 205.534 182.864 207.506C182.819 207.957 182.938 208.409 183.2 208.779C183.462 209.148 183.849 209.411 184.29 209.517L186.631 210.763Z" fill="#FF8B7B"/>
<path d="M191.929 204.632L190.931 202.179C190.846 201.968 190.72 201.777 190.56 201.616C190.401 201.455 190.21 201.327 190 201.241C189.79 201.155 189.565 201.112 189.338 201.115C189.112 201.117 188.888 201.165 188.68 201.256L185.836 202.449L190.473 207.214L191.283 206.666C191.608 206.453 191.85 206.134 191.968 205.764C192.085 205.393 192.072 204.994 191.929 204.632Z" fill="#FF8B7B"/>
<path d="M127.66 181.754C128.748 187.757 129.079 191.314 132.455 194.172C137.535 198.472 144.543 195.125 145.211 188.995C145.842 183.472 143.958 174.581 137.85 172.645C131.742 170.709 126.572 175.751 127.66 181.754Z" fill="#FF8B7B"/>
<path d="M139.494 183.915C141.602 184.395 143.245 181.957 143.471 181.266C142.443 181.364 140.619 180.839 140.259 180.373C141.385 180.471 142.473 179.083 142.608 178.55C141.413 178.319 140.356 177.633 139.659 176.637C141.482 176.599 143.673 173.388 141.67 170.514C139.666 167.64 131.292 170.048 130.114 168C128.358 169.02 129.919 170.379 129.919 170.379C129.919 170.379 118.071 172.63 123.534 177.199C119.527 177.56 118.964 182.294 122.303 184.703C125.642 187.112 125.815 188.702 124.486 188.507C125.019 189.528 127.398 189.663 127.533 188.672C128.096 190.751 129.716 193.565 133.453 193.107C137.19 192.649 140.852 187.419 139.494 183.915Z" fill="#263238"/>
<path d="M124.569 176.502C121.748 176.892 120.465 175.301 121.17 173.898C117.673 175.684 121.493 179.631 124.569 176.502Z" fill="#263238"/>
<path d="M136.575 183C137.06 184.257 137.919 185.336 139.036 186.091C140.537 187.082 141.895 186.091 141.64 184.59C141.407 183.21 140.349 181.026 138.788 180.636C138.465 180.53 138.118 180.518 137.789 180.603C137.459 180.687 137.16 180.864 136.928 181.112C136.695 181.36 136.539 181.67 136.476 182.004C136.413 182.339 136.448 182.684 136.575 183Z" fill="#FF8B7B"/>
</svg>
