<svg width="497" height="448" viewBox="0 0 497 448" fill="none" xmlns="http://www.w3.org/2000/svg">
<g clip-path="url(#clip0_64_649)">
<mask id="mask0_64_649" style="mask-type:luminance" maskUnits="userSpaceOnUse" x="0" y="0" width="497" height="448">
<path d="M496.864 0H0.84082V448H496.864V0Z" fill="white"/>
</mask>
<g mask="url(#mask0_64_649)">
<g opacity="0.25">
<path d="M378.9 348.075C365.171 340.916 345.913 338.447 328.404 340.665L390.535 308.054C397.321 304.492 397.285 298.716 390.454 295.155L248.242 220.998C241.411 217.437 230.373 217.437 223.586 220.998L174.99 246.506C153.963 238.121 123.873 238.937 104.756 248.971C85.6391 259.006 84.155 274.761 100.248 285.735L82.2979 295.157C75.5113 298.718 75.548 304.493 82.3783 308.055L224.591 382.212C231.421 385.774 242.46 385.774 249.246 382.212L289.154 361.265C284.965 370.436 289.739 380.509 303.468 387.668C324.433 398.6 358.343 398.6 379.171 387.668C399.999 376.736 399.865 359.007 378.9 348.075Z" fill="#87AEDD"/>
</g>
<path d="M164.405 266.178C163.844 271.806 157.98 275.629 152.689 277.688C146.927 279.931 140.591 280.835 134.339 280.763C127.958 280.688 121.443 279.587 115.689 277.03C110.668 274.799 105.339 270.751 105.356 265.246C105.344 269.254 105.655 272.567 108.853 275.697C112.971 279.726 119.17 281.895 125.002 282.983C136.378 285.105 151.87 284.08 160.513 276.169C163.99 272.986 164.464 269.631 164.478 265.398C164.466 265.66 164.441 265.919 164.405 266.178Z" fill="#ADCDFC"/>
<path d="M155.745 254.379C167.326 260.418 167.4 270.211 155.895 276.25C144.389 282.289 125.656 282.289 114.075 276.25C102.494 270.211 102.446 260.418 113.952 254.379C125.458 248.34 144.164 248.34 155.745 254.379Z" fill="#E2EDFF"/>
<path d="M140.184 242.172L140.111 265.511L135.591 267.883L135.663 244.544L140.184 242.172Z" fill="#C7D8F2"/>
<path d="M135.663 244.544L135.59 267.883L131.04 265.511L131.113 242.172L135.663 244.544Z" fill="#7BAEFF"/>
<path d="M140.184 242.172L135.663 244.545L131.113 242.172L135.633 239.799L140.184 242.172Z" fill="#4DA5DC"/>
<path d="M106.262 166.5C106.262 166.5 96.9959 168.731 94.5257 173.752C92.0546 178.774 92.6726 216.71 105.645 232.331C118.617 247.952 142.705 250.184 148.265 247.952C153.824 245.72 185.944 231.216 188.415 223.963C190.886 216.711 178.532 211.131 171.738 208.342C164.943 205.552 160.619 201.648 156.913 191.605C153.206 181.563 151.354 164.268 147.03 161.479C142.705 158.69 132.205 154.227 106.262 166.5Z" fill="#3AAEEF"/>
<path d="M164.405 266.178C163.844 271.806 157.98 275.629 152.689 277.688C146.927 279.931 140.591 280.835 134.339 280.763C127.958 280.688 121.443 279.587 115.689 277.03C110.668 274.799 105.339 270.751 105.356 265.246C105.344 269.254 105.655 272.567 108.853 275.697C112.971 279.726 119.17 281.895 125.002 282.983C136.378 285.105 151.87 284.08 160.513 276.169C163.99 272.986 164.464 269.631 164.478 265.398C164.466 265.66 164.441 265.919 164.405 266.178Z" fill="#ADCDFC"/>
<path d="M155.745 254.379C167.326 260.418 167.4 270.211 155.895 276.25C144.389 282.289 125.656 282.289 114.075 276.25C102.494 270.211 102.446 260.418 113.952 254.379C125.458 248.34 144.164 248.34 155.745 254.379Z" fill="#E2EDFF"/>
<path d="M140.184 242.172L140.111 265.511L135.591 267.883L135.663 244.544L140.184 242.172Z" fill="#C7D8F2"/>
<path d="M135.663 244.544L135.59 267.883L131.04 265.511L131.113 242.172L135.663 244.544Z" fill="#7BAEFF"/>
<path d="M140.184 242.172L135.663 244.545L131.113 242.172L135.633 239.799L140.184 242.172Z" fill="#4DA5DC"/>
<path d="M106.262 166.5C106.262 166.5 96.9959 168.731 94.5257 173.752C92.0546 178.774 92.6726 216.71 105.645 232.331C118.617 247.952 142.705 250.184 148.265 247.952C153.824 245.72 185.944 231.216 188.415 223.963C190.886 216.711 178.532 211.131 171.738 208.342C164.943 205.552 160.619 201.648 156.913 191.605C153.206 181.563 151.354 164.268 147.03 161.479C142.705 158.69 132.205 154.227 106.262 166.5Z" fill="#3AAEEF"/>
<path d="M161.644 156.406C161.644 156.406 146.444 145.042 143.353 144.777C139.645 144.516 135.019 145.654 133.812 150.402C132.604 155.15 135.405 158.762 138.193 160.144C140.98 161.526 165.44 172.009 169.765 171.988C174.088 171.967 176.848 168.607 174.044 164.437C171.24 160.266 161.644 156.406 161.644 156.406Z" fill="#E1E8F2"/>
<path d="M122.492 142.857C122.492 142.857 107.528 153.557 106.176 156.954C104.823 160.352 105 169.634 108.534 175.668C112.067 181.703 112.14 204.483 113.534 208.877C114.927 213.271 128.278 214.083 136.414 212.283C144.55 210.483 157.473 204.33 154.876 195.988C151.04 183.67 151.952 171.261 152.26 167.341C152.57 163.42 151.468 153.659 149.107 147.187C148.609 145.821 143.279 143.914 143.279 143.914C143.279 143.914 137.75 141.591 122.492 142.857Z" fill="#0046A6"/>
<path d="M125.204 193.837C119.026 186.77 128.087 162.595 117.38 155.901C114.115 153.859 111.311 153.343 108.989 153.608C107.553 154.968 106.49 156.162 106.174 156.955C104.822 160.353 105 169.634 108.534 175.668C112.067 181.703 112.139 204.483 113.532 208.877C114.801 212.877 125.969 213.901 134.101 212.696L145.794 201.648C145.794 201.648 131.38 200.904 125.204 193.837Z" fill="#003783"/>
<path d="M121.985 144.67C134.994 143.59 140.981 145.612 142.468 146.233C142.696 148.597 142.804 151.721 142.28 154.578C141.261 160.131 138.812 175.387 138.812 175.387C138.812 175.387 130.785 162.853 125.501 157.694C121.782 154.064 118.12 150.644 116.272 148.931C119.39 146.527 121.985 144.67 121.985 144.67Z" fill="#E1E8F2"/>
<path d="M135.369 142.182C135.369 142.182 135.338 142.357 135.399 142.633C135.626 143.652 136.335 146.253 136.5 147.346C136.659 148.392 135.438 150.272 132.292 150.354C129.145 150.437 123.749 149.487 121.789 146.183C121.9 145.576 121.334 139.322 120.722 136.219L135.369 142.182Z" fill="#FF8654"/>
<path d="M140.627 157.681L134.828 153.042L130.189 160.374L125.512 157.707C130.796 162.872 138.811 175.387 138.811 175.387C138.811 175.387 140.854 162.662 141.984 156.226L140.627 157.681Z" fill="#CFDAE4"/>
<path d="M140.229 166.666L137.645 158.429L138.035 155.607L134.828 153.042L132.578 156.599L135.159 158.728L135.862 170.958C137.622 173.531 138.811 175.387 138.811 175.387C138.811 175.387 139.46 171.346 140.229 166.666Z" fill="#00A5FF"/>
<path d="M114.498 208.994C114.498 208.994 115.116 211.225 115.116 213.177C115.116 215.13 113.571 220.709 116.659 227.404C119.747 234.099 140.441 235.494 147.235 238.283C154.03 241.073 158.045 243.583 159.281 244.42C160.516 245.257 162.267 257.065 167.62 264.132C172.973 271.199 182.032 285.332 184.092 291.283C184.092 291.283 189.95 292.532 195.209 289.423C197.963 287.796 197.681 286.82 197.681 286.82C197.681 286.82 186.975 265.619 184.503 256.693C182.032 247.767 179.149 237.353 174.62 234.749C170.09 232.146 155.677 222.849 152.383 220.989C149.088 219.129 140.21 213.249 138.472 209.68C136.734 206.112 119.851 200.347 114.498 208.994Z" fill="#94A3C0"/>
<path d="M131.484 199.788C131.484 199.788 132.102 202.019 132.102 203.972C132.102 205.924 130.558 211.504 133.646 218.199C136.734 224.893 157.427 226.289 164.222 229.078C171.016 231.867 175.032 234.378 176.267 235.214C177.502 236.051 179.253 247.86 184.606 254.926C189.96 261.993 199.019 276.126 201.078 282.077C201.078 282.077 206.936 283.326 212.196 280.218C214.95 278.591 214.667 277.614 214.667 277.614C214.667 277.614 203.961 256.414 201.49 247.488C199.019 238.562 196.136 228.148 191.606 225.544C187.077 222.94 172.664 213.642 169.37 211.782C166.075 209.922 157.197 204.044 155.459 200.475C153.721 196.906 136.837 191.141 131.484 199.788Z" fill="#94A3C0"/>
<path d="M212.505 275.662C212.505 275.662 212.3 278.451 215.594 280.496C218.889 282.542 219.506 283.843 222.182 284.773C224.859 285.703 227.33 288.864 226.095 291.096C224.86 293.328 219.094 293.7 215.388 292.77C211.681 291.84 211.063 288.864 207.563 287.749C204.064 286.633 202.828 285.331 201.799 284.401C200.769 283.471 201.181 279.753 201.181 279.753L213.741 276.033" fill="#382747"/>
<path d="M196.446 286.448C196.446 286.448 196.239 289.237 199.534 291.283C202.828 293.328 203.445 294.629 206.122 295.559C208.799 296.489 211.27 299.651 210.035 301.882C208.8 304.114 203.034 304.486 199.327 303.556C195.621 302.626 195.003 299.65 191.503 298.535C188.003 297.419 186.768 296.117 185.738 295.187C184.709 294.257 185.12 290.539 185.12 290.539L197.681 286.82" fill="#382747"/>
<path d="M214.868 270.321L214.69 327.053L203.701 332.82L203.879 276.089L214.868 270.321Z" fill="#C7D8F2"/>
<path d="M203.879 276.088L203.701 332.82L192.641 327.053L192.819 270.321L203.879 276.088Z" fill="#7BAEFF"/>
<path d="M214.868 270.321L203.879 276.088L192.819 270.321L203.808 264.553L214.868 270.321Z" fill="#4DA5DC"/>
<path d="M395.556 231.459C395.54 231.624 395.528 231.789 395.494 231.954C395.466 232.089 395.421 232.224 395.382 232.358C395.336 232.515 395.294 232.672 395.233 232.827C395.182 232.956 395.115 233.084 395.053 233.212C394.974 233.376 394.896 233.54 394.798 233.702C394.728 233.819 394.645 233.935 394.565 234.051C394.439 234.236 394.305 234.42 394.156 234.601C394.011 234.775 393.862 234.95 393.695 235.12C393.656 235.161 393.622 235.202 393.581 235.241C393.357 235.463 393.108 235.679 392.846 235.893C392.678 236.029 392.493 236.16 392.31 236.292C392.15 236.409 391.996 236.526 391.823 236.639C391.626 236.769 391.409 236.893 391.195 237.018C390.976 237.146 390.769 237.278 390.534 237.402L249.245 311.56C248.083 312.17 246.795 312.676 245.425 313.078C244.367 313.388 243.26 313.635 242.124 313.82C241.393 313.939 240.651 314.032 239.901 314.099C239.26 314.156 238.615 314.196 237.968 314.216C237.373 314.234 236.777 314.237 236.182 314.224C235.608 314.211 235.034 314.182 234.465 314.14L234.436 323.236C235.005 323.278 235.579 323.306 236.153 323.319C236.748 323.332 237.345 323.33 237.939 323.311C238.587 323.291 239.232 323.252 239.872 323.194C240.622 323.127 241.364 323.034 242.096 322.915C243.232 322.73 244.339 322.483 245.396 322.173C246.766 321.772 248.054 321.266 249.217 320.656L390.505 246.498C390.576 246.46 390.648 246.422 390.718 246.384C390.877 246.298 391.013 246.204 391.164 246.115C391.378 245.989 391.597 245.865 391.795 245.734C391.967 245.621 392.121 245.505 392.281 245.388C392.464 245.256 392.651 245.124 392.818 244.988C392.852 244.96 392.893 244.935 392.925 244.907C393.15 244.721 393.356 244.529 393.551 244.337C393.592 244.296 393.628 244.255 393.667 244.215C393.784 244.096 393.902 243.978 394.007 243.857C394.052 243.804 394.083 243.75 394.127 243.697C394.277 243.516 394.411 243.332 394.537 243.148C394.589 243.07 394.66 242.994 394.708 242.916C394.733 242.877 394.747 242.837 394.771 242.797C394.867 242.635 394.945 242.471 395.025 242.307C395.07 242.211 395.134 242.118 395.173 242.021C395.187 241.989 395.191 241.955 395.204 241.923C395.266 241.767 395.308 241.61 395.354 241.452C395.385 241.347 395.43 241.242 395.454 241.135C395.46 241.107 395.459 241.078 395.465 241.05C395.499 240.885 395.512 240.719 395.529 240.554C395.539 240.446 395.566 240.339 395.569 240.231C395.57 240.185 395.571 240.139 395.571 240.093L395.6 230.998C395.6 231.152 395.572 231.305 395.556 231.459Z" fill="#ADCDFC"/>
<path d="M232.77 313.97C232.188 313.896 231.61 313.804 231.041 313.698C230.424 313.582 229.817 313.449 229.223 313.295C228.496 313.108 227.788 312.893 227.106 312.65C226.22 312.335 225.378 311.971 224.591 311.561L82.3782 237.403C78.9407 235.611 77.2255 233.258 77.2324 230.909L77.2036 240.005C77.1967 242.355 78.9129 244.708 82.3504 246.5L224.562 320.656C225.349 321.066 226.191 321.43 227.077 321.746C227.76 321.988 228.468 322.204 229.195 322.391C229.789 322.544 230.396 322.678 231.014 322.794C231.582 322.901 232.159 322.991 232.742 323.065C233.302 323.137 233.868 323.194 234.436 323.237L234.465 314.14C233.895 314.098 233.331 314.042 232.77 313.97Z" fill="#ADCDFC"/>
<path d="M390.454 224.864C397.285 228.425 397.321 234.201 390.535 237.763L249.246 311.921C242.46 315.483 231.421 315.483 224.591 311.921L82.3783 237.764C75.548 234.202 75.5113 228.427 82.2979 224.866L223.586 150.707C230.373 147.146 241.411 147.146 248.242 150.707L390.454 224.864Z" fill="#E2EDFF"/>
<path d="M237.608 251.724L276.539 272.158L303.924 257.878L264.993 237.444L237.608 251.724Z" fill="white"/>
<path d="M270.695 246.639L264.571 249.854L256.815 247.79C258.979 245.552 264.207 244.663 268.491 245.803C269.348 246.031 270.015 246.284 270.695 246.639Z" fill="#FF5668"/>
<path d="M272.1 247.056C276.217 249.203 276.238 252.684 272.148 254.831C268.057 256.977 261.406 256.977 257.289 254.831C253.995 253.113 253.222 250.611 255.317 248.447L264.694 250.944L272.1 247.056Z" fill="#B391FF"/>
<path d="M266.468 262.335C266.127 262.514 266.125 262.797 266.464 262.975C266.804 263.153 267.345 263.153 267.687 262.975L285.065 253.913C285.407 253.735 285.409 253.451 285.069 253.273C284.73 253.095 284.188 253.095 283.847 253.273L266.468 262.335Z" fill="#ADCDFC"/>
<path d="M278.475 258.17C278.14 258.344 278.139 258.635 278.471 258.809C278.81 258.988 279.364 258.988 279.699 258.813L287.074 254.966C287.415 254.788 287.411 254.502 287.072 254.324C286.74 254.149 286.191 254.146 285.85 254.324L278.475 258.17Z" fill="#D4D9DF"/>
<path d="M276.186 261.327C275.845 261.506 275.837 261.791 276.177 261.97C276.516 262.148 277.063 262.145 277.405 261.967L288.945 255.949C289.286 255.771 289.288 255.488 288.949 255.31C288.61 255.131 288.068 255.131 287.727 255.31L276.186 261.327Z" fill="#D4D9DF"/>
<path d="M283.445 280.828C284.393 281.322 284.396 282.121 283.456 282.614L255.667 297.186C254.727 297.68 253.201 297.68 252.253 297.186L232.857 287.072C231.911 286.58 231.904 285.78 232.846 285.287L260.635 270.714C261.575 270.221 263.103 270.221 264.049 270.714L283.445 280.828Z" fill="#F2F8FD"/>
<path d="M284.151 281.791C284.149 281.814 284.147 281.837 284.143 281.859C284.139 281.878 284.133 281.897 284.128 281.916C284.121 281.938 284.115 281.96 284.107 281.981C284.1 281.999 284.09 282.016 284.082 282.034C284.071 282.057 284.06 282.08 284.046 282.102C284.036 282.118 284.025 282.134 284.015 282.15C283.997 282.176 283.978 282.202 283.957 282.227C283.945 282.241 283.931 282.256 283.918 282.271C283.888 282.304 283.853 282.337 283.816 282.369C283.802 282.381 283.789 282.394 283.775 282.405C283.753 282.424 283.727 282.443 283.702 282.461C283.679 282.477 283.658 282.493 283.635 282.509C283.607 282.527 283.577 282.544 283.547 282.561C283.517 282.579 283.488 282.597 283.455 282.614L255.666 297.187C255.561 297.242 255.447 297.289 255.329 297.332C255.298 297.342 255.267 297.353 255.235 297.364C255.162 297.388 255.084 297.407 255.008 297.427C254.929 297.446 254.849 297.466 254.767 297.481C254.671 297.499 254.574 297.515 254.474 297.527C254.451 297.53 254.427 297.533 254.402 297.536C254.268 297.549 254.132 297.555 253.996 297.556C253.975 297.556 253.954 297.557 253.933 297.557C253.799 297.556 253.665 297.548 253.532 297.536C253.512 297.534 253.492 297.532 253.472 297.53C253.34 297.515 253.211 297.496 253.085 297.47C253.062 297.465 253.038 297.46 253.015 297.454C252.9 297.428 252.788 297.398 252.68 297.362C252.66 297.356 252.64 297.351 252.621 297.344C252.491 297.298 252.368 297.247 252.253 297.187L232.857 287.072C232.5 286.886 232.275 286.657 232.187 286.417C232.157 286.337 232.143 286.255 232.143 286.174L232.136 287.179C232.136 287.219 232.139 287.261 232.147 287.301C232.199 287.585 232.433 287.861 232.85 288.078L252.246 298.193C252.355 298.25 252.472 298.3 252.595 298.344C252.601 298.347 252.608 298.347 252.614 298.349C252.633 298.356 252.654 298.361 252.673 298.367C252.744 298.391 252.815 298.415 252.889 298.434C252.929 298.444 252.968 298.451 253.008 298.46C253.031 298.465 253.055 298.47 253.078 298.475C253.098 298.479 253.119 298.486 253.141 298.489C253.219 298.504 253.3 298.516 253.38 298.527C253.409 298.53 253.437 298.532 253.465 298.535C253.485 298.538 253.505 298.539 253.525 298.541C253.555 298.544 253.585 298.547 253.614 298.55C253.693 298.556 253.772 298.56 253.851 298.562C253.876 298.563 253.901 298.562 253.926 298.562C253.948 298.562 253.968 298.561 253.99 298.561C254.026 298.561 254.062 298.562 254.097 298.561C254.187 298.558 254.277 298.553 254.365 298.545C254.375 298.544 254.386 298.542 254.396 298.541C254.42 298.539 254.444 298.535 254.467 298.532C254.536 298.524 254.604 298.517 254.672 298.506C254.703 298.502 254.73 298.492 254.76 298.487C254.842 298.471 254.922 298.453 255.001 298.432C255.043 298.421 255.088 298.415 255.129 298.403C255.163 298.393 255.196 298.38 255.228 298.369C255.26 298.358 255.292 298.349 255.323 298.337C255.441 298.294 255.555 298.247 255.66 298.193L283.449 283.619C283.459 283.614 283.469 283.609 283.479 283.604C283.502 283.592 283.521 283.579 283.541 283.566C283.57 283.549 283.601 283.532 283.628 283.514C283.651 283.498 283.673 283.482 283.695 283.466C283.721 283.447 283.746 283.429 283.77 283.41C283.774 283.407 283.779 283.402 283.784 283.399C283.794 283.391 283.8 283.383 283.809 283.375C283.846 283.342 283.881 283.309 283.911 283.275C283.918 283.268 283.927 283.261 283.934 283.254C283.94 283.247 283.945 283.239 283.951 283.232C283.972 283.207 283.99 283.181 284.008 283.155C284.015 283.144 284.024 283.135 284.031 283.124C284.034 283.118 284.036 283.112 284.039 283.107C284.052 283.084 284.064 283.062 284.075 283.04C284.082 283.026 284.09 283.013 284.096 282.999C284.098 282.995 284.098 282.99 284.1 282.986C284.109 282.964 284.115 282.943 284.121 282.921C284.125 282.907 284.132 282.892 284.135 282.876C284.136 282.873 284.135 282.869 284.136 282.866C284.141 282.842 284.143 282.819 284.145 282.797C284.147 282.781 284.15 282.767 284.15 282.752C284.15 282.746 284.15 282.739 284.15 282.733L284.157 281.728C284.157 281.749 284.153 281.77 284.151 281.791Z" fill="url(#paint0_linear_64_649)"/>
<path d="M280.58 281.146C280.883 281.304 280.885 281.561 280.582 281.721L254.206 295.565C253.903 295.723 253.411 295.723 253.108 295.566L235.635 286.455C235.331 286.296 235.33 286.038 235.632 285.88L262.008 272.036C262.311 271.877 262.804 271.877 263.108 272.036L280.58 281.146Z" fill="url(#paint1_linear_64_649)"/>
<path d="M151.13 198.167L190.061 218.601L217.446 204.32L178.515 183.886L151.13 198.167Z" fill="white"/>
<path d="M184.218 193.082L178.093 196.297L170.337 194.232C172.502 191.995 177.73 191.105 182.013 192.246C182.87 192.474 183.537 192.727 184.218 193.082Z" fill="#B391FF"/>
<path d="M185.622 193.499C189.739 195.645 189.76 199.126 185.67 201.273C181.58 203.42 174.928 203.42 170.811 201.273C167.517 199.555 166.745 197.054 168.839 194.89L178.217 197.386L185.622 193.499Z" fill="#05CCFF"/>
<path d="M179.991 208.778C179.649 208.956 179.647 209.239 179.987 209.418C180.326 209.596 180.868 209.596 181.209 209.418L198.587 200.356C198.929 200.177 198.931 199.894 198.591 199.716C198.252 199.537 197.711 199.537 197.369 199.716L179.991 208.778Z" fill="#ADCDFC"/>
<path d="M191.997 204.612C191.662 204.787 191.661 205.077 191.993 205.252C192.333 205.43 192.886 205.43 193.221 205.256L200.596 201.409C200.938 201.231 200.934 200.945 200.594 200.767C200.262 200.592 199.713 200.588 199.372 200.767L191.997 204.612Z" fill="#D4D9DF"/>
<path d="M189.711 207.77C189.369 207.948 189.36 208.235 189.7 208.413C190.039 208.592 190.587 208.588 190.928 208.41L202.468 202.392C202.81 202.214 202.812 201.931 202.472 201.752C202.133 201.574 201.591 201.574 201.25 201.752L189.711 207.77Z" fill="#05CCFF"/>
<path d="M213.74 261.151L213.733 263.264L208.339 266.095L208.346 263.982L213.74 261.151Z" fill="#540CC7"/>
<path d="M208.346 263.983L208.339 266.094L162.474 242.178L162.481 240.066L208.346 263.983Z" fill="#3F0995"/>
<path d="M213.74 261.151L208.347 263.982L162.481 240.066L167.875 237.235L213.74 261.151Z" fill="#7974F5"/>
<path d="M193.355 261.558L193.349 263.671L187.958 266.5L187.964 264.387L193.355 261.558Z" fill="#2689FD"/>
<path d="M187.965 264.387L187.958 266.5L151.929 247.713L151.936 245.6L187.965 264.387Z" fill="#3548DB"/>
<path d="M193.355 261.558L187.965 264.387L151.936 245.6L157.326 242.771L193.355 261.558Z" fill="#58AFFB"/>
<path d="M163.265 256.904L163.259 259.017L157.868 261.846L157.874 259.734L163.265 256.904Z" fill="#EE2C6A"/>
<path d="M157.875 259.735L157.868 261.846L141.381 253.249L141.388 251.137L157.875 259.735Z" fill="#EE428C"/>
<path d="M163.265 256.904L157.874 259.734L141.388 251.137L146.779 248.308L163.265 256.904Z" fill="#FF3D9D"/>
<path d="M126.878 245.236C126.341 245.517 126.338 245.964 126.872 246.244C127.406 246.525 128.26 246.525 128.798 246.244L156.191 231.959C156.729 231.679 156.733 231.232 156.198 230.951C155.664 230.671 154.809 230.671 154.272 230.951L126.878 245.236Z" fill="#ADCDFC"/>
<path d="M145.803 238.671C145.276 238.946 145.273 239.404 145.798 239.679C146.332 239.96 147.205 239.959 147.733 239.684L159.358 233.622C159.895 233.342 159.89 232.889 159.355 232.609C158.83 232.334 157.966 232.329 157.428 232.609L145.803 238.671Z" fill="#ADCDFC"/>
<path d="M142.198 243.647C141.661 243.927 141.648 244.38 142.183 244.66C142.717 244.941 143.581 244.935 144.119 244.655L162.308 235.17C162.846 234.889 162.849 234.442 162.314 234.162C161.78 233.881 160.926 233.881 160.389 234.162L142.198 243.647Z" fill="#ADCDFC"/>
<path d="M140.556 220.763L136.201 223.048C132.25 221.1 126.041 221.133 122.197 223.151C122.117 223.192 122.043 223.236 121.967 223.279L117.584 220.993C117.661 220.95 117.738 220.908 117.817 220.867C124.065 217.588 134.186 217.553 140.556 220.763Z" fill="#7CCCFF"/>
<path d="M141.226 221.12C146.398 224.045 146.932 228.402 142.816 231.609L138.299 229.253C140.111 227.379 139.632 225.052 136.867 223.408L141.226 221.12Z" fill="#7CCCFF"/>
<path d="M142.252 232.021C141.821 232.316 141.35 232.601 140.835 232.871C134.678 236.102 124.761 236.183 118.377 233.113L122.736 230.826C126.695 232.636 132.704 232.557 136.457 230.587C136.977 230.313 137.426 230.017 137.807 229.704L142.252 232.021Z" fill="#3EABFF"/>
<path d="M121.347 223.661C118.373 225.684 118.609 228.583 122.044 230.478L117.691 232.763C111.838 229.603 111.582 224.662 116.943 221.364L121.347 223.661Z" fill="#3EABFF"/>
<path d="M282.15 358.554C282.15 358.554 279.68 360.089 281.997 363.715C284.313 367.341 286.321 365.11 291.571 368.736C296.821 372.362 298.674 373.06 301.454 372.781C304.233 372.502 305.932 371.247 306.395 369.852C306.858 368.457 305.469 366.086 305.469 366.086L282.15 358.554Z" fill="#94A3C0"/>
<path d="M304.387 358.694C304.387 358.694 305.468 363.436 306.086 367.062C306.24 368.736 303.769 371.015 300.218 370.875C296.666 370.735 294.658 369.759 293.423 368.364C292.188 366.969 284.466 364.272 283.076 363.157C281.686 362.041 281.378 358.694 281.996 357.857C282.614 357.02 284.929 355.625 287.4 356.602C289.872 357.578 291.879 359.392 296.82 359.67C301.761 359.949 304.387 358.694 304.387 358.694Z" fill="#382747"/>
<path d="M306.652 346.467C306.652 346.467 304.181 348.001 306.497 351.627C308.814 355.253 310.822 353.022 316.071 356.649C321.321 360.275 323.176 360.972 325.955 360.693C328.735 360.414 330.433 359.159 330.897 357.764C331.36 356.369 329.97 353.998 329.97 353.998L306.652 346.467Z" fill="#94A3C0"/>
<path d="M328.89 346.606C328.89 346.606 329.97 351.348 330.588 354.975C330.743 356.648 328.272 358.927 324.72 358.787C321.169 358.647 319.161 357.672 317.926 356.276C316.691 354.881 308.968 352.184 307.579 351.069C306.189 349.953 305.88 346.606 306.498 345.769C307.116 344.932 309.432 343.537 311.903 344.514C314.374 345.49 316.381 347.304 321.322 347.583C326.264 347.861 328.89 346.606 328.89 346.606Z" fill="#382747"/>
<path d="M309.689 308.02C310.924 316.946 315.866 340.377 316.69 348.559C316.69 348.559 318.748 351.535 324.926 350.791L327.857 349.687C329.039 349.243 329.747 348.147 329.589 347C328.968 342.488 327.57 331.127 328.219 324.384C329.043 315.83 326.572 310.623 326.572 310.623C326.779 307.833 327.19 298.164 321.013 295.56C321.013 295.56 305.879 293.049 309.689 308.02Z" fill="#14347C"/>
<path d="M322.249 299.65L320.601 302.626C320.601 302.626 295.276 303.741 288.482 310.436C288.482 310.436 283.952 311.181 285.187 320.107C286.422 329.033 291.365 352.465 292.188 360.647C292.188 360.647 294.247 363.622 300.424 362.878L303.356 361.775C304.537 361.331 305.245 360.235 305.088 359.088C304.467 354.576 303.069 343.214 303.718 336.471C304.541 327.917 302.071 322.71 302.071 322.71C302.071 322.71 313.189 324.57 325.131 329.033C337.073 333.496 347.369 328.289 351.898 326.057C356.428 323.825 358.075 322.338 358.075 322.338C358.075 322.338 363.841 322.338 369.194 318.247C374.547 314.156 375.37 303.37 369.605 297.047C363.841 290.724 322.249 299.65 322.249 299.65Z" fill="#18388F"/>
<path d="M331.308 243.118C331.308 243.118 335.401 241.748 335.132 236.811C333.89 231.948 332.388 231.621 332.388 231.621C332.388 231.621 338.114 226.844 345.018 228.349C345.018 228.349 349.283 236.166 354.108 239.513C354.108 239.513 350.25 248.697 331.308 243.118Z" fill="#CE7C56"/>
<path d="M340.264 245.907C340.264 245.907 355.398 234.47 358.486 234.191C362.193 233.912 366.826 235.029 368.061 239.771C369.296 244.512 366.517 248.138 363.737 249.533C360.958 250.928 336.559 261.528 332.235 261.528C327.91 261.528 325.131 258.181 327.91 253.996C330.69 249.812 340.264 245.907 340.264 245.907Z" fill="#E2A029"/>
<path d="M344.898 238.282C344.898 238.282 328.838 243.117 324.308 249.812C319.779 256.507 320.602 263.946 323.897 274.36C327.191 284.774 320.602 294.071 322.249 299.65C323.896 305.229 335.426 310.436 352.31 307.833C369.194 305.229 370.43 299.279 371.665 295.931C372.9 292.584 368.37 276.592 372.488 263.574C376.606 250.557 368.37 241.63 365.076 239.398C361.781 237.166 355.194 234.191 344.898 238.282Z" fill="#FFBE3D"/>
<path d="M365.076 239.398C361.781 237.166 355.193 234.191 344.897 238.282C344.897 238.282 328.837 243.117 324.307 249.812C323.21 251.435 322.433 253.102 321.923 254.843C328.425 247.208 337.654 243.856 343.662 256.879C349.269 269.032 335.005 304.753 322.541 293.523C322.017 295.866 321.742 297.935 322.249 299.65C323.896 305.23 335.426 310.436 352.31 307.833C369.194 305.229 370.43 299.279 371.665 295.931C372.9 292.584 368.37 276.591 372.488 263.574C376.606 250.557 368.37 241.63 365.076 239.398Z" fill="#E2A029"/>
<path d="M329.558 244.605C329.558 244.605 333.883 247.116 344.692 245.721C355.501 244.326 356.119 237.353 355.193 236.795C354.266 236.237 352.413 234.006 352.413 234.006C352.413 234.006 340.986 238.747 336.971 240.142C332.956 241.537 330.793 242.373 330.793 242.373L329.558 244.605Z" fill="white"/>
<path d="M376.274 367.157C375.714 372.784 369.85 376.608 364.558 378.667C358.796 380.909 352.46 381.813 346.208 381.741C339.827 381.666 333.312 380.565 327.559 378.008C322.538 375.777 317.209 371.729 317.225 366.224C317.214 370.233 317.524 373.545 320.722 376.675C324.84 380.704 331.04 382.873 336.871 383.961C348.249 386.083 363.74 385.058 372.382 377.147C375.859 373.964 376.335 370.609 376.347 366.376C376.336 366.638 376.311 366.898 376.274 367.157Z" fill="#ADCDFC"/>
<path d="M367.614 355.358C379.195 361.397 379.27 371.19 367.764 377.229C356.258 383.269 337.525 383.269 325.944 377.229C314.363 371.19 314.316 361.397 325.821 355.358C337.327 349.319 356.033 349.319 367.614 355.358Z" fill="#E2EDFF"/>
<path d="M352.053 343.15L351.981 366.489L347.46 368.862L347.532 345.523L352.053 343.15Z" fill="#C7D8F2"/>
<path d="M347.532 345.523L347.459 368.862L342.909 366.489L342.983 343.15L347.532 345.523Z" fill="#7BAEFF"/>
<path d="M352.053 343.15L347.532 345.523L342.982 343.15L347.502 340.778L352.053 343.15Z" fill="#4DA5DC"/>
<path d="M404.755 263.465C404.624 260.229 401.07 258.031 397.687 259.103C382.916 263.783 349.058 274.865 346.883 278.794C344.809 282.539 338.112 303.455 334.814 313.933C333.862 316.96 329.999 318.347 326.997 316.748L306.533 305.849C302.64 303.776 297.839 306.752 298.582 310.778L301.868 328.582C302.129 330.002 303.084 331.242 304.466 331.959L326.361 343.32C338.597 349.669 353.541 350.059 366.163 344.359L383.043 336.736C397.804 330.07 406.893 316.229 406.289 301.333L404.755 263.465Z" fill="#3278CC"/>
<path d="M346.882 278.794C344.809 282.538 338.112 303.455 334.814 313.933C333.862 316.96 329.998 318.347 326.996 316.748L306.533 305.848C302.64 303.775 297.839 306.752 298.582 310.778L301.867 328.582C301.944 328.997 302.095 329.389 302.284 329.765C302.545 330.136 302.808 330.506 303.075 330.874C303.469 331.296 303.922 331.677 304.465 331.959L326.36 343.32C330.999 345.726 336.027 347.272 341.17 347.959C358.93 335.512 356.692 283.558 350.25 279.195C349.296 278.549 348.457 278.146 347.715 277.929C347.313 278.246 347.025 278.536 346.882 278.794Z" fill="#3AAEEF"/>
<path d="M251.03 215.42L282.883 244.376L313.319 236.968L281.467 208.012L251.03 215.42Z" fill="white"/>
<path d="M284.848 217.051L281.854 218.11C279.561 216.497 275.63 215.943 272.986 216.879C272.931 216.898 272.88 216.918 272.827 216.939L270.296 215.07C270.349 215.05 270.402 215.03 270.456 215.01C274.754 213.491 281.158 214.407 284.848 217.051Z" fill="#E2EDFF"/>
<path d="M285.213 217.298C288.155 219.628 288.036 222.439 285.116 224.095L282.525 222.186C283.859 221.164 283.801 219.645 282.237 218.348L285.213 217.298Z" fill="#E2EDFF"/>
<path d="M284.685 224.33C284.382 224.478 284.053 224.617 283.7 224.743C279.464 226.242 273.184 225.373 269.47 222.814L272.467 221.752C274.781 223.28 278.59 223.787 281.171 222.873C281.53 222.746 281.845 222.597 282.119 222.433L284.685 224.33Z" fill="#3EABFF"/>
<path d="M272.352 217.136C270.267 218.146 270.108 220.006 272.069 221.522L269.088 222.572C265.74 220.033 266.102 216.876 269.825 215.276L272.352 217.136Z" fill="#3EABFF"/>
<path d="M307.388 263.19C307.388 263.19 322.352 251.621 325.431 251.32C329.128 251.015 333.768 252.101 335.062 256.845C336.356 261.589 333.628 265.243 330.87 266.66C328.113 268.078 303.889 278.873 299.571 278.903C295.254 278.933 292.436 275.598 295.157 271.384C297.879 267.171 307.388 263.19 307.388 263.19Z" fill="#FFBE3D"/>
<path d="M285.877 245.281C285.877 245.281 285.089 243.89 284.922 242.913C284.755 241.936 285.355 240.675 284.71 238.444C284.065 236.213 282.962 234.265 282.48 232.732C281.23 231.343 280.183 233.865 281.135 235.954C282.086 238.043 281.793 239.302 280.87 239.448C279.948 239.595 276.07 237.526 274.977 236.417C273.883 235.307 267.652 229.902 267.045 230.604C266.437 231.307 266.446 232.006 268.629 234.086C270.813 236.167 271.595 237.139 271.757 237.697C271.918 238.255 271.772 238.814 272.564 240.485C273.355 242.156 272.753 243.278 274.159 244.805C275.565 246.331 278.189 246.592 279.434 247.562C280.678 248.531 280.678 248.531 280.678 248.531L285.877 245.281Z" fill="#FFAA83"/>
<path d="M299.531 278.926C299.531 278.926 293.08 280.088 289.509 273.598C285.937 267.107 279.762 249.649 278.92 247.98C278.92 247.98 280.919 243.869 286.052 244.02C286.052 244.02 291.93 254.218 295.273 258.849C298.616 263.48 310.486 276.986 299.531 278.926Z" fill="#FFBE3D"/>
<path d="M321.29 216.093C321.29 216.093 321.674 226.263 328.229 232.554C334.785 238.845 339.986 234.474 343.372 232.511C346.758 230.548 347.902 227.626 348.069 219.397C348.235 211.168 347.237 203.312 340.616 201.276C333.995 199.24 327.024 199.216 323.908 205.691C320.793 212.166 321.29 216.093 321.29 216.093Z" fill="#FFAA83"/>
<path d="M323.992 203.722C323.992 203.722 319.353 207.767 320.331 213.075C321.308 218.384 319.614 219.366 320.571 222.125C321.528 224.884 326.438 225.353 327.237 229.259C328.036 233.165 334.517 234.078 337.962 234.944C341.406 235.81 346.345 231.743 347.597 229.662C348.849 227.581 347.906 222.553 349.136 217.923C350.367 213.294 348.754 207.751 346.754 203.939C344.753 200.126 341.645 199.517 341.645 199.517C341.645 199.517 339.752 196.547 336.078 196.266C332.405 195.984 321.371 197.408 323.992 203.722Z" fill="#4D2C63"/>
<path d="M272.903 47.6251C272.828 47.5866 272.754 47.5481 272.68 47.5122C272.583 47.4647 272.487 47.4199 272.392 47.3778C272.297 47.3357 272.202 47.2945 272.108 47.2569C272.014 47.2192 271.921 47.1834 271.827 47.1493C271.732 47.1153 271.637 47.0821 271.544 47.0526C271.526 47.0463 271.508 47.0427 271.49 47.0373C271.483 47.0355 271.476 47.0338 271.469 47.0311C271.401 47.0105 271.331 46.989 271.263 46.9701C271.166 46.9433 271.068 46.9191 270.973 46.8976C270.876 46.8761 270.782 46.8572 270.687 46.8402C270.583 46.8223 270.481 46.8071 270.38 46.7945C270.311 46.7865 270.242 46.7811 270.174 46.7757C270.164 46.7748 270.153 46.7739 270.143 46.773C270.118 46.7712 270.092 46.7676 270.068 46.7659C269.956 46.7587 269.847 46.7551 269.739 46.756C269.616 46.7569 269.495 46.7614 269.376 46.7712C269.238 46.7829 269.104 46.8008 268.972 46.8241C268.969 46.825 268.965 46.8259 268.962 46.8268C268.958 46.8277 268.954 46.8286 268.95 46.8295C268.79 46.859 268.633 46.8976 268.482 46.9459C268.285 47.0096 268.095 47.0884 267.916 47.1825L263.271 49.6214C263.586 49.4556 263.933 49.3383 264.304 49.2684C264.309 49.2675 264.313 49.2657 264.318 49.2648C264.687 49.1967 265.082 49.1788 265.497 49.211C265.508 49.2119 265.518 49.2128 265.529 49.2137C265.943 49.2478 266.375 49.332 266.824 49.4691C266.83 49.4709 266.837 49.4736 266.844 49.4754C267.301 49.6169 267.773 49.8114 268.257 50.0631L398.017 117.726L402.661 115.288L272.903 47.6251Z" fill="url(#paint2_linear_64_649)"/>
<path d="M409.642 125.928C409.638 125.827 409.633 125.725 409.626 125.622C409.619 125.52 409.61 125.417 409.599 125.314C409.588 125.211 409.575 125.108 409.56 125.004C409.545 124.898 409.53 124.791 409.511 124.686C409.51 124.683 409.51 124.679 409.509 124.677C409.509 124.674 409.508 124.673 409.508 124.67C409.49 124.569 409.47 124.467 409.449 124.366C409.426 124.256 409.402 124.145 409.375 124.035C409.348 123.925 409.32 123.815 409.289 123.704C409.259 123.592 409.226 123.48 409.191 123.368C409.164 123.281 409.136 123.195 409.107 123.108C409.105 123.101 409.104 123.094 409.101 123.087C409.095 123.069 409.089 123.051 409.083 123.033C409.046 122.924 409.008 122.816 408.967 122.706C408.927 122.599 408.887 122.491 408.843 122.384C408.801 122.281 408.759 122.178 408.714 122.075C408.669 121.972 408.625 121.87 408.577 121.767C408.541 121.689 408.504 121.611 408.466 121.533C408.463 121.528 408.461 121.523 408.459 121.518C408.45 121.5 408.442 121.482 408.433 121.465C408.383 121.361 408.331 121.26 408.279 121.158C408.221 121.047 408.162 120.936 408.101 120.826C408.031 120.698 407.959 120.573 407.885 120.448C407.804 120.312 407.719 120.179 407.635 120.046C407.62 120.023 407.606 119.999 407.591 119.975C407.573 119.948 407.557 119.92 407.54 119.892C407.374 119.638 407.2 119.389 407.02 119.144C406.877 118.95 406.728 118.76 406.576 118.573C406.474 118.449 406.371 118.326 406.265 118.205C406.176 118.103 406.086 118.002 405.995 117.903C405.906 117.806 405.815 117.711 405.724 117.617C405.635 117.525 405.544 117.434 405.452 117.345C405.434 117.327 405.415 117.31 405.397 117.292C405.39 117.286 405.384 117.279 405.377 117.273C405.306 117.206 405.237 117.139 405.166 117.073C405.068 116.984 404.97 116.896 404.871 116.81C404.77 116.722 404.667 116.635 404.562 116.551C404.459 116.467 404.356 116.385 404.251 116.305C404.198 116.265 404.145 116.227 404.092 116.189C404.08 116.18 404.068 116.171 404.056 116.162C404.017 116.133 403.978 116.104 403.938 116.075C403.836 116.003 403.734 115.933 403.631 115.864C403.53 115.796 403.428 115.731 403.326 115.667C403.227 115.606 403.128 115.547 403.028 115.49C402.929 115.434 402.83 115.378 402.731 115.325C402.708 115.313 402.684 115.302 402.662 115.289L398.017 117.727C398.495 117.976 398.961 118.271 399.412 118.601C399.424 118.609 399.434 118.618 399.446 118.627C399.892 118.955 400.321 119.318 400.731 119.711C400.738 119.717 400.744 119.724 400.751 119.73C401.577 120.526 402.32 121.439 402.946 122.413C402.961 122.437 402.975 122.461 402.99 122.484C403.294 122.962 403.57 123.454 403.812 123.955C403.815 123.961 403.818 123.966 403.821 123.972C404.068 124.485 404.281 125.004 404.455 125.525C404.457 125.532 404.46 125.539 404.462 125.546C404.636 126.068 404.771 126.591 404.862 127.108C404.862 127.108 404.862 127.113 404.863 127.115C404.954 127.636 405.003 128.151 405.001 128.653L404.749 208.729C404.748 209.221 404.697 209.674 404.606 210.091C404.603 210.104 404.6 210.118 404.597 210.131C404.505 210.54 404.373 210.912 404.202 211.245C404.199 211.252 404.196 211.259 404.192 211.266C404.047 211.546 403.862 211.779 403.667 212.001C403.602 212.074 403.542 212.152 403.472 212.219C403.241 212.442 402.99 212.64 402.706 212.788L407.351 210.35C407.635 210.202 407.885 210.004 408.117 209.781C408.186 209.713 408.247 209.636 408.311 209.563C408.395 209.468 408.49 209.386 408.564 209.281C408.66 209.145 408.748 209.001 408.828 208.848C408.831 208.842 408.835 208.834 408.838 208.827C408.841 208.821 408.844 208.815 408.847 208.808C408.9 208.705 408.951 208.599 408.997 208.488C409.041 208.38 409.081 208.269 409.119 208.154C409.153 208.049 409.184 207.942 409.212 207.832C409.223 207.786 409.232 207.739 409.243 207.692C409.246 207.679 409.249 207.666 409.252 207.653C409.262 207.61 409.273 207.567 409.282 207.522C409.3 207.422 409.316 207.322 409.331 207.219C409.345 207.119 409.357 207.017 409.366 206.914C409.375 206.817 409.382 206.716 409.387 206.615C409.392 206.515 409.394 206.413 409.395 206.309C409.395 206.302 409.395 206.297 409.395 206.291L409.646 126.214C409.646 126.119 409.645 126.024 409.642 125.928Z" fill="url(#paint3_linear_64_649)"/>
<path d="M398.017 117.727C401.888 119.746 405.013 124.634 405 128.652L404.749 208.729C404.736 212.746 401.591 214.365 397.719 212.347L267.959 144.682C264.087 142.664 260.963 137.775 260.976 133.758L261.227 53.6811C261.24 49.6634 264.385 48.0444 268.257 50.0631L398.017 117.727Z" fill="#343996"/>
<path d="M271.049 180.738C282.63 186.777 282.704 196.57 271.198 202.609C259.693 208.648 240.96 208.648 229.379 202.609C217.797 196.57 217.75 186.777 229.256 180.738C240.761 174.699 259.467 174.699 271.049 180.738Z" fill="#ADCDFC"/>
<path d="M271.321 174.268L271.309 178.113L263.948 181.977L263.96 178.131L271.321 174.268Z" fill="#CC096A"/>
<path d="M241.717 180.843C241.767 180.825 241.817 180.805 241.868 180.787C242.279 180.645 242.702 180.518 243.129 180.396C243.426 180.312 243.73 180.238 244.033 180.163C244.264 180.107 244.493 180.045 244.727 179.994C245.045 179.924 245.371 179.867 245.695 179.808C245.933 179.765 246.167 179.714 246.407 179.677C246.505 179.662 246.606 179.648 246.704 179.634C247.108 179.574 247.513 179.522 247.923 179.478C248.042 179.465 248.159 179.452 248.278 179.44C248.751 179.395 249.228 179.358 249.706 179.332C249.794 179.327 249.882 179.324 249.971 179.32C250.292 179.306 250.614 179.301 250.936 179.296C251.257 179.291 251.579 179.288 251.9 179.292C252.169 179.295 252.437 179.302 252.705 179.312C253.002 179.323 253.3 179.336 253.597 179.355C253.868 179.372 254.139 179.393 254.409 179.416C254.703 179.442 254.995 179.472 255.287 179.505C255.551 179.535 255.813 179.568 256.074 179.605C256.386 179.649 256.697 179.699 257.005 179.752C257.33 179.808 257.653 179.863 257.972 179.929C258.048 179.945 258.124 179.959 258.201 179.975C258.649 180.072 259.09 180.179 259.525 180.296C259.65 180.329 259.773 180.366 259.896 180.401C260.258 180.504 260.614 180.613 260.965 180.73C261.067 180.764 261.17 180.796 261.271 180.831C261.589 180.942 261.897 181.066 262.204 181.188C262.354 181.249 262.511 181.304 262.659 181.368C263.102 181.558 263.534 181.76 263.949 181.976L263.96 177.491C263.546 177.276 263.114 177.073 262.671 176.883C262.524 176.82 262.368 176.766 262.218 176.706C261.956 176.6 261.696 176.49 261.424 176.393C261.377 176.377 261.33 176.363 261.283 176.346C261.183 176.311 261.08 176.28 260.977 176.246C260.627 176.129 260.27 176.018 259.908 175.915C259.785 175.88 259.663 175.845 259.538 175.811C259.455 175.789 259.373 175.764 259.289 175.743C258.935 175.651 258.575 175.569 258.213 175.491C258.136 175.475 258.06 175.46 257.983 175.444C257.808 175.408 257.632 175.369 257.455 175.336C257.311 175.309 257.162 175.293 257.017 175.268C256.709 175.215 256.399 175.165 256.086 175.121C255.961 175.103 255.838 175.079 255.712 175.062C255.576 175.045 255.436 175.036 255.299 175.02C255.007 174.987 254.715 174.958 254.421 174.932C254.281 174.919 254.143 174.9 254.002 174.89C253.871 174.88 253.739 174.879 253.608 174.871C253.312 174.852 253.015 174.838 252.718 174.828C252.569 174.822 252.42 174.81 252.27 174.806C252.151 174.803 252.031 174.809 251.912 174.807C251.591 174.803 251.269 174.806 250.948 174.812C250.788 174.814 250.628 174.809 250.469 174.813C250.307 174.819 250.145 174.829 249.984 174.836C249.895 174.84 249.806 174.843 249.718 174.847C249.317 174.869 248.916 174.895 248.518 174.931C248.442 174.938 248.367 174.949 248.29 174.956C248.171 174.967 248.054 174.981 247.935 174.993C247.526 175.037 247.12 175.089 246.717 175.149C246.618 175.164 246.518 175.177 246.419 175.192C246.372 175.2 246.324 175.205 246.276 175.213C246.085 175.244 245.899 175.287 245.71 175.322C245.383 175.381 245.057 175.441 244.738 175.51C244.503 175.562 244.277 175.622 244.047 175.678C243.743 175.752 243.439 175.828 243.141 175.912C243.078 175.93 243.01 175.942 242.947 175.961C242.585 176.067 242.23 176.182 241.88 176.303C241.829 176.32 241.779 176.34 241.729 176.358C241.345 176.493 240.971 176.639 240.604 176.792C240.496 176.837 240.387 176.882 240.28 176.929C239.874 177.106 239.475 177.292 239.094 177.491C239.021 177.529 238.95 177.568 238.88 177.606C238.813 177.642 238.753 177.68 238.687 177.716C238.579 177.777 238.472 177.837 238.368 177.899C238.272 177.956 238.18 178.013 238.088 178.07C237.987 178.133 237.888 178.196 237.79 178.259C237.701 178.318 237.616 178.377 237.529 178.436C237.436 178.5 237.344 178.566 237.254 178.631C237.171 178.691 237.091 178.752 237.012 178.813C236.925 178.879 236.84 178.946 236.758 179.013C236.724 179.041 236.687 179.068 236.653 179.095C236.623 179.121 236.596 179.148 236.565 179.174C236.426 179.292 236.294 179.412 236.167 179.532C236.125 179.572 236.08 179.612 236.038 179.654C235.877 179.812 235.724 179.972 235.582 180.134C235.576 180.141 235.569 180.147 235.563 180.154C235.53 180.192 235.503 180.23 235.471 180.267C235.386 180.369 235.301 180.472 235.223 180.575C235.179 180.631 235.141 180.688 235.1 180.746C235.033 180.839 234.968 180.932 234.907 181.026C234.891 181.052 234.871 181.077 234.855 181.103C234.831 181.142 234.812 181.18 234.789 181.219C234.742 181.299 234.696 181.377 234.652 181.457C234.617 181.523 234.582 181.591 234.549 181.657C234.51 181.738 234.473 181.818 234.437 181.899C234.421 181.935 234.401 181.97 234.387 182.006C234.373 182.038 234.364 182.071 234.351 182.103C234.321 182.179 234.293 182.256 234.267 182.333C234.243 182.403 234.22 182.473 234.199 182.543C234.176 182.62 234.155 182.698 234.137 182.775C234.127 182.817 234.112 182.858 234.103 182.9C234.097 182.928 234.094 182.957 234.088 182.985C234.072 183.064 234.058 183.143 234.046 183.222C234.035 183.292 234.025 183.361 234.018 183.431C234.009 183.511 234.004 183.591 233.999 183.671C233.996 183.718 233.988 183.764 233.987 183.811C233.986 183.858 233.985 184.544 233.985 184.591L233.973 188.435C233.973 188.342 233.981 188.249 233.987 188.156C233.992 188.076 233.997 187.995 234.006 187.916C234.014 187.846 234.023 187.777 234.034 187.707C234.046 187.628 234.06 187.548 234.076 187.469C234.09 187.399 234.107 187.329 234.125 187.259C234.144 187.182 234.164 187.105 234.187 187.028C234.208 186.958 234.231 186.888 234.255 186.818C234.281 186.742 234.309 186.665 234.339 186.589C234.366 186.52 234.396 186.451 234.425 186.383C234.461 186.302 234.498 186.222 234.537 186.142C234.57 186.075 234.605 186.008 234.641 185.942C234.684 185.862 234.73 185.783 234.777 185.703C234.816 185.639 234.854 185.574 234.896 185.511C234.956 185.417 235.021 185.323 235.088 185.229C235.129 185.173 235.168 185.116 235.211 185.059C235.289 184.956 235.374 184.854 235.459 184.752C235.497 184.707 235.531 184.662 235.57 184.618C235.712 184.456 235.866 184.297 236.026 184.138C236.068 184.098 236.112 184.057 236.154 184.017C236.281 183.896 236.414 183.777 236.553 183.659C236.617 183.605 236.68 183.55 236.746 183.497C236.828 183.43 236.912 183.365 236.999 183.298C237.078 183.238 237.158 183.176 237.242 183.115C237.331 183.049 237.423 182.985 237.516 182.92C237.603 182.861 237.688 182.802 237.777 182.744C237.875 182.68 237.975 182.618 238.075 182.555C238.167 182.497 238.261 182.44 238.356 182.384C238.46 182.322 238.567 182.262 238.675 182.201C238.809 182.126 238.942 182.049 239.082 181.976C239.463 181.776 239.862 181.591 240.268 181.413C240.375 181.367 240.483 181.321 240.591 181.276C240.958 181.123 241.333 180.978 241.717 180.843Z" fill="#CC096A"/>
<path d="M239.175 191.14L239.163 194.986L231.802 198.849L231.814 195.004L239.175 191.14Z" fill="#CC096A"/>
<path d="M231.814 195.004L231.802 198.848C226.276 195.967 223.517 192.185 223.529 188.409L223.541 184.564C223.529 188.34 226.287 192.122 231.814 195.004Z" fill="#CC096A"/>
<path d="M271.321 174.268L263.96 178.131C257.071 174.539 245.938 174.539 239.094 178.131C232.25 181.723 232.285 187.548 239.174 191.14L231.814 195.004C220.831 189.277 220.776 179.993 231.684 174.268C242.593 168.542 260.338 168.54 271.321 174.268Z" fill="#FF5668"/>
<path d="M263.96 179.31L263.948 181.977C267.412 183.783 269.143 186.155 269.135 188.524L269.148 184.679C269.155 182.31 267.425 181.116 263.96 179.31Z" fill="#3278CC"/>
<path d="M271.228 196.29L271.216 198.959L263.808 195.095L263.82 192.427L271.228 196.29Z" fill="#3278CC"/>
<path d="M279.57 185.151C279.562 185.279 279.553 185.407 279.54 185.534C279.528 185.645 279.511 185.755 279.494 185.865C279.474 185.992 279.453 186.119 279.427 186.245C279.405 186.356 279.378 186.468 279.35 186.58C279.319 186.703 279.288 186.827 279.251 186.95C279.218 187.061 279.18 187.173 279.143 187.284C279.101 187.407 279.055 187.528 279.008 187.65C278.965 187.76 278.919 187.869 278.871 187.977C278.814 188.105 278.756 188.234 278.692 188.361C278.64 188.467 278.584 188.574 278.527 188.681C278.458 188.808 278.385 188.934 278.309 189.061C278.248 189.163 278.186 189.265 278.121 189.367C278.024 189.517 277.92 189.667 277.813 189.817C277.749 189.907 277.686 189.998 277.618 190.087C277.493 190.252 277.359 190.414 277.222 190.577C277.163 190.648 277.107 190.72 277.046 190.79C276.818 191.048 276.575 191.303 276.318 191.556C276.252 191.62 276.182 191.685 276.113 191.749C275.911 191.941 275.699 192.132 275.478 192.32C275.378 192.406 275.277 192.491 275.173 192.576C275.041 192.684 274.905 192.79 274.767 192.895C274.641 192.993 274.514 193.09 274.382 193.186C274.239 193.291 274.091 193.394 273.942 193.497C273.806 193.591 273.668 193.685 273.526 193.778C273.371 193.879 273.212 193.98 273.052 194.079C272.905 194.17 272.756 194.262 272.604 194.352C272.439 194.451 272.267 194.547 272.095 194.644C271.881 194.764 271.67 194.885 271.446 195.002C271.374 195.04 271.301 195.074 271.228 195.113L271.215 198.959C271.289 198.92 271.362 198.885 271.435 198.847C271.55 198.786 271.664 198.726 271.777 198.665C271.882 198.607 271.979 198.547 272.082 198.489C272.255 198.392 272.427 198.296 272.593 198.197C272.745 198.107 272.892 198.016 273.039 197.925C273.199 197.824 273.359 197.725 273.514 197.623C273.656 197.53 273.793 197.435 273.93 197.341C274.078 197.238 274.226 197.135 274.369 197.03C274.501 196.935 274.628 196.838 274.755 196.74C274.893 196.634 275.028 196.529 275.16 196.421C275.213 196.377 275.273 196.334 275.326 196.29C275.376 196.249 275.418 196.206 275.466 196.165C275.686 195.977 275.899 195.786 276.101 195.594C276.17 195.53 276.24 195.466 276.307 195.401C276.563 195.148 276.807 194.893 277.034 194.635C277.044 194.624 277.055 194.613 277.064 194.602C277.116 194.543 277.16 194.482 277.21 194.422C277.347 194.26 277.481 194.097 277.606 193.932C277.675 193.842 277.737 193.751 277.802 193.661C277.908 193.512 278.012 193.362 278.109 193.212C278.136 193.17 278.167 193.131 278.192 193.09C278.23 193.029 278.262 192.966 278.299 192.905C278.374 192.779 278.446 192.653 278.515 192.526C278.572 192.42 278.628 192.312 278.68 192.205C278.744 192.077 278.803 191.95 278.859 191.822C278.884 191.765 278.916 191.707 278.939 191.65C278.961 191.599 278.976 191.547 278.996 191.495C279.044 191.373 279.088 191.251 279.13 191.129C279.168 191.018 279.206 190.906 279.239 190.794C279.276 190.672 279.307 190.548 279.338 190.425C279.355 190.359 279.377 190.292 279.392 190.225C279.402 190.181 279.407 190.135 279.416 190.09C279.441 189.964 279.462 189.837 279.482 189.711C279.499 189.6 279.516 189.49 279.528 189.379C279.542 189.251 279.551 189.124 279.558 188.997C279.563 188.923 279.574 188.847 279.576 188.773C279.578 188.699 279.58 188.625 279.58 188.551L279.592 184.705C279.592 184.854 279.579 185.003 279.57 185.151Z" fill="#3278CC"/>
<path d="M271.32 175.445C282.3 181.171 282.355 190.454 271.446 196.179C271.374 196.218 271.302 196.253 271.228 196.291L263.819 192.428C263.891 192.389 263.965 192.355 264.038 192.317C270.882 188.725 270.845 182.9 263.959 179.31L271.32 175.445Z" fill="#58AFFB"/>
<path d="M267.066 200.712C267.373 200.606 267.676 200.495 267.975 200.382C268.155 200.314 268.334 200.246 268.511 200.176C268.828 200.05 269.141 199.918 269.45 199.784C269.598 199.72 269.748 199.659 269.894 199.593C270.343 199.39 270.786 199.179 271.216 198.958L271.228 198.1C270.799 198.322 270.356 198.531 269.907 198.735C269.761 198.801 269.61 198.863 269.461 198.927C269.153 199.062 268.841 199.193 268.524 199.319C268.347 199.39 268.167 199.456 267.987 199.524C267.688 199.637 267.385 199.749 267.078 199.855C266.891 199.92 266.701 199.983 266.512 200.046C266.198 200.149 265.881 200.247 265.562 200.343C265.36 200.403 265.161 200.466 264.957 200.523C264.805 200.566 264.65 200.607 264.495 200.649C264.213 200.726 263.93 200.8 263.644 200.871C263.485 200.91 263.326 200.949 263.167 200.986C262.865 201.057 262.562 201.125 262.256 201.191C262.115 201.221 261.975 201.252 261.833 201.281C261.388 201.372 260.929 201.459 260.476 201.537V202.394C260.929 202.316 261.377 202.229 261.823 202.139C261.963 202.11 262.102 202.078 262.242 202.048C262.548 201.983 262.852 201.916 263.155 201.845C263.315 201.807 263.473 201.768 263.632 201.728C263.918 201.657 264.2 201.584 264.482 201.508C264.637 201.466 264.792 201.424 264.945 201.381C265.025 201.358 265.106 201.338 265.185 201.315C265.308 201.279 265.427 201.238 265.55 201.201C265.869 201.106 266.187 201.007 266.5 200.904C266.69 200.841 266.879 200.778 267.066 200.712Z" fill="#E2A029"/>
<path d="M271.228 198.101C268.091 199.713 264.408 200.857 260.487 201.537L257.062 196.368C259.525 195.95 261.844 195.24 263.819 194.238L271.228 198.101Z" fill="#FFBE3D"/>
<path d="M259.28 200.979C258.999 201.02 258.719 201.063 258.437 201.1C258.108 201.143 257.776 201.178 257.445 201.215C257.163 201.246 256.882 201.279 256.598 201.306C256.075 201.356 255.549 201.397 255.021 201.43C254.973 201.433 254.928 201.438 254.88 201.441C254.296 201.476 253.71 201.5 253.123 201.516C252.975 201.52 252.825 201.521 252.676 201.524C252.243 201.532 251.81 201.536 251.377 201.534C251.198 201.533 251.019 201.531 250.84 201.528C250.361 201.521 249.883 201.508 249.406 201.488C249.315 201.485 249.224 201.483 249.132 201.478C248.569 201.452 248.007 201.416 247.447 201.372C247.299 201.36 247.152 201.346 247.004 201.333C246.571 201.296 246.137 201.252 245.707 201.203C245.551 201.185 245.395 201.168 245.24 201.149C244.681 201.081 244.125 201.006 243.574 200.92C243.57 200.919 243.566 200.92 243.562 200.919C243.014 200.833 242.473 200.736 241.934 200.632C241.742 200.595 241.552 200.554 241.362 200.514C240.993 200.438 240.626 200.359 240.261 200.275C240.062 200.228 239.864 200.181 239.666 200.133C239.351 200.055 239.039 199.971 238.729 199.887C238.444 199.81 238.159 199.73 237.879 199.648C237.592 199.564 237.308 199.475 237.026 199.384C236.75 199.296 236.474 199.207 236.202 199.113C235.788 198.97 235.378 198.823 234.976 198.668C234.936 198.653 234.894 198.639 234.855 198.624C234.385 198.44 233.925 198.245 233.473 198.043C233.364 197.995 233.255 197.944 233.146 197.894C232.694 197.686 232.247 197.474 231.814 197.248L231.802 198.849C232.235 199.075 232.682 199.288 233.135 199.496C233.243 199.546 233.351 199.596 233.461 199.644C233.913 199.846 234.373 200.041 234.843 200.225C234.883 200.24 234.923 200.254 234.963 200.27C235.261 200.384 235.559 200.497 235.863 200.606C235.97 200.643 236.081 200.675 236.189 200.713C236.462 200.807 236.739 200.898 237.016 200.986C237.297 201.076 237.58 201.165 237.866 201.249C238.147 201.332 238.433 201.41 238.719 201.488C238.892 201.536 239.062 201.589 239.238 201.634C239.375 201.669 239.514 201.7 239.652 201.734C239.851 201.783 240.05 201.83 240.251 201.876C240.614 201.96 240.98 202.039 241.349 202.115C241.54 202.155 241.73 202.196 241.922 202.233C242.006 202.249 242.088 202.268 242.172 202.284C242.627 202.369 243.087 202.447 243.549 202.519C243.555 202.52 243.56 202.521 243.566 202.522C244.021 202.593 244.48 202.658 244.94 202.717C245.035 202.73 245.131 202.739 245.227 202.751C245.382 202.769 245.539 202.786 245.695 202.804C246.125 202.853 246.559 202.897 246.992 202.934C247.14 202.947 247.287 202.961 247.435 202.973C247.511 202.979 247.586 202.987 247.662 202.993C248.146 203.028 248.632 203.058 249.119 203.08C249.212 203.085 249.305 203.086 249.397 203.089C249.737 203.104 250.079 203.118 250.42 203.126C250.556 203.129 250.692 203.128 250.828 203.13C251.007 203.132 251.186 203.134 251.365 203.135C251.798 203.137 252.231 203.133 252.664 203.125C252.813 203.122 252.963 203.122 253.111 203.117C253.172 203.115 253.23 203.116 253.291 203.114C253.818 203.098 254.344 203.073 254.867 203.042C254.915 203.039 254.963 203.034 255.01 203.031C255.474 203.002 255.937 202.968 256.398 202.927C256.461 202.922 256.524 202.914 256.587 202.907C256.87 202.881 257.151 202.847 257.434 202.816C257.765 202.779 258.096 202.744 258.425 202.701C258.708 202.665 258.987 202.622 259.268 202.58C259.51 202.545 259.755 202.515 259.995 202.476C260.156 202.45 260.317 202.422 260.476 202.394L260.488 200.793C260.089 200.862 259.684 200.92 259.28 200.979Z" fill="#7974F5"/>
<path d="M257.063 195.619L260.488 200.788C250.757 202.476 239.59 201.298 231.814 197.244L239.175 193.38C244.026 195.91 250.984 196.654 257.063 195.619Z" fill="#B391FF"/>
<path d="M146.522 124.251C146.973 115.231 140.998 109.2 132.407 109.849C132.407 109.849 123.374 109.413 117.617 116.324C111.861 123.234 116.077 130.367 118.79 134.873C119.946 136.73 120.811 138.158 121.355 139.068C121.55 139.409 121.738 139.755 121.951 140.07C121.989 140.133 122.009 140.168 122.009 140.168L122.02 140.162C123.941 142.961 126.494 144.759 128.477 145.685C131.777 147.224 136.118 147.254 138.955 145.251C141.793 143.249 146.071 133.271 146.522 124.251Z" fill="#FF9F75"/>
<path d="M116.451 115.245C116.451 115.245 111.176 120.654 113.681 127.919C116.187 135.183 120.039 138.965 121.242 139.025C122.445 139.085 123.108 138.924 123.06 138.032C123.012 137.141 122.366 134.071 122.366 134.071C122.366 134.071 117.578 132.523 118.468 129.468C119.359 126.412 121.268 126.207 123.063 127.449C124.858 128.691 124.745 130.139 125.585 131.483C126.426 132.828 125.908 135.663 126.862 135.561C127.817 135.459 128.642 134.743 129.047 133.354C129.452 131.965 129.938 130.299 128.676 128.282C127.415 126.265 130.262 123.897 129.163 121.324C128.064 118.751 127.142 117.685 127.142 117.685C127.142 117.685 127.821 119.584 133.968 119.642C140.115 119.7 142.653 120.504 145.388 119.583C148.122 118.661 148.431 115.489 147.299 114.086C146.166 112.683 142.835 111.427 139.163 109.22C135.492 107.013 132.92 107.379 127.647 107.496C122.374 107.614 116.258 111.679 116.451 115.245Z" fill="#E16B40"/>
<path d="M122.082 178.301C122.082 178.301 118.735 160.737 116.58 158.719C113.954 156.341 109.622 154.484 105.283 157.378C100.943 160.272 100.466 164.662 101.586 167.35C102.706 170.038 113.718 192.377 117.015 194.903C120.311 197.43 124.829 196.503 125.707 191.688C126.585 186.873 122.082 178.301 122.082 178.301Z" fill="#E1E8F2"/>
<path d="M155.831 187.654C155.831 187.654 158.456 187.793 159.383 187.793C160.31 187.793 167.414 187.236 168.649 187.236C169.884 187.236 169.884 188.491 169.884 188.491C169.884 188.491 171.12 190.304 171.12 191.001C171.12 191.699 171.12 192.675 171.428 193.372C171.737 194.069 171.274 194.628 170.965 195.186C170.657 195.744 169.884 196.023 169.112 196.441C168.34 196.86 167.414 196.859 166.796 196.58C166.178 196.301 166.178 196.162 166.95 195.743C167.722 195.325 168.34 194.767 168.34 194.767C168.34 194.767 167.414 195.603 166.024 195.743C164.634 195.883 162.471 195.883 161.236 195.325C160.001 194.766 157.839 193.791 157.839 193.791L155.368 193.512L155.831 187.654Z" fill="#FF9F75"/>
<path d="M116.494 192.537C116.494 192.537 118.408 198.245 126.416 198.025C134.424 197.806 154.339 194.472 156.363 194.355C156.363 194.355 159.421 190.81 156.85 186.778C156.85 186.778 144.143 186.909 138.055 186.431C131.967 185.952 113.207 182.861 116.494 192.537Z" fill="#E1E8F2"/>
<path d="M203.997 165.147C203.997 165.147 205.849 163.83 207.061 164.085C208.274 164.341 212.404 164.649 213.678 164.645C214.951 164.641 217.239 162.36 217.651 161.991C218.064 161.623 218.25 160.846 218.733 160.303C219.217 159.761 219.497 159.825 219.391 158.899C219.285 157.972 220.182 157.061 220.586 156.609C220.989 156.156 222.678 155.02 222.411 154.274C222.143 153.529 221.289 154.013 220.767 154.218C220.245 154.424 218.37 156.338 217.525 156.906C216.68 157.473 214.6 158.383 213.516 158.458C212.432 158.533 211.41 158.349 211.41 158.349C211.41 158.349 211.139 158.368 212.185 157.956C213.23 157.544 213.89 157.752 214.773 157.521C215.657 157.29 216.051 156.753 215.913 156.338C215.775 155.923 214.6 156.005 214.149 156.036C213.697 156.068 210.998 156.34 209.895 156.247C208.792 156.154 207.18 157.963 206.857 158.326C206.534 158.688 204.696 159.325 203.712 159.478C202.728 159.631 203.997 165.147 203.997 165.147Z" fill="#FF9F75"/>
<path d="M164.633 167.231C164.633 167.231 167.195 172.982 175.102 172.198C183.008 171.415 202.348 166.591 204.339 166.329C204.339 166.329 206.954 162.461 203.938 158.482C203.938 158.482 191.366 159.503 185.28 159.433C179.193 159.364 160.25 157.483 164.633 167.231Z" fill="#E1E8F2"/>
<path d="M226.794 99.9023C228.793 100.945 230.415 103.483 230.409 105.558L230.369 137.179C230.363 139.254 228.73 140.094 226.73 139.051L216.966 133.96L216.492 134.559L214.587 136.981L212.698 132.579L212.228 131.489L202.465 126.398C200.465 125.355 198.849 122.821 198.855 120.746L198.895 89.1253C198.902 87.0501 200.528 86.2061 202.528 87.249L226.794 99.9023Z" fill="#58AFFB"/>
<path d="M209.867 100.241L209.864 101.132C209.862 101.656 209.233 101.982 208.731 101.719L204.084 99.2841C203.851 99.1614 203.708 98.9365 203.709 98.6928L203.711 97.8022C203.713 97.278 204.342 96.9519 204.844 97.2153L209.491 99.6497C209.724 99.7716 209.868 99.9974 209.867 100.241Z" fill="white"/>
<path d="M224.567 112.329L224.564 113.222C224.562 113.746 223.934 114.071 223.432 113.809L204.072 103.713C203.837 103.591 203.694 103.366 203.695 103.121L203.698 102.229C203.7 101.705 204.328 101.38 204.829 101.642L224.19 111.737C224.424 111.859 224.568 112.085 224.567 112.329Z" fill="#ADCDFC"/>
<path d="M208.694 111.981L208.69 113.001L206.069 121.087L204.946 120.501L207.556 112.432L204.132 110.647L204.136 109.605L208.694 111.981Z" fill="white"/>
<path d="M214.017 114.758L214.014 115.8L211.055 114.257L210.883 117.39C211.208 116.987 211.706 116.954 212.387 117.309C213.682 117.985 214.252 119.27 214.247 120.761L214.241 122.8C214.236 124.403 213.498 125.062 211.964 124.262C210.42 123.457 209.7 122.038 209.705 120.435L209.707 119.74L210.766 120.292L210.763 121.065C210.76 122.007 211.126 122.77 211.935 123.192C212.735 123.609 213.114 123.234 213.117 122.293L213.124 120.264C213.127 119.322 212.751 118.554 211.951 118.137C211.336 117.816 210.914 117.955 210.814 118.667L210.813 118.902L209.755 118.35L210.054 112.691L214.017 114.758Z" fill="white"/>
<path d="M221.673 122.612C222.668 123.129 223.107 124.033 223.104 125.03L223.094 128.315C223.091 129.334 222.647 129.775 221.653 129.257C220.67 128.745 220.208 127.83 220.211 126.81L220.221 123.526C220.224 122.529 220.69 122.099 221.673 122.612ZM222.371 128.004L222.381 124.608C222.383 124.036 222.169 123.554 221.671 123.295C221.164 123.031 220.946 123.287 220.944 123.859L220.934 127.255C220.932 127.815 221.147 128.321 221.655 128.585C222.152 128.844 222.369 128.564 222.371 128.004Z" fill="white"/>
<path d="M218.16 121.856C218.157 122.865 217.69 123.295 216.707 122.783C215.735 122.275 215.274 121.362 215.277 120.353L215.287 117.046C215.29 116.049 215.756 115.607 216.728 116.114C217.711 116.626 218.172 117.553 218.169 118.55L218.16 121.856ZM217.436 121.535L217.446 118.128C217.448 117.568 217.234 117.063 216.726 116.798C216.207 116.528 216.012 116.819 216.01 117.379L216 120.786C215.998 121.358 216.19 121.828 216.709 122.099C217.217 122.363 217.434 122.107 217.436 121.535Z" fill="white"/>
<path d="M220.821 118.304L221.491 118.654L217.495 127.044L216.814 126.689L220.821 118.304Z" fill="white"/>
<path d="M372.364 177.545L375.866 175.706L375.8 197.183L372.297 199.022L372.364 177.545Z" fill="#00A935"/>
<path d="M379.515 176.971C379.515 176.962 379.515 176.955 379.515 176.946C379.515 176.937 379.515 176.929 379.514 176.92C379.513 176.911 379.512 176.903 379.511 176.894C379.51 176.886 379.509 176.876 379.508 176.867C379.507 176.858 379.506 176.85 379.504 176.841C379.503 176.832 379.5 176.822 379.498 176.813C379.496 176.804 379.494 176.794 379.492 176.785C379.491 176.783 379.492 176.781 379.491 176.779C379.491 176.779 379.49 176.778 379.49 176.777C379.488 176.77 379.487 176.763 379.485 176.757C379.482 176.747 379.479 176.738 379.476 176.729C379.473 176.719 379.47 176.709 379.467 176.699C379.464 176.69 379.461 176.68 379.457 176.67C379.454 176.662 379.45 176.653 379.446 176.644C379.443 176.635 379.44 176.625 379.436 176.616C379.432 176.607 379.427 176.597 379.423 176.588C379.419 176.579 379.415 176.569 379.41 176.56C379.405 176.55 379.4 176.541 379.395 176.532C379.39 176.522 379.385 176.512 379.38 176.503L379.379 176.502L368.476 156.897C368.471 156.889 368.467 156.881 368.463 156.873C368.454 156.857 368.443 156.84 368.433 156.825C368.415 156.799 368.398 156.773 368.379 156.749C368.367 156.734 368.356 156.718 368.344 156.704C368.337 156.693 368.328 156.683 368.319 156.674C368.311 156.665 368.303 156.657 368.295 156.648C368.287 156.64 368.279 156.631 368.271 156.622C368.267 156.618 368.262 156.614 368.258 156.61L368.257 156.608C368.254 156.605 368.251 156.602 368.247 156.598C368.239 156.59 368.231 156.582 368.222 156.575C368.214 156.567 368.205 156.559 368.196 156.552C368.187 156.544 368.178 156.536 368.169 156.528C368.16 156.521 368.151 156.513 368.141 156.506C368.132 156.499 368.123 156.493 368.113 156.485C368.104 156.479 368.094 156.473 368.086 156.467C368.077 156.46 368.068 156.455 368.059 156.45C368.05 156.444 368.041 156.439 368.032 156.434C368.023 156.429 368.015 156.424 368.006 156.42C368.004 156.419 368.003 156.417 368.001 156.416C367.994 156.413 367.987 156.41 367.981 156.407C367.973 156.402 367.964 156.398 367.956 156.395C367.948 156.391 367.939 156.388 367.931 156.384C367.923 156.381 367.914 156.378 367.906 156.375C367.898 156.372 367.889 156.369 367.881 156.366C367.873 156.364 367.863 156.362 367.855 156.359C367.846 156.356 367.839 156.355 367.831 156.353C367.822 156.351 367.814 156.348 367.805 156.347C367.796 156.346 367.787 156.345 367.778 156.344C367.775 156.343 367.772 156.342 367.768 156.342C367.767 156.342 367.766 156.342 367.766 156.342C367.76 156.341 367.755 156.341 367.75 156.34C367.74 156.339 367.731 156.34 367.721 156.34C367.711 156.34 367.7 156.34 367.69 156.341C367.678 156.342 367.667 156.344 367.655 156.346C367.64 156.348 367.626 156.352 367.612 156.356C367.594 156.363 367.578 156.368 367.562 156.377L364.059 158.216C364.119 158.184 364.189 158.173 364.263 158.181C364.339 158.188 364.419 158.214 364.498 158.255C364.587 158.301 364.673 158.366 364.754 158.447C364.754 158.447 364.755 158.448 364.756 158.449C364.838 158.529 364.912 158.626 364.974 158.735L375.876 178.341C375.929 178.437 375.965 178.529 375.987 178.616L375.988 178.617C376.01 178.704 376.016 178.784 376.01 178.857C376.004 178.928 375.985 178.992 375.955 179.044C375.954 179.045 375.953 179.047 375.952 179.048C375.922 179.1 375.881 179.14 375.83 179.167L379.333 177.328C379.375 177.306 379.411 177.274 379.44 177.235C379.445 177.227 379.45 177.218 379.455 177.209C379.456 177.208 379.457 177.207 379.458 177.205C379.46 177.202 379.461 177.199 379.463 177.196C379.469 177.186 379.475 177.173 379.48 177.161C379.484 177.152 379.488 177.143 379.491 177.133C379.494 177.123 379.496 177.113 379.499 177.103C379.501 177.094 379.503 177.085 379.505 177.076C379.507 177.067 379.509 177.058 379.51 177.049C379.511 177.041 379.512 177.032 379.513 177.024C379.513 177.024 379.513 177.021 379.513 177.019C379.514 177.012 379.514 177.005 379.515 176.998C379.515 176.989 379.515 176.98 379.515 176.971Z" fill="#61E041"/>
<path d="M364.497 158.255C364.674 158.346 364.85 158.517 364.973 158.736L375.876 178.341C376.199 178.925 375.911 179.394 375.397 179.126L372.363 177.545L372.296 199.022L356.368 190.716L356.435 169.239L353.502 167.71C352.982 167.438 352.699 166.67 353.03 166.427L364.02 158.24C364.144 158.149 364.322 158.163 364.497 158.255Z" fill="#00CC41"/>
<path d="M360.416 77.74C361.633 78.3743 362.615 79.911 362.611 81.1743L362.532 106.344C362.528 107.607 361.54 108.115 360.323 107.481L319.536 86.2125C318.319 85.5782 317.336 84.0415 317.34 82.7782L317.42 57.6086C317.424 56.3453 318.412 55.8372 319.629 56.4716L360.416 77.74Z" fill="#2689FD"/>
<path d="M283.203 73.7237L283.199 74.8661C283.197 75.539 282.39 75.9583 281.745 75.6205L275.778 72.4944C275.478 72.3376 275.294 72.0473 275.295 71.7346L275.299 70.5922C275.301 69.9184 276.109 69.4999 276.754 69.8377L282.72 72.9639C283.02 73.1207 283.204 73.411 283.203 73.7237Z" fill="white"/>
<path d="M292.905 84.5312L292.901 85.6762C292.899 86.3491 292.092 86.7676 291.447 86.4316L275.762 78.1823C275.461 78.0255 275.276 77.7361 275.277 77.4225L275.281 76.2774C275.283 75.6045 276.089 75.186 276.734 75.522L292.42 83.7704C292.721 83.9272 292.906 84.2176 292.905 84.5312Z" fill="#1AE5FF"/>
<path d="M269.52 136.889L291.049 124.445L297.938 139.222L316.022 127.555L332.384 148.556L354.774 134.556C354.774 134.556 355.771 135.456 357.26 136.801" stroke="#FB0000" stroke-width="2"/>
<path d="M391.006 129.212C386.645 126.938 383.086 128.769 383.071 133.296C383.057 137.823 386.593 143.335 390.955 145.609C395.316 147.883 398.857 146.061 398.871 141.534C398.886 137.008 395.368 131.486 391.006 129.212Z" fill="#FF4272"/>
<path d="M390.988 133.705C389.015 132.677 387.406 133.504 387.4 135.551C387.393 137.597 388.992 140.089 390.964 141.117C392.936 142.145 394.537 141.322 394.543 139.276C394.549 137.229 392.96 134.733 390.988 133.705Z" fill="#212973"/>
<path d="M330.29 69.3565C326.533 67.397 322.975 67.897 321.506 70.9846C319.667 74.8445 321.758 81.3477 326.185 85.8447L327.212 83.6854C324.213 80.5261 322.818 76.0595 324.089 73.3903C325.126 71.2131 327.632 70.8618 330.281 72.2426C330.927 72.5795 331.58 73.0194 332.223 73.5606L333.251 71.4012C332.273 70.5518 331.274 69.8699 330.29 69.3565Z" fill="#F1F1F1"/>
<path d="M333.25 71.4011L332.224 73.5587C332.386 73.6949 332.548 73.8373 332.707 73.987C336.116 77.1588 337.781 82.0313 336.428 84.8743C336.379 84.9755 336.326 85.0741 336.27 85.17C336.25 85.2049 336.229 85.2372 336.207 85.2712C335.221 86.8383 333.332 87.2209 331.238 86.4629C330.912 86.3455 330.578 86.1986 330.243 86.0238C330.154 85.9773 330.063 85.928 329.974 85.8778C329.811 85.7855 329.686 85.7093 329.563 85.6341L329.507 85.5982C329.238 85.4271 328.971 85.2407 328.702 85.0329C328.67 85.0069 328.636 84.98 328.601 84.9531C328.502 84.8743 328.404 84.7936 328.305 84.7112C328.268 84.6807 328.231 84.6503 328.194 84.618C328.065 84.5078 327.937 84.394 327.81 84.2766C327.603 84.084 327.406 83.8869 327.212 83.6853L326.185 85.8446C326.38 86.0427 326.578 86.2407 326.783 86.4297C326.965 86.5991 327.149 86.7613 327.333 86.9181C327.385 86.9629 327.437 87.0077 327.49 87.0516C327.63 87.1689 327.772 87.2836 327.914 87.3956C327.961 87.4341 328.008 87.4718 328.056 87.5076C328.437 87.8006 328.82 88.0694 329.201 88.3104C329.231 88.331 329.262 88.349 329.292 88.3669C329.466 88.478 329.64 88.5801 329.812 88.6787L329.873 88.7118C329.992 88.7781 330.11 88.8427 330.228 88.9045C330.51 89.0514 330.791 89.1849 331.07 89.305C331.282 89.3946 331.479 89.4717 331.678 89.5433C334.873 90.6875 337.732 89.9653 339.011 87.2773C340.93 83.2462 338.566 76.3309 333.734 71.8321C333.572 71.6834 333.412 71.54 333.25 71.4011Z" fill="#FDB913"/>
<path d="M347.941 80.187L347.939 80.8483C347.938 81.2371 347.471 81.4791 347.098 81.2837L343.648 79.4765C343.475 79.386 343.369 79.2185 343.37 79.0375L343.372 78.3771C343.373 77.9883 343.84 77.7463 344.213 77.9417L347.662 79.7489C347.836 79.8394 347.942 80.006 347.941 80.187Z" fill="white"/>
<path d="M358.851 89.1596L358.849 89.8209C358.848 90.2097 358.381 90.4516 358.008 90.2572L343.639 82.7649C343.465 82.6744 343.358 82.5059 343.359 82.3249L343.361 81.6637C343.362 81.2748 343.828 81.032 344.201 81.2264L358.571 88.7197C358.745 88.8102 358.852 88.9786 358.851 89.1596Z" fill="white"/>
<path d="M352.905 92.6459L352.903 93.3071C352.902 93.696 352.436 93.9388 352.063 93.7444L343.618 89.3405C343.444 89.25 343.337 89.0816 343.338 88.9006L343.34 88.2394C343.341 87.8505 343.807 87.6077 344.18 87.8021L352.625 92.2059C352.799 92.2964 352.906 92.4649 352.905 92.6459Z" fill="white"/>
<path d="M356.613 91.2848L356.611 91.947C356.61 92.3358 356.143 92.5777 355.77 92.3833L343.629 86.0522C343.455 85.9617 343.348 85.7941 343.349 85.6131L343.351 84.951C343.352 84.5621 343.818 84.3202 344.191 84.5146L356.333 90.8458C356.506 90.9363 356.614 91.1038 356.613 91.2848Z" fill="#58AFFB"/>
</g>
</g>
<defs>
<linearGradient id="paint0_linear_64_649" x1="240.656" y1="228.48" x2="245.987" y2="183.059" gradientUnits="userSpaceOnUse">
<stop stop-color="#1AE5FF"/>
<stop offset="0.5" stop-color="#82EAF7"/>
<stop offset="1" stop-color="#EAEEEE"/>
</linearGradient>
<linearGradient id="paint1_linear_64_649" x1="409.564" y1="307.328" x2="425.206" y2="268.535" gradientUnits="userSpaceOnUse">
<stop stop-color="#1AE5FF"/>
<stop offset="0.5" stop-color="#82EAF7"/>
<stop offset="1" stop-color="#EAEEEE"/>
</linearGradient>
<linearGradient id="paint2_linear_64_649" x1="728.583" y1="217.728" x2="704.806" y2="413.375" gradientUnits="userSpaceOnUse">
<stop stop-color="#1AE5FF"/>
<stop offset="0.36" stop-color="#82EAF7"/>
<stop offset="0.7" stop-color="#EAEEEE"/>
</linearGradient>
<linearGradient id="paint3_linear_64_649" x1="926.859" y1="163.968" x2="915.229" y2="163.968" gradientUnits="userSpaceOnUse">
<stop stop-color="#5155D4"/>
<stop offset="0.5" stop-color="#4BA6EA"/>
<stop offset="1" stop-color="#45F7FF"/>
</linearGradient>
<clipPath id="clip0_64_649">
<rect width="496.023" height="448" fill="white" transform="translate(0.84082)"/>
</clipPath>
</defs>
</svg>
