<svg width="446" height="256" viewBox="0 0 446 256" fill="none" xmlns="http://www.w3.org/2000/svg">
<ellipse cx="2.13683" cy="85.9942" rx="2.13683" ry="1.99419" fill="#3C87F0"/>
<ellipse cx="23.5045" cy="85.9942" rx="2.13683" ry="1.99419" fill="#3C87F0"/>
<ellipse cx="44.8732" cy="85.9942" rx="2.13683" ry="1.99419" fill="#3C87F0"/>
<ellipse cx="66.2408" cy="85.9942" rx="2.13683" ry="1.99419" fill="#3C87F0"/>
<ellipse cx="108.979" cy="85.9942" rx="2.13683" ry="1.99419" fill="#3C87F0"/>
<ellipse cx="87.6097" cy="85.9942" rx="2.13683" ry="1.99419" fill="#3C87F0"/>
<ellipse cx="130.347" cy="85.9942" rx="2.13683" ry="1.99419" fill="#3C87F0"/>
<ellipse cx="151.716" cy="85.9942" rx="2.13683" ry="1.99419" fill="#3C87F0"/>
<ellipse cx="2.13683" cy="109.924" rx="2.13683" ry="1.99419" fill="#3C87F0"/>
<ellipse cx="23.5045" cy="109.924" rx="2.13683" ry="1.99419" fill="#3C87F0"/>
<ellipse cx="44.8732" cy="109.924" rx="2.13683" ry="1.99419" fill="#3C87F0"/>
<ellipse cx="66.2408" cy="109.924" rx="2.13683" ry="1.99419" fill="#3C87F0"/>
<ellipse cx="108.977" cy="109.924" rx="2.13683" ry="1.99419" fill="#3C87F0"/>
<ellipse cx="87.6097" cy="109.924" rx="2.13683" ry="1.99419" fill="#3C87F0"/>
<ellipse cx="130.347" cy="109.924" rx="2.13683" ry="1.99419" fill="#3C87F0"/>
<ellipse cx="151.716" cy="109.924" rx="2.13683" ry="1.99419" fill="#3C87F0"/>
<ellipse cx="2.13683" cy="133.855" rx="2.13683" ry="1.99419" fill="#3C87F0"/>
<ellipse cx="23.5045" cy="133.855" rx="2.13683" ry="1.99419" fill="#3C87F0"/>
<ellipse cx="44.8732" cy="133.855" rx="2.13683" ry="1.99419" fill="#3C87F0"/>
<ellipse cx="66.2408" cy="133.855" rx="2.13683" ry="1.99419" fill="#3C87F0"/>
<ellipse cx="108.977" cy="133.855" rx="2.13683" ry="1.99419" fill="#3C87F0"/>
<ellipse cx="87.6097" cy="133.855" rx="2.13683" ry="1.99419" fill="#3C87F0"/>
<ellipse cx="130.347" cy="133.855" rx="2.13683" ry="1.99419" fill="#3C87F0"/>
<ellipse cx="151.716" cy="133.855" rx="2.13683" ry="1.99419" fill="#3C87F0"/>
<ellipse cx="2.13683" cy="157.785" rx="2.13683" ry="1.99419" fill="#3C87F0"/>
<ellipse cx="23.5045" cy="157.785" rx="2.13683" ry="1.99419" fill="#3C87F0"/>
<ellipse cx="44.8732" cy="157.785" rx="2.13683" ry="1.99419" fill="#3C87F0"/>
<ellipse cx="66.2408" cy="157.785" rx="2.13683" ry="1.99419" fill="#3C87F0"/>
<ellipse cx="108.977" cy="157.785" rx="2.13683" ry="1.99419" fill="#3C87F0"/>
<ellipse cx="87.6097" cy="157.785" rx="2.13683" ry="1.99419" fill="#3C87F0"/>
<ellipse cx="130.347" cy="157.785" rx="2.13683" ry="1.99419" fill="#3C87F0"/>
<ellipse cx="151.716" cy="157.785" rx="2.13683" ry="1.99419" fill="#3C87F0"/>
<ellipse cx="3.56042" cy="181.715" rx="2.13683" ry="1.99419" fill="#3C87F0"/>
<ellipse cx="24.9296" cy="181.715" rx="2.13683" ry="1.99419" fill="#3C87F0"/>
<ellipse cx="46.2987" cy="181.715" rx="2.13683" ry="1.99419" fill="#3C87F0"/>
<ellipse cx="67.6664" cy="181.715" rx="2.13683" ry="1.99419" fill="#3C87F0"/>
<ellipse cx="110.403" cy="181.715" rx="2.13683" ry="1.99419" fill="#3C87F0"/>
<ellipse cx="89.0353" cy="181.715" rx="2.13683" ry="1.99419" fill="#3C87F0"/>
<ellipse cx="131.772" cy="181.715" rx="2.13683" ry="1.99419" fill="#3C87F0"/>
<ellipse cx="153.14" cy="181.715" rx="2.13683" ry="1.99419" fill="#3C87F0"/>
<ellipse cx="3.56042" cy="205.645" rx="2.13683" ry="1.99419" fill="#3C87F0"/>
<ellipse cx="24.9296" cy="205.645" rx="2.13683" ry="1.99419" fill="#3C87F0"/>
<ellipse cx="46.2987" cy="205.645" rx="2.13683" ry="1.99419" fill="#3C87F0"/>
<ellipse cx="67.6664" cy="205.645" rx="2.13683" ry="1.99419" fill="#3C87F0"/>
<ellipse cx="110.403" cy="205.645" rx="2.13683" ry="1.99419" fill="#3C87F0"/>
<ellipse cx="89.0353" cy="205.645" rx="2.13683" ry="1.99419" fill="#3C87F0"/>
<ellipse cx="131.772" cy="205.645" rx="2.13683" ry="1.99419" fill="#3C87F0"/>
<ellipse cx="153.14" cy="205.645" rx="2.13683" ry="1.99419" fill="#3C87F0"/>
<ellipse cx="3.56042" cy="229.576" rx="2.13683" ry="1.99419" fill="#3C87F0"/>
<ellipse cx="24.9296" cy="229.576" rx="2.13683" ry="1.99419" fill="#3C87F0"/>
<ellipse cx="46.2987" cy="229.576" rx="2.13683" ry="1.99419" fill="#3C87F0"/>
<ellipse cx="67.6664" cy="229.576" rx="2.13683" ry="1.99419" fill="#3C87F0"/>
<ellipse cx="110.403" cy="229.576" rx="2.13683" ry="1.99419" fill="#3C87F0"/>
<ellipse cx="89.0353" cy="229.576" rx="2.13683" ry="1.99419" fill="#3C87F0"/>
<ellipse cx="131.772" cy="229.576" rx="2.13683" ry="1.99419" fill="#3C87F0"/>
<ellipse cx="153.14" cy="229.576" rx="2.13683" ry="1.99419" fill="#3C87F0"/>
<ellipse cx="3.56042" cy="253.506" rx="2.13683" ry="1.99419" fill="#3C87F0"/>
<ellipse cx="24.9296" cy="253.506" rx="2.13683" ry="1.99419" fill="#3C87F0"/>
<ellipse cx="46.2987" cy="253.506" rx="2.13683" ry="1.99419" fill="#3C87F0"/>
<ellipse cx="67.6664" cy="253.506" rx="2.13683" ry="1.99419" fill="#3C87F0"/>
<ellipse cx="110.403" cy="253.506" rx="2.13683" ry="1.99419" fill="#3C87F0"/>
<ellipse cx="89.0353" cy="253.506" rx="2.13683" ry="1.99419" fill="#3C87F0"/>
<ellipse cx="131.772" cy="253.506" rx="2.13683" ry="1.99419" fill="#3C87F0"/>
<ellipse cx="153.14" cy="253.506" rx="2.13683" ry="1.99419" fill="#3C87F0"/>
<rect x="214.941" width="230.466" height="151.515" rx="10" fill="#3C87F0" fill-opacity="0.57"/>
<g filter="url(#filter0_d_64_570)">
<rect x="59.1528" y="31.4849" width="355.302" height="176.515" rx="10" fill="#FDFDFD"/>
</g>
<g filter="url(#filter1_d_64_570)">
<path d="M98.8449 104.292C97.5905 96.0941 100.339 87.4645 107.093 81.1577C113.845 74.852 123.087 72.2854 131.865 73.4568C137.185 66.832 145.663 62.5454 155.213 62.5454C164.763 62.5454 173.241 66.832 178.561 73.4568C187.34 72.2854 196.581 74.852 203.333 81.1577C210.087 87.4645 212.836 96.0941 211.581 104.292C218.676 109.26 223.266 117.177 223.266 126.094C223.266 135.012 218.676 142.929 211.581 147.897C212.836 156.095 210.087 164.723 203.333 171.03C196.581 177.337 187.34 179.903 178.561 178.732C173.241 185.357 164.763 189.643 155.213 189.643C145.663 189.643 137.185 185.357 131.865 178.732C123.087 179.903 113.845 177.337 107.093 171.03C100.339 164.723 97.5905 156.095 98.8449 147.897C91.7505 142.929 87.1602 135.012 87.1602 126.094C87.1602 117.177 91.7505 109.26 98.8449 104.292Z" fill="#3C87F0"/>
<path d="M136.839 131.634L149.284 147.103C149.395 147.241 149.609 147.223 149.696 147.07L173.456 105.123" stroke="#FDFDFD" stroke-width="18" stroke-linecap="round"/>
</g>
<g filter="url(#filter2_d_64_570)">
<path d="M262.649 104.292C261.395 96.0941 264.143 87.4645 270.897 81.1577C277.65 74.852 286.891 72.2854 295.669 73.4568C300.989 66.832 309.468 62.5454 319.017 62.5454C328.567 62.5454 337.045 66.832 342.365 73.4568C351.144 72.2854 360.385 74.852 367.138 81.1577C373.891 87.4645 376.64 96.0941 375.385 104.292C382.48 109.26 387.07 117.177 387.07 126.094C387.07 135.012 382.48 142.929 375.385 147.897C376.64 156.095 373.891 164.723 367.138 171.03C360.385 177.337 351.144 179.903 342.365 178.732C337.045 185.357 328.567 189.643 319.017 189.643C309.468 189.643 300.989 185.357 295.669 178.732C286.891 179.903 277.65 177.337 270.897 171.03C264.143 164.723 261.395 156.095 262.649 147.897C255.555 142.929 250.964 135.012 250.964 126.094C250.964 117.177 255.555 109.26 262.649 104.292Z" fill="#C4CDD4"/>
<path d="M300.846 131.634L313.29 147.103C313.401 147.241 313.616 147.223 313.703 147.07L337.463 105.123" stroke="#FDFDFD" stroke-width="18" stroke-linecap="round"/>
</g>
<g filter="url(#filter3_d_64_570)">
<path d="M182.874 104.292C181.62 96.0941 184.369 87.4645 191.122 81.1577C197.875 74.852 207.116 72.2854 215.895 73.4568C221.215 66.832 229.693 62.5454 239.243 62.5454C248.792 62.5454 257.271 66.832 262.591 73.4568C271.369 72.2854 280.61 74.852 287.363 81.1577C294.117 87.4645 296.865 96.0941 295.611 104.292C302.705 109.26 307.296 117.177 307.296 126.094C307.296 135.012 302.705 142.929 295.611 147.897C296.865 156.095 294.117 164.723 287.363 171.03C280.61 177.337 271.369 179.903 262.591 178.732C257.271 185.357 248.792 189.643 239.243 189.643C229.693 189.643 221.215 185.357 215.895 178.732C207.116 179.903 197.875 177.337 191.122 171.03C184.369 164.723 181.62 156.095 182.874 147.897C175.78 142.929 171.19 135.012 171.19 126.094C171.19 117.177 175.78 109.26 182.874 104.292Z" fill="#F2C344"/>
<path d="M215.781 129.38L231.8 143.992C231.908 144.09 232.077 144.076 232.166 143.96L262.636 104.488" stroke="#FDFDFD" stroke-width="18" stroke-linecap="round"/>
</g>
<defs>
<filter id="filter0_d_64_570" x="55.1528" y="31.4849" width="363.302" height="184.515" filterUnits="userSpaceOnUse" color-interpolation-filters="sRGB">
<feFlood flood-opacity="0" result="BackgroundImageFix"/>
<feColorMatrix in="SourceAlpha" type="matrix" values="0 0 0 0 0 0 0 0 0 0 0 0 0 0 0 0 0 0 127 0" result="hardAlpha"/>
<feOffset dy="4"/>
<feGaussianBlur stdDeviation="2"/>
<feComposite in2="hardAlpha" operator="out"/>
<feColorMatrix type="matrix" values="0 0 0 0 0 0 0 0 0 0 0 0 0 0 0 0 0 0 0.5 0"/>
<feBlend mode="normal" in2="BackgroundImageFix" result="effect1_dropShadow_64_570"/>
<feBlend mode="normal" in="SourceGraphic" in2="effect1_dropShadow_64_570" result="shape"/>
</filter>
<filter id="filter1_d_64_570" x="83.1602" y="60.5454" width="144.106" height="135.098" filterUnits="userSpaceOnUse" color-interpolation-filters="sRGB">
<feFlood flood-opacity="0" result="BackgroundImageFix"/>
<feColorMatrix in="SourceAlpha" type="matrix" values="0 0 0 0 0 0 0 0 0 0 0 0 0 0 0 0 0 0 127 0" result="hardAlpha"/>
<feOffset dy="2"/>
<feGaussianBlur stdDeviation="2"/>
<feComposite in2="hardAlpha" operator="out"/>
<feColorMatrix type="matrix" values="0 0 0 0 0 0 0 0 0 0 0 0 0 0 0 0 0 0 0.25 0"/>
<feBlend mode="normal" in2="BackgroundImageFix" result="effect1_dropShadow_64_570"/>
<feBlend mode="normal" in="SourceGraphic" in2="effect1_dropShadow_64_570" result="shape"/>
</filter>
<filter id="filter2_d_64_570" x="246.964" y="60.5454" width="144.106" height="135.098" filterUnits="userSpaceOnUse" color-interpolation-filters="sRGB">
<feFlood flood-opacity="0" result="BackgroundImageFix"/>
<feColorMatrix in="SourceAlpha" type="matrix" values="0 0 0 0 0 0 0 0 0 0 0 0 0 0 0 0 0 0 127 0" result="hardAlpha"/>
<feOffset dy="2"/>
<feGaussianBlur stdDeviation="2"/>
<feComposite in2="hardAlpha" operator="out"/>
<feColorMatrix type="matrix" values="0 0 0 0 0 0 0 0 0 0 0 0 0 0 0 0 0 0 0.25 0"/>
<feBlend mode="normal" in2="BackgroundImageFix" result="effect1_dropShadow_64_570"/>
<feBlend mode="normal" in="SourceGraphic" in2="effect1_dropShadow_64_570" result="shape"/>
</filter>
<filter id="filter3_d_64_570" x="167.19" y="60.5454" width="144.106" height="135.098" filterUnits="userSpaceOnUse" color-interpolation-filters="sRGB">
<feFlood flood-opacity="0" result="BackgroundImageFix"/>
<feColorMatrix in="SourceAlpha" type="matrix" values="0 0 0 0 0 0 0 0 0 0 0 0 0 0 0 0 0 0 127 0" result="hardAlpha"/>
<feOffset dy="2"/>
<feGaussianBlur stdDeviation="2"/>
<feComposite in2="hardAlpha" operator="out"/>
<feColorMatrix type="matrix" values="0 0 0 0 0 0 0 0 0 0 0 0 0 0 0 0 0 0 0.25 0"/>
<feBlend mode="normal" in2="BackgroundImageFix" result="effect1_dropShadow_64_570"/>
<feBlend mode="normal" in="SourceGraphic" in2="effect1_dropShadow_64_570" result="shape"/>
</filter>
</defs>
</svg>
