<svg width="1185" height="363" viewBox="0 0 1185 363" fill="none" xmlns="http://www.w3.org/2000/svg">
<path d="M542.758 267.465C544.339 263.732 546.796 258.875 550.902 253.674C552.938 251.066 555.378 248.377 558.188 245.674C561.048 242.998 564.279 240.322 567.896 237.728C575.182 232.582 584.049 227.834 594.145 224.047C604.241 220.273 615.565 217.446 627.579 216.033C651.927 213.151 677.469 217.131 700.353 223.841C723.321 230.606 743.798 239.965 761.23 248.473C781.405 258.381 800.755 268.906 820.829 278.141C840.852 287.362 861.666 295.335 883.54 299.713C894.461 301.881 905.583 303.226 916.806 303.404C928.012 303.623 939.269 302.855 950.341 301.236C972.501 297.915 993.887 291.109 1013.56 281.887C1033.21 272.624 1051.35 261.084 1067.28 247.801C1075.26 241.173 1082.73 234.119 1089.63 226.723C1091.36 224.884 1092.99 222.977 1094.68 221.11L1099.47 215.306C1101.04 213.343 1102.74 211.477 1104.18 209.446L1108.66 203.463L1110.9 200.472L1112.98 197.398L1117.16 191.264C1119.87 187.147 1122.39 182.921 1124.98 178.749C1127.35 174.481 1129.88 170.269 1132.13 165.946C1134.34 161.61 1136.71 157.328 1138.73 152.923C1147.17 135.427 1154.29 117.478 1160.67 99.3235C1168.73 76.654 1179.94 37.3803 1183.44 38.876C1185.24 39.6582 1184.83 46.7253 1182.38 58.6364C1179.9 70.5338 1175.49 87.3163 1168.41 107.31C1164.1 119.399 1159.47 131.448 1154.17 143.318C1148.91 155.201 1143.19 166.975 1136.54 178.447C1129.93 189.919 1122.76 201.213 1114.43 211.957C1113.4 213.302 1112.45 214.688 1111.35 216.006L1108.09 219.958C1105.88 222.579 1103.83 225.268 1101.47 227.821C1096.91 233.008 1092.04 237.989 1086.94 242.819C1066.53 262.086 1042.2 278.649 1014.85 290.985C987.56 303.28 956.937 311.267 925.488 312.118C914.03 312.433 902.487 311.843 891.163 310.155C879.839 308.522 868.784 305.929 858.099 302.677C836.679 296.158 816.807 287.115 797.625 277.633C778.41 268.137 759.85 258.079 740.551 249.324C721.301 240.555 701.278 232.898 680.262 228.424C669.779 226.188 659.061 224.788 648.309 224.445C637.658 224.033 626.99 225.09 616.659 227.299C606.344 229.522 596.4 232.967 587.381 237.536C578.379 242.106 570.269 247.855 563.959 254.662C557.632 261.441 553.173 269.304 551.305 277.592C549.354 285.88 550.212 294.512 553.123 302.677C553.426 303.72 553.897 304.708 554.334 305.709L555.68 308.715L557.312 311.637L558.12 313.092L559.062 314.505L560.964 317.318C561.637 318.238 562.394 319.116 563.101 320.022C564.464 321.861 566.146 323.521 567.728 325.25C574.29 332.002 582.451 337.696 591.436 342.129C593.472 343.117 595.592 343.954 597.662 344.873C599.849 345.642 601.986 346.492 604.207 347.192C608.649 348.578 613.193 349.813 617.854 350.664C627.158 352.475 636.766 353.271 646.408 353.175C656.049 353.038 665.691 352.05 675.147 350.321C679.875 349.484 684.553 348.386 689.163 347.179C691.485 346.589 693.74 345.861 696.028 345.216C698.266 344.462 700.487 343.652 702.725 342.87C720.527 336.571 736.916 327.61 751.118 316.742C765.369 305.888 777.232 293.002 786.503 279.019C795.741 265.022 802.253 249.831 805.433 234.188C808.613 218.558 808.445 202.489 804.474 186.955C796.633 155.86 775.532 127.153 746.272 106.24C732.508 96.428 716.893 88.3455 700.067 82.637L687.245 78.7947L680.649 77.2852L677.351 76.5305C676.257 76.2698 675.147 76.0228 674.02 75.8581C665.102 74.2526 656.066 72.9489 646.929 72.3726C628.656 71.0552 610.164 71.7002 591.84 73.6899C573.516 75.6797 555.377 79.0829 537.457 83.1859C501.601 91.3919 466.854 103.042 431.284 113.485C413.498 118.713 395.494 123.681 377.12 127.811C358.746 131.956 339.967 135.263 320.836 136.992C304.363 138.501 287.638 139.023 270.896 137.746C254.204 136.498 237.495 133.424 221.864 127.866C206.232 122.363 191.879 113.91 180.723 103.248C169.517 92.6269 161.542 79.3848 159.203 65.1957C157.991 58.0463 158.546 50.7597 160.498 43.8161C162.45 36.8589 165.832 30.1623 170.527 24.1107C175.188 18.0454 181.312 12.6524 188.632 8.49452L191.408 6.97133C192.334 6.4636 193.343 6.07937 194.319 5.62653C195.312 5.20113 196.271 4.74829 197.281 4.33662L200.377 3.26627C204.499 1.82541 208.992 0.94717 213.434 0.411994C222.385 -0.617191 231.438 0.343382 239.834 2.60759C248.231 4.91296 256.072 8.63175 262.55 13.6816C269.028 18.7178 273.924 25.332 276.112 32.5912C278.434 39.7406 277.963 47.384 275.338 54.3824C272.898 61.0104 268.321 67.2541 262.634 72.7431C256.947 78.2732 250.081 83.0624 242.712 87.2477C235.342 91.4468 227.366 94.9735 219.205 97.965C215.116 99.4607 210.96 100.778 206.771 101.958C202.564 103.179 198.391 104.099 194.319 105.046C180.774 108.174 162.433 111.578 143.874 113.65C125.315 115.804 106.604 116.628 92.6715 116.545C91.174 116.545 89.6596 116.545 88.1453 116.545C86.6309 116.504 85.1166 116.477 83.5854 116.435C80.5398 116.353 77.4943 116.271 74.4487 116.202C68.3745 115.9 62.317 115.708 56.4446 115.296C49.6973 114.967 43.5893 114.322 38.104 113.828C32.6186 113.197 27.7558 112.593 23.4819 111.962C19.2249 111.276 15.5736 110.645 12.4944 110.068C9.43198 109.437 6.94169 108.833 5.0235 108.325C-2.68294 106.253 -1.35368 105.306 7.8503 105.142C9.86945 105.101 9.83579 104.634 10.8959 104.401C11.4175 104.277 12.2083 104.222 13.6722 104.291C15.1361 104.332 17.2562 104.483 20.4364 104.826C20.958 104.881 22.018 104.991 22.4892 105.046C41.8058 106.816 61.3411 108.078 81.0783 108.38C100.799 108.668 120.771 108.092 140.559 105.787C152.725 104.483 164.755 102.493 176.685 100.229L185.603 98.4041C188.565 97.7729 191.492 97.0318 194.454 96.3594C200.41 95.0421 205.997 93.4503 211.6 91.5977C222.722 87.8652 233.39 83.1173 242.745 77.1617C252.084 71.2473 260.177 63.947 264.552 55.4528C265.646 53.3395 266.42 51.1439 267.026 48.9346C267.497 46.7116 267.884 44.4611 267.799 42.1969C267.833 41.0716 267.665 39.9327 267.581 38.8074C267.345 37.6959 267.278 36.5158 266.874 35.4729C266.504 34.4025 266.285 33.291 265.814 32.2481L264.3 29.1331C259.487 21.0369 250.283 14.7382 239.784 11.2665C229.217 7.9319 217.237 7.21834 206.737 10.2236C196.153 13.3111 186.899 19.445 180.522 27.2668C174.178 35.0749 170.14 44.3102 169.467 53.71C168.659 63.055 171.183 72.5921 176.164 81.2098C178.637 85.5324 181.683 89.6492 185.182 93.5052C188.733 97.3337 192.738 100.902 197.079 104.168C205.761 110.754 215.924 115.886 226.878 119.729C237.815 123.612 249.543 126.055 261.439 127.564C273.369 129.046 285.518 129.458 297.666 129.156C309.832 128.744 321.98 127.743 334.045 126.178C346.092 124.504 358.073 122.377 369.952 119.825C399.078 113.485 427.565 104.895 456.119 96.2634C470.405 91.9408 484.707 87.5908 499.228 83.5427C513.732 79.4945 528.422 75.7757 543.313 72.6059C558.204 69.4497 573.314 66.8013 588.66 65.0859C603.989 63.3844 619.536 62.5473 635.084 62.959C650.631 63.3706 666.212 65.0585 681.356 68.2833L687.01 69.5732C688.894 70.0123 690.795 70.3965 692.629 70.9866L703.701 74.28C707.285 75.5836 710.835 76.9422 714.403 78.2732C715.294 78.6163 716.186 78.9319 717.061 79.3024L719.619 80.4688L724.751 82.8154C754.432 96.826 779.604 117.41 796.161 142.481L795.859 142.055C804.676 155.023 811.322 169.02 815.192 183.579C819.096 198.125 820.105 213.247 818.069 228.068C814.25 256.13 800.284 283.259 778.898 305.792C768.129 317.017 755.492 327.089 741.342 335.542C737.943 337.806 734.123 339.59 730.455 341.552L727.679 343.007C726.77 343.501 725.828 343.981 724.852 344.379L719.047 346.918C717.112 347.755 715.193 348.633 713.225 349.415L707.184 351.556L701.144 353.683C699.108 354.355 697.021 354.918 694.968 355.536C678.378 360.16 660.878 362.699 643.295 362.561C625.745 362.424 608.044 359.433 592.193 353.066C576.208 346.63 562.865 336.626 553.358 324.701C543.902 312.804 538.299 298.601 539.123 284.316C539.174 283.191 539.359 281.983 539.494 280.68C539.645 279.376 539.746 277.99 540.082 276.577C540.234 275.863 540.385 275.136 540.537 274.381C540.739 273.64 540.957 272.899 541.176 272.13C541.513 270.58 542.186 269.057 542.758 267.465Z" fill="#3C87F0" fill-opacity="0.43"/>
</svg>
