<svg width="533" height="445" viewBox="0 0 533 445" fill="none" xmlns="http://www.w3.org/2000/svg">
<g clip-path="url(#clip0_64_92)">
<mask id="mask0_64_92" style="mask-type:luminance" maskUnits="userSpaceOnUse" x="0" y="17" width="533" height="445">
<path d="M532.928 17H0.19873V461.01H532.928V17Z" fill="white"/>
</mask>
<g mask="url(#mask0_64_92)">
<mask id="mask1_64_92" style="mask-type:luminance" maskUnits="userSpaceOnUse" x="110" y="156" width="67" height="64">
<path d="M110.732 156.178H176.257V219.45H110.732V156.178Z" fill="white"/>
</mask>
<g mask="url(#mask1_64_92)">
<path d="M116.461 167.943C119.551 167.943 122.056 165.34 122.056 162.13C122.056 158.92 119.551 156.317 116.461 156.317C113.37 156.317 110.865 158.92 110.865 162.13C110.865 165.34 113.37 167.943 116.461 167.943Z" fill="white"/>
<path d="M116.461 193.568C119.551 193.568 122.056 190.965 122.056 187.755C122.056 184.545 119.551 181.943 116.461 181.943C113.37 181.943 110.865 184.545 110.865 187.755C110.865 190.965 113.37 193.568 116.461 193.568Z" fill="white"/>
<path d="M116.461 219.221C119.551 219.221 122.056 216.618 122.056 213.407C122.056 210.198 119.551 207.595 116.461 207.595C113.37 207.595 110.865 210.198 110.865 213.407C110.865 216.618 113.37 219.221 116.461 219.221Z" fill="white"/>
<path d="M143.468 167.943C146.559 167.943 149.064 165.34 149.064 162.13C149.064 158.92 146.559 156.317 143.468 156.317C140.377 156.317 137.872 158.92 137.872 162.13C137.872 165.34 140.377 167.943 143.468 167.943Z" fill="white"/>
<path d="M143.468 193.568C146.559 193.568 149.064 190.965 149.064 187.755C149.064 184.545 146.559 181.943 143.468 181.943C140.377 181.943 137.872 184.545 137.872 187.755C137.872 190.965 140.377 193.568 143.468 193.568Z" fill="white"/>
<path d="M143.468 219.221C146.559 219.221 149.064 216.618 149.064 213.407C149.064 210.198 146.559 207.595 143.468 207.595C140.377 207.595 137.872 210.198 137.872 213.407C137.872 216.618 140.377 219.221 143.468 219.221Z" fill="white"/>
<path d="M170.476 167.943C173.567 167.943 176.072 165.34 176.072 162.13C176.072 158.92 173.567 156.317 170.476 156.317C167.385 156.317 164.88 158.92 164.88 162.13C164.88 165.34 167.385 167.943 170.476 167.943Z" fill="white"/>
<path d="M170.476 193.568C173.567 193.568 176.072 190.965 176.072 187.755C176.072 184.545 173.567 181.943 170.476 181.943C167.385 181.943 164.88 184.545 164.88 187.755C164.88 190.965 167.385 193.568 170.476 193.568Z" fill="white"/>
<path d="M170.476 219.221C173.567 219.221 176.072 216.618 176.072 213.407C176.072 210.198 173.567 207.595 170.476 207.595C167.385 207.595 164.88 210.198 164.88 213.407C164.88 216.618 167.385 219.221 170.476 219.221Z" fill="white"/>
</g>
<mask id="mask2_64_92" style="mask-type:luminance" maskUnits="userSpaceOnUse" x="426" y="317" width="96" height="99">
<path d="M426.995 319.319L519.796 317.514L521.274 413.933L428.474 415.738L426.995 319.319Z" fill="white"/>
</mask>
<g mask="url(#mask2_64_92)">
<path d="M427.773 364.5L427.131 319.596C478.016 318.529 519.887 360.422 520.641 413.155L477.311 414.063C476.911 386.126 454.732 363.935 427.773 364.5Z" fill="#04396A"/>
</g>
<mask id="mask3_64_92" style="mask-type:luminance" maskUnits="userSpaceOnUse" x="129" y="105" width="313" height="311">
<path d="M129.247 105.702H441.426V415.399H129.247V105.702Z" fill="white"/>
</mask>
<g mask="url(#mask3_64_92)">
<path d="M159.489 105.841C142.861 105.841 129.38 119.89 129.38 137.22V415.011H441.226H441.223V146.287C441.223 123.951 423.849 105.841 402.415 105.841H159.489Z" fill="#C6DBFF"/>
<path d="M441.226 147.197V117.102C441.226 110.883 436.388 105.841 430.421 105.841H140.185C134.219 105.841 129.381 110.883 129.381 117.102V147.197H441.226Z" fill="#387BBE"/>
<path d="M156.414 126.516C156.414 128.476 154.892 130.062 153.01 130.062C151.129 130.062 149.607 128.476 149.607 126.516C149.607 124.559 151.129 122.972 153.01 122.972C154.888 122.972 156.414 124.559 156.414 126.516Z" fill="white"/>
<path d="M172.149 126.067C172.149 128.027 170.627 129.614 168.746 129.614C166.865 129.614 165.343 128.027 165.343 126.067C165.343 124.11 166.865 122.524 168.746 122.524C170.627 122.524 172.149 124.11 172.149 126.067Z" fill="white"/>
<path d="M186.946 126.516C186.946 128.476 185.421 130.062 183.543 130.062C181.663 130.062 180.14 128.476 180.14 126.516C180.14 124.559 181.663 122.972 183.543 122.972C185.421 122.972 186.946 124.559 186.946 126.516Z" fill="white"/>
</g>
<mask id="mask4_64_92" style="mask-type:luminance" maskUnits="userSpaceOnUse" x="154" y="348" width="235" height="60">
<path d="M154.976 348.947H388.311V407.223H154.976V348.947Z" fill="white"/>
</mask>
<g mask="url(#mask4_64_92)">
<path d="M387.234 407.016H155.736C155.391 407.016 155.109 406.724 155.109 406.363V349.738C155.109 349.377 155.391 349.085 155.736 349.085H387.234C387.58 349.085 387.86 349.377 387.86 349.738V406.363C387.86 406.724 387.58 407.016 387.234 407.016Z" fill="white"/>
<path d="M280.945 386.26H222.845V389.606H280.945V386.26Z" fill="#387BBE"/>
<path d="M164.947 359.037L163.632 396.707L219.639 398.83L220.955 361.159L164.947 359.037Z" fill="#C6DBFF"/>
<path d="M164.92 386.917L164.875 396.753H186.593L173.353 374.223L164.92 386.917ZM164.904 373.401L164.09 396.723L186.564 397.575L187.378 374.253L164.904 373.401Z" fill="#C6DBFF"/>
<path d="M174.688 380.838L175.45 382.145L176.785 380.133L173.353 374.223L169.467 380.075L170.668 382.145L171.588 380.76L173.057 383.293L174.688 380.838Z" fill="white"/>
<path d="M183.649 391.855L186.572 396.754H198.898L190.065 381.888L183.649 391.855ZM183.669 381.312L183.131 396.734L198.878 397.331L199.416 381.908L183.669 381.312Z" fill="#C6DBFF"/>
<path d="M203.518 379.524C206.843 379.524 209.537 376.716 209.537 373.251C209.537 369.786 206.843 366.977 203.518 366.977C200.193 366.977 197.498 369.786 197.498 373.251C197.498 376.716 200.193 379.524 203.518 379.524Z" fill="white"/>
<path d="M191.478 388.503L192.236 389.81L193.57 387.798L190.066 381.888L186.253 387.74L187.454 389.81L188.375 388.425L189.844 390.958L191.478 388.503Z" fill="white"/>
<path d="M223.048 355.947L222.729 365.072L375.454 370.86L375.773 361.735L223.048 355.947Z" fill="#C6DBFF"/>
<path d="M223.048 364.122L222.729 373.246L375.454 379.035L375.773 369.911L223.048 364.122Z" fill="#C6DBFF"/>
<path d="M223.047 372.3L222.729 381.423L375.455 387.21L375.773 378.087L223.047 372.3Z" fill="#C6DBFF"/>
</g>
<mask id="mask5_64_92" style="mask-type:luminance" maskUnits="userSpaceOnUse" x="49" y="313" width="46" height="102">
<path d="M49.5791 313.051H94.8611V414.618H49.5791V313.051Z" fill="white"/>
</mask>
<g mask="url(#mask5_64_92)">
<path d="M73.8821 406.863H79.1375V396.283H70.0364L73.8821 406.863Z" fill="#FFC0CC"/>
<path d="M62.3977 313.19L76.5086 342.405C79.2063 347.992 80.5946 354.169 80.5541 360.426L80.2857 401.208C77.4814 401.208 71.225 401.139 71.225 401.139C71.225 401.139 63.0844 376.01 68.6109 363.772C69.3972 362.036 68.7856 360.557 67.1917 357.195C65.6196 353.886 58.3681 345.031 56.0225 340.298C55.6262 339.498 49.7123 331.326 49.9931 330.926C50.0341 330.868 62.3977 313.19 62.3977 313.19Z" fill="#4EBEFB"/>
<path d="M63.7701 316.031L59.4438 324.526L58.6016 343.747L49.99 330.929L62.3978 313.19L63.7701 316.031Z" fill="#278AC8"/>
<path d="M72.1792 411.869H94.1969C93.9662 410.344 92.9423 409.051 91.5077 408.548L80.875 404.795L80.5851 402.839H71.1841L70.7036 411.873L70.6135 414.234H94.2496L72.1792 411.869Z" fill="#04396A"/>
<path d="M67.1921 393L67.1978 393.052V393H67.1921Z" fill="#2200B0"/>
<path d="M94.2001 411.869H70.7009L70.6135 414.23H94.2496H94.2528V412.532C94.2496 412.305 94.2342 412.087 94.2001 411.869Z" fill="#79DCFA"/>
</g>
<mask id="mask6_64_92" style="mask-type:luminance" maskUnits="userSpaceOnUse" x="8" y="306" width="54" height="105">
<path d="M18.3523 306.431L61.8188 311.459L52.3473 410.485L8.88078 405.457L18.3523 306.431Z" fill="white"/>
</mask>
<g mask="url(#mask6_64_92)">
<path d="M9.28603 403.119L14.7566 406.006L18.48 396.299L10.2354 392.833L9.28603 403.119Z" fill="#FFC0CC"/>
<path d="M60.2445 318.452L60.617 319.433L54.2952 329.073L37.7729 359.952C36.6854 361.988 35.2488 363.798 33.5292 365.309L17.1115 400.546C14.6646 399.981 12.119 399.201 9.67764 398.916C10.6018 388.638 11.7131 377.754 18.4101 369.615C21.1202 366.354 24.4802 363.444 25.9238 359.287C27.1717 355.691 27.9523 341.273 28.8076 337.943C30.0483 333.112 31.2891 328.28 32.5299 323.448L32.0212 320.079C31.571 317.103 32.0856 314.079 33.4844 311.471L35.0267 308.593L60.2445 318.452Z" fill="#4EBEFB"/>
</g>
<mask id="mask7_64_92" style="mask-type:luminance" maskUnits="userSpaceOnUse" x="5" y="401" width="25" height="14">
<path d="M5.95923 401.325H29.3993V414.645H5.95923V401.325Z" fill="white"/>
</mask>
<g mask="url(#mask7_64_92)">
<path d="M26.2668 408.544L16.9712 405.263L17.6105 402.728L8.20407 401.463L6.0918 411.866H28.9587C28.728 410.342 27.7046 409.05 26.2668 408.544Z" fill="#04396A"/>
<path d="M6.09229 411.869L6.10454 414.23H29.0114V412.532C29.0114 412.308 28.9959 412.091 28.9613 411.873H6.09229V411.869Z" fill="#79DCFA"/>
</g>
<mask id="mask8_64_92" style="mask-type:luminance" maskUnits="userSpaceOnUse" x="31" y="252" width="68" height="79">
<path d="M49.1831 252.771L98.2169 268.802L80.6297 330.286L31.5959 314.255L49.1831 252.771Z" fill="white"/>
</mask>
<g mask="url(#mask8_64_92)">
<path d="M84.9678 272.858C85.1146 272.98 85.2687 273.1 85.425 273.223C86.8917 274.377 87.8131 276.102 89.1398 277.414C89.2345 277.509 89.3486 277.607 89.4751 277.603C89.6366 277.592 89.7365 277.427 89.8061 277.275C90.2235 276.399 90.6033 275.633 91.2928 274.95C92.1986 274.053 93.1422 273.195 94.1184 272.376C94.9167 271.704 95.9212 271.027 96.9312 271.352C95.7635 270.664 95.003 269.209 94.0089 268.307C92.8738 267.274 91.4802 266.732 90.1339 265.979C89.8638 265.827 89.5806 265.673 89.2775 265.67C88.9647 265.668 88.6806 265.833 88.4108 265.992C87.5252 266.517 86.6403 267.04 85.752 267.565C85.2675 267.851 84.7742 268.146 84.4125 268.583C82.7247 270.629 83.5179 271.669 84.9678 272.858Z" fill="#FFC0CC"/>
<path d="M75.0284 271.364C73.6833 271.416 72.4207 271.97 71.48 272.925L54.681 290.989C54.5337 291.145 54.3768 291.291 54.213 291.426C52.8604 292.514 51.5276 293.627 50.2168 294.767C49.0916 295.746 48.0741 297.379 46.786 298.032C44.8787 299.003 42.5182 299.204 41.0172 300.744C40.6299 301.14 40.3203 301.612 39.9027 301.975C39.1435 302.631 38.1175 302.854 37.1592 303.163C36.2043 303.47 35.2075 303.952 34.7815 304.879C33.7307 307.165 38.6562 309.229 40.0725 310.171C41.6893 311.246 51.393 318.184 52.7491 318.919C54.8249 320.043 56.7295 321.945 59.2187 321.696C63.9327 321.224 64.3675 316.315 65.9974 312.635C67.1262 310.086 68.2887 307.489 70.1568 305.459C72.7 302.697 76.6875 301.917 80.2695 301.808C82.325 301.749 88.0559 300.938 90.3047 293.499C90.6027 292.499 90.7594 290.296 90.6479 289.236L89.8514 281.686L91.4198 278.536L83.608 271.033L75.0284 271.364Z" fill="url(#paint0_radial_64_92)"/>
</g>
<mask id="mask9_64_92" style="mask-type:luminance" maskUnits="userSpaceOnUse" x="77" y="285" width="51" height="27">
<path d="M78.0371 285.483L127.606 286.459L127.211 311.911L77.642 310.936L78.0371 285.483Z" fill="white"/>
</mask>
<g mask="url(#mask9_64_92)">
<path d="M87.7134 285.827L97.0316 300.313C97.395 300.889 97.9798 301.279 98.6371 301.383L118.856 304.6C119.813 304.769 120.763 304.275 121.198 303.379L124.858 295.835L124.931 290.86C124.951 289.447 126.048 288.313 127.413 288.298L127.198 303.066L123.747 308.097C123.383 308.629 122.803 308.962 122.171 309.001L97.1985 310.523C96.0036 310.594 94.8413 310.082 94.0612 309.138L78.0702 290.704L87.7134 285.827Z" fill="#FFC0CC"/>
</g>
<mask id="mask10_64_92" style="mask-type:luminance" maskUnits="userSpaceOnUse" x="89" y="248" width="23" height="26">
<path d="M90.9314 248.191L111.233 249.381L110.092 273.682L89.7906 272.492L90.9314 248.191Z" fill="white"/>
</mask>
<g mask="url(#mask10_64_92)">
<path d="M108.571 254.941L108.405 258.686C108.405 258.686 108.115 263.154 109.987 265.115L108.582 265.39L108.534 266.815C108.409 270.394 105.469 273.141 101.986 272.924L97.8658 272.669C95.8403 272.543 94.0961 271.107 93.5289 269.093L90.5444 258.502L92.1862 252.564C92.186 252.567 104.194 249.175 108.571 254.941Z" fill="#FFC0CC"/>
</g>
<mask id="mask11_64_92" style="mask-type:luminance" maskUnits="userSpaceOnUse" x="41" y="233" width="76" height="83">
<path d="M55.229 233.12L116.338 247.193L102.933 315.452L41.8249 301.379L55.229 233.12Z" fill="white"/>
</mask>
<g mask="url(#mask11_64_92)">
<path d="M97.1432 260.323C97.1432 260.323 110.633 264.696 113.573 255.752C115.258 250.624 110.128 246.125 105.683 245.12C102.029 244.293 98.1728 244.825 94.8257 246.368C88.8743 249.112 84.7664 254.817 78.4376 256.771C73.9124 258.167 68.9746 257.9 64.4295 259.231C57.521 261.256 50.5592 267.561 47.6953 274.258C47.0737 275.712 46.5962 277.31 46.864 278.899C47.1887 280.797 48.5077 282.358 49.6474 283.922C50.7878 285.483 51.8375 287.364 51.4843 289.236C51.2391 290.535 50.3566 291.582 49.4681 292.528C48.1756 293.905 46.1937 297.406 47.1001 299.521C48.3363 302.41 51.2381 299.59 52.9515 298.396C60.8589 292.887 65.9448 284.673 73.2984 278.634C75.9231 276.476 78.8942 274.803 81.8505 273.136C85.1742 271.265 88.8911 269.631 92.0014 267.423C92.6315 266.974 96.3323 263.156 95.9396 262.644C95.924 262.625 93.6543 259.66 95.3194 258.833C96.9929 257.993 97.1432 260.323 97.1432 260.323Z" fill="#04396A"/>
</g>
<mask id="mask12_64_92" style="mask-type:luminance" maskUnits="userSpaceOnUse" x="94" y="372" width="54" height="57">
<path d="M94.7153 424.81L97.412 372.955L147.605 376.203L144.908 428.057L94.7153 424.81Z" fill="white"/>
</mask>
<g mask="url(#mask12_64_92)">
<path d="M127.124 383.118L127.386 377.664C127.441 376.564 126.611 375.607 125.533 375.534L118.752 375.077C117.674 375.004 116.762 375.84 116.707 376.947L116.496 381.213C116.462 381.919 115.987 382.5 115.334 382.7C114.936 382.823 114.544 382.96 114.158 383.111C113.514 383.36 112.785 383.208 112.326 382.672L109.529 379.455C108.806 378.622 107.575 378.538 106.775 379.267L101.739 383.863C100.939 384.592 100.877 385.856 101.6 386.689L104.415 389.934C104.861 390.448 104.958 391.17 104.662 391.778C104.462 392.2 104.253 392.656 104.082 393.046C103.812 393.661 103.195 394.035 102.533 393.99L98.3297 393.703C97.2512 393.629 96.3394 394.466 96.2851 395.566L95.9416 402.52C95.8869 403.628 96.7168 404.577 97.7889 404.65L101.954 404.935C102.642 404.982 103.208 405.478 103.421 406.159C103.552 406.591 103.704 407.01 103.862 407.43C104.122 408.095 103.979 408.842 103.471 409.305L100.389 412.133C99.5889 412.863 99.5332 414.133 100.256 414.959L104.82 420.191C105.543 421.024 106.781 421.102 107.574 420.373L110.684 417.526C111.171 417.075 111.879 416.987 112.476 417.294C112.891 417.506 113.338 417.728 113.721 417.91C114.324 418.197 114.698 418.835 114.665 419.515L114.464 423.828C114.41 424.929 115.247 425.886 116.319 425.959L123.099 426.409C124.177 426.483 125.09 425.639 125.144 424.538L125.342 420.265C125.376 419.559 125.85 418.978 126.505 418.77C126.903 418.648 127.295 418.511 127.674 418.36C128.317 418.111 129.047 418.263 129.513 418.792L132.31 422.009C133.032 422.842 134.271 422.92 135.065 422.191L140.094 417.587C140.894 416.858 140.95 415.587 140.227 414.762L137.405 411.522C136.959 411.014 136.862 410.285 137.15 409.678C137.35 409.256 137.559 408.8 137.731 408.41C138 407.795 138.617 407.421 139.279 407.466L143.483 407.747C144.562 407.821 145.473 406.983 145.528 405.876L145.859 398.921C145.913 397.814 145.083 396.865 144.005 396.791L139.84 396.512C139.152 396.465 138.579 395.969 138.372 395.295C138.246 394.884 138.107 394.479 137.954 394.081C137.701 393.416 137.837 392.668 138.352 392.206L141.441 389.385C142.241 388.656 142.303 387.386 141.574 386.559L137.017 381.321C136.294 380.488 135.063 380.404 134.263 381.139L131.153 383.986C130.666 384.437 129.956 384.524 129.361 384.218C128.377 383.681 127.195 383.143 127.124 383.118ZM118.698 410.319C112.758 408.754 109.69 402.152 112.125 396.567C113.975 392.326 118.693 389.99 123.12 391.158C129.06 392.723 132.128 399.325 129.694 404.91C127.844 409.152 123.125 411.487 118.698 410.319Z" fill="#387BBE"/>
</g>
<mask id="mask13_64_92" style="mask-type:luminance" maskUnits="userSpaceOnUse" x="39" y="316" width="95" height="99">
<path d="M41.0745 316.073L133.875 317.877L132.396 414.296L39.5957 412.491L41.0745 316.073Z" fill="white"/>
</mask>
<g mask="url(#mask13_64_92)">
<path d="M83.0708 412.613L39.7403 411.704C40.4942 358.971 82.3649 317.08 133.25 318.147L132.608 363.05C105.65 362.485 83.4702 384.676 83.0708 412.613Z" fill="#387BBE"/>
</g>
<mask id="mask14_64_92" style="mask-type:luminance" maskUnits="userSpaceOnUse" x="439" y="391" width="22" height="24">
<path d="M439.141 391.794H460.983V414.55H439.141V391.794Z" fill="white"/>
</mask>
<g mask="url(#mask14_64_92)">
<path d="M459.844 414.22H440.088C439.639 414.22 439.275 413.839 439.275 413.372V392.781C439.275 392.313 439.639 391.933 440.088 391.933H459.844C460.294 391.933 460.658 392.313 460.658 392.781V413.372C460.658 413.839 460.297 414.22 459.844 414.22Z" fill="#4EBEFB"/>
<path d="M444.368 403.743V403.776L447.265 404.764V406.441L442.627 404.471V403.018L447.265 401.049V402.722L444.368 403.743Z" fill="white"/>
<path d="M449.499 407.4H447.709L450.315 398.753H452.107L449.499 407.4Z" fill="white"/>
<path d="M455.569 403.763V403.73L452.698 402.735V401.061L457.312 403.031V404.484L452.698 406.454V404.78L455.569 403.763Z" fill="white"/>
</g>
<mask id="mask15_64_92" style="mask-type:luminance" maskUnits="userSpaceOnUse" x="127" y="267" width="113" height="69">
<path d="M127.136 267.076H239.009V335.897H127.136V267.076Z" fill="white"/>
</mask>
<g mask="url(#mask15_64_92)">
<path d="M237.589 335.458H128.349C127.754 335.458 127.27 334.954 127.27 334.333V268.34C127.27 267.719 127.754 267.215 128.349 267.215H237.585C238.18 267.215 238.664 267.719 238.664 268.34V334.333C238.667 334.954 238.184 335.458 237.589 335.458Z" fill="white"/>
<path d="M227.377 295.002C223.962 297.058 222.436 301.237 220.481 304.803C218.522 308.37 215.044 311.893 211.199 310.99C208.245 310.294 206.401 307.238 205.306 304.296C204.215 301.355 203.457 298.123 201.345 295.861C200.537 294.996 199.443 294.281 198.291 294.42C197.627 294.502 197.022 294.863 196.485 295.275C193.435 297.623 192.11 301.656 189.745 304.745C187.29 307.953 183.779 310.059 180.326 312.033C176.362 314.295 171.961 316.555 167.516 315.694C163.907 314.991 160.966 312.349 158.287 309.735C156.047 307.547 153.371 305.138 150.336 305.616C148.187 305.954 146.515 307.681 145.036 309.342C140.844 314.058 136.902 320.706 133.24 325.882V325.884H232.913C234.248 323.911 234.092 318.148 233.881 315.743C233.369 309.952 232.861 304.166 232.352 298.377C232.23 296.982 231.99 295.379 230.839 294.654C230.453 294.411 230.022 294.309 229.58 294.309C228.828 294.309 228.04 294.603 227.377 295.002Z" fill="#C6DBFF"/>
</g>
<mask id="mask16_64_92" style="mask-type:luminance" maskUnits="userSpaceOnUse" x="138" y="283" width="23" height="6">
<path d="M138.045 283.651H160.952V288.091H138.045V283.651Z" fill="white"/>
</mask>
<g mask="url(#mask16_64_92)">
<path d="M160.572 283.79H138.178V287.948H160.572V283.79Z" fill="#4EBEFB"/>
</g>
<mask id="mask17_64_92" style="mask-type:luminance" maskUnits="userSpaceOnUse" x="138" y="274" width="46" height="6">
<path d="M138.044 274.712H183.326V279.152H138.044V274.712Z" fill="white"/>
</mask>
<g mask="url(#mask17_64_92)">
<path d="M138.237 273.156L138.032 279.003L182.908 280.704L183.113 274.857L138.237 273.156Z" fill="url(#paint1_linear_64_92)"/>
</g>
<mask id="mask18_64_92" style="mask-type:luminance" maskUnits="userSpaceOnUse" x="221" y="356" width="81" height="59">
<path d="M221.46 356.7H301.902V414.976H221.46V356.7Z" fill="white"/>
</mask>
<g mask="url(#mask18_64_92)">
<path d="M238.115 406.841L232.516 409.435L223.566 411.822C222.412 412.092 221.593 413.161 221.593 414.396L247.705 414.279L247.067 409.507L243.335 406.841H238.115Z" fill="#FFC0CC"/>
<path d="M235.538 411.536L232.519 409.433L223.754 410.977C222.6 411.246 221.595 413.157 221.595 414.392L247.71 414.276L247.07 409.504L244.939 411.448L241.215 411.415C239.496 411.757 237.08 412.41 235.538 411.536Z" fill="#04396A"/>
<path d="M245.99 409.506L238.115 407.43V396.114H245.99V409.506Z" fill="#FFC0CC"/>
<path d="M301.569 375.634C301.569 375.634 251.682 356.839 245.872 359.166C245.872 359.166 238.432 359.16 236.852 371.503L237.139 398.153H246.916L249.496 377.809C249.899 376.513 251.34 375.921 252.483 376.584L282.633 394.088L301.569 375.634Z" fill="#04396A"/>
</g>
<mask id="mask19_64_92" style="mask-type:luminance" maskUnits="userSpaceOnUse" x="245" y="380" width="73" height="35">
<path d="M245.642 380.261H317.028V414.671H245.642V380.261Z" fill="white"/>
</mask>
<g mask="url(#mask19_64_92)">
<path d="M278.819 380.399L248.657 399.768C246.866 400.919 245.775 402.953 245.775 405.144V407.004C245.775 411.084 248.947 414.389 252.864 414.389L293.846 412.279V399.839C293.846 399.839 306.406 394.742 305.783 383.842L278.819 380.399Z" fill="#04396A"/>
<path d="M296.048 398.733L316.657 414.392L293.846 412.282V399.842L296.048 398.733Z" fill="#FFC0CC"/>
<path d="M296.048 398.733L293.846 399.842V405.173C295.222 404.48 296.841 404.549 298.16 405.352L308.303 413.41C309.108 414.048 310.09 414.396 311.101 414.396H316.657L296.048 398.733Z" fill="#04396A"/>
</g>
<mask id="mask20_64_92" style="mask-type:luminance" maskUnits="userSpaceOnUse" x="263" y="303" width="61" height="97">
<path d="M280.025 303.763L323.468 313.739L306.571 399.544L263.128 389.569L280.025 303.763Z" fill="white"/>
</mask>
<g mask="url(#mask20_64_92)">
<path d="M289.965 309.399C289.965 309.399 292.984 319.924 288.172 324.637L301.603 326.475L299.627 308.245L289.965 309.399Z" fill="#FFC0CC"/>
<path d="M305.979 332.411C301.548 340.39 307.96 390.361 307.96 390.361C299.659 397.649 286.175 381.573 275.493 381.448C275.493 381.448 279.385 362.002 277.198 352.382L273.652 342.552C272.85 340.328 273.43 337.873 275.12 336.334L287.634 324.953L302.804 322.812C304.077 322.632 305.345 323.3 305.968 324.471C307.299 326.99 307.324 329.989 305.979 332.411Z" fill="white"/>
</g>
<mask id="mask21_64_92" style="mask-type:luminance" maskUnits="userSpaceOnUse" x="277" y="286" width="42" height="64">
<path d="M287.252 286.778L318.104 292.881L308.634 349.332L277.781 343.229L287.252 286.778Z" fill="white"/>
</mask>
<g mask="url(#mask21_64_92)">
<path d="M301.214 306.958C301.219 305.837 300.902 304.734 300.592 303.648C299.645 300.346 298.615 296.899 296.251 294.41C295.213 293.317 293.946 292.446 293.036 291.239C292.748 291.347 292.464 291.455 292.176 291.564L290.697 291.526C289.236 291.498 287.782 292.232 287.029 293.485C286.276 294.738 286.305 296.478 287.185 297.692C287.719 298.429 288.498 298.931 289.188 299.517C290.67 300.768 291.794 302.452 292.386 304.307C292.598 304.972 292.744 305.662 293.045 306.294C293.969 308.237 296.096 309.221 298.051 310.045C298.421 310.202 298.809 310.358 299.199 310.313C299.494 310.278 299.763 310.124 299.994 309.936C300.844 309.243 301.209 308.079 301.214 306.958Z" fill="#04396A"/>
<path d="M301.343 303.212C300.56 301.016 299.775 298.813 298.743 296.722C298.438 296.1 298.097 295.474 297.573 295.026C297.062 294.586 296.419 294.353 295.787 294.15C294.227 293.646 292.627 293.268 291.016 293.02L290.712 293.322C290.073 294.393 289.553 295.523 289.109 296.693C288.638 297.931 286.242 300.615 285.894 301.908C285.843 302.099 287.516 302.639 287.465 302.832C287.285 303.516 287.114 304.202 286.947 304.889C286.63 306.169 286.597 305.723 286.654 307.055C286.712 308.384 287.201 309.769 288.232 310.618C289.396 311.57 290.997 311.669 292.461 311.549C294.517 311.383 296.532 310.877 298.413 310.059C299.996 309.371 301.622 308.261 301.923 306.521C302.11 305.411 301.724 304.28 301.343 303.212Z" fill="#FFC0CC"/>
<path d="M309.658 331.154C310.976 324.74 309.729 317.967 310.634 311.466C311.337 306.419 313.27 301.05 310.997 296.416C309.12 292.591 304.872 290.554 300.787 289.656C298.793 289.217 296.724 288.979 294.74 289.363C293.53 289.596 292.306 290.151 291.298 290.845C290.738 291.229 290.137 291.564 290.264 292.253C290.376 292.872 291.282 293.585 291.77 293.893C292.464 294.328 293.259 294.545 293.985 294.921C295.706 295.812 295.605 297.183 295.572 298.893C295.532 300.896 295.376 302.897 295.101 304.877C294.992 305.649 294.868 306.437 294.881 307.218C294.887 307.613 294.933 308.006 295.032 308.389C295.392 309.812 296.449 310.938 297.391 312.066C298.152 312.977 299.104 314.185 299.165 315.425C299.238 316.864 298.462 318.254 298.595 319.767C298.807 322.208 300.6 324.195 301.793 326.354C303.567 329.57 304.043 333.363 303.773 336.984C303.502 340.606 305.667 345.595 305.788 348.431C309.19 343.344 308.409 337.224 309.658 331.154Z" fill="#04396A"/>
</g>
<mask id="mask22_64_92" style="mask-type:luminance" maskUnits="userSpaceOnUse" x="222" y="314" width="82" height="46">
<path d="M226.949 314.981L303.197 330.161L298.265 359.042L222.017 343.862L226.949 314.981Z" fill="white"/>
</mask>
<g mask="url(#mask22_64_92)">
<path d="M240.907 327.791L260.809 350.337C261.65 351.289 262.91 351.737 264.124 351.511L294.431 345.933C297.513 345.366 299.297 342.127 298.193 339.1C297.28 336.599 294.686 335.133 292.154 335.688L263.674 341.946L244.525 324.725L243.067 321.62L239.212 317.776L238.606 317.484L238.261 319.523L238.587 319.694L238.819 321.019L234.213 319.222L228.001 316.745C227.712 316.908 227.624 317.77 227.776 318.08L232.825 320.836L232.675 321.417L226.688 318.524C226.38 318.681 226.298 319.589 226.454 319.91L232.416 323.103L232.144 323.808L226.678 321.281C226.471 321.391 226.412 322.004 226.52 322.221L231.678 325.076C231.727 325.185 231.673 325.48 231.574 325.541L226.801 323.681C225.955 324.068 226.528 324.808 226.613 324.95L235.565 328.109C236.548 328.455 237.599 328.522 238.602 328.299L240.907 327.791Z" fill="#FFC0CC"/>
<path d="M299.765 338.065C298.777 335.351 295.979 333.762 293.249 334.36L277.747 336.499C275.861 339.269 281.959 345.228 280.589 349.955L295.71 345.466C299.035 344.856 300.96 341.345 299.765 338.065Z" fill="white"/>
</g>
<mask id="mask23_64_92" style="mask-type:luminance" maskUnits="userSpaceOnUse" x="324" y="330" width="16" height="19">
<path d="M324.498 330.939H339.947V348.303H324.498V330.939Z" fill="white"/>
</mask>
<g mask="url(#mask23_64_92)">
<path d="M339.597 339.502C339.597 344.148 336.246 347.915 332.113 347.915C327.98 347.915 324.63 344.148 324.63 339.502C324.63 334.855 327.98 331.089 332.113 331.089C336.246 331.089 339.597 334.855 339.597 339.502Z" fill="#4EBEFB"/>
<path d="M334.828 344.328L332.244 342.848C332.195 342.82 332.136 342.82 332.086 342.852L329.54 344.405C329.416 344.482 329.266 344.363 329.288 344.205L329.74 340.99C329.75 340.926 329.731 340.863 329.69 340.818L327.591 338.574C327.488 338.465 327.541 338.268 327.682 338.244L330.542 337.732C330.598 337.721 330.645 337.682 330.669 337.623L331.917 334.685C331.979 334.54 332.16 334.537 332.226 334.681L333.542 337.584C333.567 337.641 333.617 337.679 333.673 337.69L336.546 338.117C336.686 338.139 336.746 338.332 336.645 338.447L334.596 340.751C334.555 340.797 334.537 340.86 334.55 340.923L335.078 344.125C335.102 344.28 334.955 344.402 334.828 344.328Z" fill="white"/>
</g>
<mask id="mask24_64_92" style="mask-type:luminance" maskUnits="userSpaceOnUse" x="299" y="114" width="60" height="34">
<path d="M299.457 114.126H358.59V147.538H299.457V114.126Z" fill="white"/>
</mask>
<g mask="url(#mask24_64_92)">
<path d="M308.153 114.245L342.456 141.251L351.363 145.137H356.825C357.521 145.137 358.085 145.643 358.085 146.267C358.085 146.891 357.521 147.396 356.825 147.396H350.69H341.249C339.91 147.396 338.669 146.773 337.971 145.75L337.243 144.687L310.021 127.516L299.591 122.087L308.153 114.245Z" fill="#FFC0CC"/>
</g>
<mask id="mask25_64_92" style="mask-type:luminance" maskUnits="userSpaceOnUse" x="208" y="117" width="25" height="51">
<path d="M208.599 118.764L228.488 117.44L232.089 166.391L212.2 167.715L208.599 118.764Z" fill="white"/>
</mask>
<g mask="url(#mask25_64_92)">
<path d="M221.189 118.071L211.948 125.439L211.273 154.687L211.718 160.962C211.752 161.448 212.025 161.893 212.469 162.178C212.83 162.413 213.281 162.524 213.734 162.492L218.059 162.193L218.328 165.993C218.368 166.55 218.913 166.964 219.548 166.92C220.191 166.876 220.675 166.378 220.622 165.815L220.034 159.499L220.829 159.369C221.556 159.249 222.031 158.616 221.859 157.988L221.528 156.776C221.463 156.176 221.125 155.632 220.586 155.268L219.144 154.292L217.351 152.159L219.603 131.683L228.649 125.288L221.189 118.071Z" fill="#FFC0CC"/>
</g>
<mask id="mask26_64_92" style="mask-type:luminance" maskUnits="userSpaceOnUse" x="219" y="91" width="91" height="57">
<path d="M219.481 91.6019H309.512V147.925H219.481V91.6019Z" fill="white"/>
</mask>
<g mask="url(#mask26_64_92)">
<path d="M270.907 93.4763L285.645 98.1845C287.544 98.7912 289.319 99.6713 290.904 100.795L308.904 113.561L298.708 122.898C298.708 122.898 288.271 117.422 287.841 118.288C286.723 120.533 285.963 138.263 285.963 138.263L287.307 147.363H243.771L244.666 137.86L240.449 119.884L227.714 125.349L219.614 115.94L237.764 100.516C239.024 99.4456 240.477 98.573 242.059 97.9358L253.138 93.4763H270.907Z" fill="#04396A"/>
<path d="M262.143 107.407C266.131 107.407 269.369 104.508 269.369 100.93V91.7217H254.918V100.933C254.916 104.508 258.153 107.407 262.143 107.407Z" fill="#FFC0CC"/>
</g>
<mask id="mask27_64_92" style="mask-type:luminance" maskUnits="userSpaceOnUse" x="240" y="66" width="40" height="43">
<path d="M240.164 75.0823L266.064 66.4716L279.284 99.6377L253.384 108.248L240.164 75.0823Z" fill="white"/>
</mask>
<g mask="url(#mask27_64_92)">
<path d="M246.121 85.1342C245.909 84.362 245.334 82.85 245.194 82.0662C244.91 80.4812 245.338 78.4722 245.976 77.0311C246.505 75.8321 246.196 76.0349 246.955 74.9683C248.292 73.0949 251.247 71.5389 253.531 70.9301C254.502 70.673 255.535 70.5982 256.545 70.5671C256.78 70.5584 259.657 71.2035 259.319 71.5547C260.123 70.7193 261.561 70.791 262.693 71.2538C264.521 71.9991 265.898 73.5196 267.199 74.9885C267.819 75.6883 268.442 76.3901 269.064 77.0895C269.625 77.7227 270.218 78.4351 270.215 79.2494C270.213 79.6057 270.092 79.9474 270.076 80.3047C270.03 81.23 270.661 82.0693 271.073 82.928C271.666 84.1652 271.789 85.5749 271.485 86.865C271.196 88.0833 270.227 88.7684 269.826 89.8248L270.152 89.5836C267.845 92.4873 263.889 93.5735 260.188 94.5013C258.436 94.943 256.684 95.3806 254.929 95.8226C253.988 96.0597 252.936 96.2811 252.054 95.8148C251.155 95.3374 250.751 94.3133 250.1 93.5402C249.239 92.5161 247.912 91.9122 247.118 90.8357C245.915 89.2007 246.652 87.0494 246.121 85.1342Z" fill="#04396A"/>
<path d="M265.409 102.606C270.102 101.043 272.415 96.0195 270.571 91.3829L265.911 79.6687L248.913 85.3322L253.573 97.0463C255.413 101.681 260.715 104.17 265.409 102.606Z" fill="#FFC0CC"/>
<path d="M246.932 86.2672C247.044 84.288 248.252 82.5372 249.815 81.3236C251.377 80.1074 253.275 79.3586 255.168 78.6803C256.131 78.3339 257.111 78.0016 258.14 77.8612C259.389 77.6926 260.67 77.814 261.937 77.936C262.832 78.0208 263.728 78.1082 264.623 78.1924C265.463 78.2726 266.342 78.3655 267.063 78.8243C268.346 79.6389 268.681 81.2984 268.719 82.7503L268.516 83.0785C266.133 83.5344 263.728 82.2399 261.497 81.1438C261.373 81.0833 261.237 81.0194 261.102 81.0343C260.929 81.0526 260.807 81.1886 260.695 81.3105C258.81 83.4146 256.152 84.7031 253.54 85.8968C251.58 86.7943 249.286 87.6716 247.237 86.7622C247.143 86.7208 247.043 86.6716 246.988 86.584C246.927 86.4898 246.928 86.3737 246.932 86.2672Z" fill="#04396A"/>
<path d="M271.124 92.6985C270.763 90.9073 270.088 89.1615 269.128 87.5635C268.837 88.6707 269.03 89.8645 268.911 91.0077C268.788 92.1514 268.19 93.3815 267.036 93.6266C265.667 93.9139 264.378 92.7001 262.971 92.4672C262.115 92.3247 261.244 92.5587 260.53 92.9891C259.814 93.4164 259.236 94.03 258.728 94.6762C258.077 95.503 257.38 96.4866 256.29 96.5785C255.579 96.64 254.87 96.283 254.323 95.8098C253.775 95.3361 253.349 94.7457 252.872 94.2058C252.762 94.0801 252.654 93.9935 252.492 94.001C252.304 96.1245 253.748 98.8436 255.14 100.47C256.703 102.299 258.952 103.609 261.337 103.908C263.173 104.137 265.021 103.773 266.692 103.097C267.869 102.622 268.994 101.973 269.805 101.027C270.998 99.639 271.398 97.7362 271.426 95.8882C271.437 94.8211 271.335 93.7516 271.124 92.6985Z" fill="#04396A"/>
</g>
<mask id="mask28_64_92" style="mask-type:luminance" maskUnits="userSpaceOnUse" x="218" y="121" width="229" height="171">
<path d="M218.294 206.349L413.442 121.575L446.659 206.759L251.511 291.534L218.294 206.349Z" fill="white"/>
</mask>
<g mask="url(#mask28_64_92)">
<path d="M411.744 122.496L219.719 205.972C219.028 206.272 218.69 207.084 218.963 207.786L250.905 289.754C251.178 290.455 251.96 290.781 252.651 290.481L444.676 207.006C445.367 206.705 445.704 205.893 445.431 205.191L413.49 123.224C413.213 122.523 412.433 122.197 411.744 122.496Z" fill="white"/>
<path d="M234.379 211.988L256.542 275.112L262.462 272.809L240.3 209.684L234.379 211.988Z" fill="url(#paint2_radial_64_92)"/>
<path d="M243.42 208.112L265.582 271.236L271.501 268.933L249.338 205.809L243.42 208.112Z" fill="url(#paint3_radial_64_92)"/>
<path d="M252.459 204.236L274.62 267.361L280.542 265.057L258.381 201.932L252.459 204.236Z" fill="url(#paint4_radial_64_92)"/>
<path d="M261.499 200.361L283.66 263.485L289.581 261.182L267.419 198.057L261.499 200.361Z" fill="url(#paint5_radial_64_92)"/>
<path d="M270.539 196.485L292.7 259.61L298.621 257.306L276.46 194.181L270.539 196.485Z" fill="url(#paint6_radial_64_92)"/>
<path d="M279.575 192.61L301.737 255.735L307.658 253.431L285.496 190.307L279.575 192.61Z" fill="url(#paint7_radial_64_92)"/>
<path d="M307.807 192.976C309.963 198.527 316.133 201.103 321.589 198.724C327.043 196.346 329.717 189.917 327.56 184.362C325.401 178.807 319.23 176.235 313.776 178.613C308.323 180.991 305.648 187.42 307.807 192.976ZM303.642 182.178L310.985 203.317L331.724 195.159L324.381 174.02L303.642 182.178Z" fill="url(#paint8_radial_64_92)"/>
<path d="M328.244 170.856L330.234 176.518L410.446 145.351L408.455 139.689L328.244 170.856Z" fill="url(#paint9_radial_64_92)"/>
<path d="M331.395 178.834L333.386 184.497L413.597 153.33L411.606 147.667L331.395 178.834Z" fill="url(#paint10_radial_64_92)"/>
<path d="M343.783 210.195L345.774 215.857L425.985 184.689L423.994 179.027L343.783 210.195Z" fill="url(#paint11_radial_64_92)"/>
<path d="M346.936 218.175L348.927 223.838L429.138 192.671L427.147 187.008L346.936 218.175Z" fill="url(#paint12_radial_64_92)"/>
<path d="M323.346 232.314C325.503 237.866 331.672 240.441 337.128 238.062C342.582 235.684 345.256 229.255 343.098 223.7C340.94 218.145 334.77 215.574 329.316 217.952C323.862 220.33 321.188 226.759 323.346 232.314ZM319.182 221.517L326.524 242.655L347.263 234.497L339.92 213.359L319.182 221.517Z" fill="url(#paint13_radial_64_92)"/>
</g>
<mask id="mask29_64_92" style="mask-type:luminance" maskUnits="userSpaceOnUse" x="274" y="232" width="17" height="32">
<path d="M274.492 233.749L278.533 232.006L290.148 261.589L286.108 263.332L274.492 233.749Z" fill="white"/>
</mask>
<g mask="url(#mask29_64_92)">
<path d="M278.267 232.228L274.654 233.787L286.048 262.813L289.661 261.254L278.267 232.228Z" fill="#387BBE"/>
</g>
<mask id="mask30_64_92" style="mask-type:luminance" maskUnits="userSpaceOnUse" x="273" y="203" width="27" height="57">
<path d="M273.9 205.49L277.948 203.748L299.139 257.599L295.092 259.342L273.9 205.49Z" fill="white"/>
</mask>
<g mask="url(#mask30_64_92)">
<path d="M277.696 204.011L274.077 205.568L294.998 258.718L298.617 257.161L277.696 204.011Z" fill="#387BBE"/>
</g>
<mask id="mask31_64_92" style="mask-type:luminance" maskUnits="userSpaceOnUse" x="293" y="227" width="16" height="29">
<path d="M293.676 228.803L297.714 227.059L308.197 253.788L304.159 255.532L293.676 228.803Z" fill="white"/>
</mask>
<g mask="url(#mask31_64_92)">
<path d="M297.435 227.246L293.823 228.805L304.192 255.232L307.804 253.672L297.435 227.246Z" fill="#387BBE"/>
</g>
<mask id="mask32_64_92" style="mask-type:luminance" maskUnits="userSpaceOnUse" x="335" y="175" width="51" height="58">
<path d="M335.451 189.954L369.369 175.181L385.778 217.371L351.861 232.144L335.451 189.954Z" fill="white"/>
</mask>
<g mask="url(#mask32_64_92)">
<path d="M384.279 214.775L351.164 229.033L352.213 231.7L385.328 217.443L384.279 214.775Z" fill="#387BBE"/>
<path d="M368.74 175.437L335.625 189.694L336.674 192.361L369.789 178.104L368.74 175.437Z" fill="#387BBE"/>
</g>
<mask id="mask33_64_92" style="mask-type:luminance" maskUnits="userSpaceOnUse" x="369" y="290" width="78" height="117">
<path d="M369.397 305.785L397.414 290.819L446.258 391.353L418.241 406.318L369.397 305.785Z" fill="white"/>
</mask>
<g mask="url(#mask33_64_92)">
<path d="M431.453 393.679L438.134 390.101L435.365 384.387L428.684 387.966L431.453 393.679Z" fill="#FFC0CC"/>
<path d="M389.268 296.808C389.268 296.808 394.981 304.639 400.854 313.793C401.593 314.948 402.273 316.149 402.876 317.388L414.161 340.607L436.045 385.629L429.362 389.349C429.362 389.349 412.711 370.052 403.7 353.354C402.267 350.7 400.471 348.287 398.623 345.925L378.281 323.685L369.576 305.776L389.268 296.808Z" fill="#4EBEFB"/>
<path d="M435.916 389.094L430.483 392.004L430.98 395.672L431.708 397.174C432.11 398.004 433.095 398.323 433.907 397.888L439.567 394.857L444.445 389.333L443.932 388.274C443.093 386.542 441.493 385.352 439.624 385.073L435.369 384.435L437.163 388.135L435.916 389.094Z" fill="#04396A"/>
<path d="M432.945 395.825L438.581 392.813L443.345 387.428C443.56 387.718 443.773 388.011 443.933 388.34L444.443 389.39L439.587 394.883L433.951 397.895C433.141 398.328 432.161 398.009 431.76 397.183L431.034 395.688L430.998 395.435C431.474 395.995 432.261 396.191 432.945 395.825Z" fill="#387BBE"/>
</g>
<mask id="mask34_64_92" style="mask-type:luminance" maskUnits="userSpaceOnUse" x="344" y="298" width="45" height="119">
<path d="M344.761 302.995L376.027 298.815L388.865 412.588L357.599 416.769L344.761 302.995Z" fill="white"/>
</mask>
<g mask="url(#mask34_64_92)">
<path d="M364.857 408.474L370.907 407.636L372.419 410.948L372.601 412.616C372.701 413.538 372.05 414.386 371.145 414.511L364.841 415.384L357.879 413.742L357.751 412.566C357.541 410.643 358.248 408.713 359.658 407.372L362.866 404.317L363.315 408.426L364.857 408.474Z" fill="#04396A"/>
<path d="M370.904 412.262L364.629 413.118L357.829 411.52C357.804 411.884 357.781 412.249 357.821 412.612L357.949 413.77L364.881 415.402L371.156 414.546C372.057 414.423 372.705 413.586 372.604 412.674L372.422 411.025L372.318 410.797C372.217 411.535 371.664 412.158 370.904 412.262Z" fill="#387BBE"/>
<path d="M370.267 403.275L362.823 404.306L363.515 410.656L370.96 409.624L370.267 403.275Z" fill="#FFC0CC"/>
<path d="M354.082 301.945C354.082 301.945 353.7 313.325 353.636 324.276C353.621 326.649 353.749 329.019 354.011 331.374L356.722 355.751L362.3 405.917L369.899 404.885C369.899 404.885 372.881 378.12 372.142 360.647C371.947 356.013 372.227 351.363 372.718 346.734L376.666 309.39L375.679 300.519L354.082 301.945Z" fill="#4EBEFB"/>
</g>
<mask id="mask35_64_92" style="mask-type:luminance" maskUnits="userSpaceOnUse" x="368" y="208" width="69" height="45">
<path d="M368.952 234.196L429.282 208.047L436.354 226.143L376.024 252.292L368.952 234.196Z" fill="white"/>
</mask>
<g mask="url(#mask35_64_92)">
<path d="M371.188 236.422L394.076 233.566C394.937 233.457 395.768 233.139 396.492 232.636L416.453 218.75L416.467 213.756L416.762 213.732C417.796 213.649 418.753 214.251 419.136 215.23L419.626 216.486L421.236 216.535L425.973 215.685L427.354 215.935L431.396 214.182L430.471 216.165C430.333 216.46 430.115 216.709 429.84 216.88L420.699 222.573L416.557 225.318L401.876 240.226C400.906 241.211 399.663 241.86 398.33 242.08L373.751 246.121L371.188 236.422Z" fill="#FFC0CC"/>
</g>
<mask id="mask36_64_92" style="mask-type:luminance" maskUnits="userSpaceOnUse" x="265" y="252" width="68" height="45">
<path d="M265.333 278.622L325.663 252.472L332.735 270.568L272.405 296.718L265.333 278.622Z" fill="white"/>
</mask>
<g mask="url(#mask36_64_92)">
<path d="M325.438 255.756L307.272 270.701C306.587 271.262 305.784 271.652 304.934 271.832L281.478 276.771L278.132 273.235L277.906 273.436C277.116 274.144 276.839 275.281 277.222 276.26L277.712 277.516L276.601 278.745L272.669 281.653L271.854 282.856L267.812 284.608L269.795 285.33C270.09 285.437 270.41 285.452 270.721 285.369L281.016 282.636L285.793 281.514L306.182 281.216C307.529 281.196 308.845 280.735 309.939 279.903L330.101 264.545L325.438 255.756Z" fill="#FFC0CC"/>
</g>
<mask id="mask37_64_92" style="mask-type:luminance" maskUnits="userSpaceOnUse" x="307" y="211" width="104" height="120">
<path d="M307.433 240.86L375.304 211.303L410.317 301.316L342.447 330.874L307.433 240.86Z" fill="white"/>
</mask>
<g mask="url(#mask37_64_92)">
<path d="M336.194 236.975C336.194 236.975 338.29 232.495 336.481 227.848L346.446 223.512C346.446 223.512 349.13 229.821 352.024 230.087L336.194 236.975Z" fill="#FFC0CC"/>
<path d="M352.282 229.876L361.033 228.941C364.232 228.6 383.171 233.048 383.171 233.048L383.067 245.927L372.287 246.562L394.843 298.619C386.761 296.054 371.928 317.748 352.41 314.746C352.41 314.746 346.46 277.763 335.372 263.785L325.275 270.91L315.833 262.02L321.186 254.389C322.103 253.082 322.988 251.746 323.717 250.324C325.405 247.025 327.728 244.098 330.543 241.726L336.354 236.828L352.284 229.881L352.282 229.876Z" fill="#04396A"/>
</g>
<mask id="mask38_64_92" style="mask-type:luminance" maskUnits="userSpaceOnUse" x="324" y="207" width="19" height="26">
<path d="M324.959 211.966L334.975 207.61L342.921 228.009L332.905 232.365L324.959 211.966Z" fill="white"/>
</mask>
<g mask="url(#mask38_64_92)">
<path d="M335.733 212.356C334.917 211.265 333.687 210.417 332.331 210.42L333.372 208.455C332.709 208.778 332.049 209.132 331.479 209.617C330.909 210.103 330.449 210.701 329.961 211.274C329.226 212.131 328.767 212.415 328.692 213.596C328.613 214.84 328.533 216.083 328.453 217.326C328.419 217.872 328.382 218.422 328.43 218.967C328.497 219.766 328.734 220.532 328.971 221.292C329.168 221.922 329.362 222.554 329.561 223.186C329.736 223.75 329.913 224.319 330.183 224.837C330.523 225.496 331.004 226.063 331.476 226.625C332.324 227.626 333.365 229.139 334.681 229.45C336.078 229.782 337.529 229.971 338.917 229.374C339.22 229.243 339.521 229.073 339.703 228.791C339.884 228.514 339.921 228.165 339.939 227.833C340.185 223.772 338.821 219.856 337.482 216.069C337.022 214.767 336.55 213.447 335.733 212.356Z" fill="#FFC0CC"/>
</g>
<mask id="mask39_64_92" style="mask-type:luminance" maskUnits="userSpaceOnUse" x="323" y="200" width="31" height="35">
<path d="M323.508 209.161L343.958 200.254L353.843 225.67L333.393 234.577L323.508 209.161Z" fill="white"/>
</mask>
<g mask="url(#mask39_64_92)">
<path d="M347.21 214.355C346.613 213.311 346.465 212.06 346.121 210.894C345.625 209.21 344.761 207.788 343.459 206.647C342.432 205.745 341.313 204.911 340.024 204.478C337.523 203.641 334.743 204.425 332.286 205.534C331.539 205.87 330.786 206.248 330.206 206.841C329.748 207.309 329.412 207.897 328.917 208.321C328.589 208.604 328.205 208.803 327.859 209.065C327.388 209.42 326.997 209.875 326.636 210.346C326.255 210.836 325.89 211.367 325.749 211.972C325.369 213.599 326.572 216.025 327.649 217.117C328.06 217.534 328.545 217.865 328.949 218.288C330.422 219.827 330.578 222.296 331.839 224.029C332.712 225.228 334.041 225.979 335.044 227.065C335.676 227.751 336.189 228.577 336.962 229.09C338.523 230.131 340.331 229.545 342.029 229.208C344.135 228.791 346.139 228.661 348.179 227.817C351.717 226.351 349.689 223.419 349.882 220.627C349.928 219.988 350.102 219.351 350.049 218.716C349.894 216.922 348.084 215.885 347.21 214.355Z" fill="#04396A"/>
</g>
<mask id="mask40_64_92" style="mask-type:luminance" maskUnits="userSpaceOnUse" x="193" y="189" width="31" height="32">
<path d="M193.561 189.723H223.393V220.803H193.561V189.723Z" fill="white"/>
</mask>
<g mask="url(#mask40_64_92)">
<path d="M221.59 207.287C222.789 199.605 217.785 192.362 210.413 191.112C203.042 189.861 196.093 195.077 194.893 202.761C193.694 210.444 198.697 217.685 206.069 218.936C213.442 220.186 220.391 214.971 221.59 207.287Z" fill="white"/>
<path d="M206.452 210.726L201.751 205.831L204.436 203.032L206.452 205.133L212.041 199.304L214.727 202.099L206.452 210.726Z" fill="#387BBE"/>
</g>
<mask id="mask41_64_92" style="mask-type:luminance" maskUnits="userSpaceOnUse" x="491" y="276" width="40" height="32">
<path d="M491.837 276.982H530.727V307.507H491.837V276.982Z" fill="white"/>
</mask>
<g mask="url(#mask41_64_92)">
<path d="M528.95 307.305H493.412C492.621 307.305 491.97 306.634 491.97 305.802V278.624C491.97 277.8 492.613 277.12 493.412 277.12H528.95C529.741 277.12 530.392 277.8 530.392 278.624V305.802C530.384 306.627 529.741 307.305 528.95 307.305Z" fill="#387BBE"/>
<path d="M518.924 292.218L503.432 301.535V282.891L518.924 292.218L503.432 301.535V282.891L518.924 292.218Z" fill="white"/>
</g>
<mask id="mask42_64_92" style="mask-type:luminance" maskUnits="userSpaceOnUse" x="91" y="165" width="7" height="91">
<path d="M91.4805 165.451H97.3405V255.363H91.4805V165.451Z" fill="white"/>
</mask>
<g mask="url(#mask42_64_92)">
<path d="M91.6135 168.442C91.6135 170.016 92.8383 171.292 94.3491 171.292C95.8594 171.292 97.0836 170.016 97.0836 168.442C97.0836 166.867 95.8594 165.59 94.3491 165.59C92.8383 165.59 91.6135 166.867 91.6135 168.442Z" fill="url(#paint14_radial_64_92)"/>
<path d="M91.6135 185.182C91.6135 186.757 92.8383 188.033 94.3491 188.033C95.8594 188.033 97.0836 186.757 97.0836 185.182C97.0836 183.608 95.8594 182.332 94.3491 182.332C92.8383 182.332 91.6135 183.608 91.6135 185.182Z" fill="url(#paint15_radial_64_92)"/>
<path d="M91.6135 201.927C91.6135 203.501 92.8383 204.778 94.3491 204.778C95.8594 204.778 97.0836 203.501 97.0836 201.927C97.0836 200.352 95.8594 199.076 94.3491 199.076C92.8383 199.076 91.6135 200.352 91.6135 201.927Z" fill="url(#paint16_radial_64_92)"/>
<path d="M91.6135 218.669C91.6135 220.243 92.8383 221.52 94.3491 221.52C95.8594 221.52 97.0836 220.243 97.0836 218.669C97.0836 217.094 95.8594 215.818 94.3491 215.818C92.8383 215.818 91.6135 217.094 91.6135 218.669Z" fill="url(#paint17_radial_64_92)"/>
<path d="M91.6135 235.414C91.6135 236.988 92.8383 238.264 94.3491 238.264C95.8594 238.264 97.0836 236.988 97.0836 235.414C97.0836 233.838 95.8594 232.563 94.3491 232.563C92.8383 232.563 91.6135 233.838 91.6135 235.414Z" fill="url(#paint18_radial_64_92)"/>
<path d="M91.0808 252.156C91.0808 253.73 92.3056 255.006 93.8164 255.006C95.3267 255.006 96.5509 253.73 96.5509 252.156C96.5509 250.58 95.3267 249.303 93.8164 249.303C92.3056 249.303 91.0808 250.58 91.0808 252.156Z" fill="url(#paint19_radial_64_92)"/>
</g>
</g>
</g>
<defs>
<radialGradient id="paint0_radial_64_92" cx="0" cy="0" r="1" gradientUnits="userSpaceOnUse" gradientTransform="translate(63.7212 294.37) rotate(18.1939) scale(54.4058 54.4301)">
<stop offset="0.15" stop-color="#D0E2FF"/>
<stop offset="0.47" stop-color="#DDE9FD"/>
<stop offset="0.78" stop-color="#EAF0FA"/>
</radialGradient>
<linearGradient id="paint1_linear_64_92" x1="160.573" y1="276.93" x2="213.845" y2="276.93" gradientUnits="userSpaceOnUse">
<stop offset="0.15" stop-color="#D0E2FF"/>
<stop offset="0.47" stop-color="#DDE9FD"/>
<stop offset="0.78" stop-color="#EAF0FA"/>
</linearGradient>
<radialGradient id="paint2_radial_64_92" cx="0" cy="0" r="1" gradientUnits="userSpaceOnUse" gradientTransform="translate(248.421 242.398) rotate(-23.3457) scale(55.0628 55.0061)">
<stop offset="0.15" stop-color="#D0E2FF"/>
<stop offset="0.47" stop-color="#DDE9FD"/>
<stop offset="0.78" stop-color="#EAF0FA"/>
</radialGradient>
<radialGradient id="paint3_radial_64_92" cx="0" cy="0" r="1" gradientUnits="userSpaceOnUse" gradientTransform="translate(257.46 238.522) rotate(-23.3456) scale(55.0628 55.0061)">
<stop offset="0.15" stop-color="#D0E2FF"/>
<stop offset="0.47" stop-color="#DDE9FD"/>
<stop offset="0.78" stop-color="#EAF0FA"/>
</radialGradient>
<radialGradient id="paint4_radial_64_92" cx="0" cy="0" r="1" gradientUnits="userSpaceOnUse" gradientTransform="translate(266.5 234.647) rotate(-23.3457) scale(55.0628 55.006)">
<stop offset="0.15" stop-color="#D0E2FF"/>
<stop offset="0.47" stop-color="#DDE9FD"/>
<stop offset="0.78" stop-color="#EAF0FA"/>
</radialGradient>
<radialGradient id="paint5_radial_64_92" cx="0" cy="0" r="1" gradientUnits="userSpaceOnUse" gradientTransform="translate(275.54 230.771) rotate(-23.3457) scale(55.0628 55.0061)">
<stop offset="0.15" stop-color="#D0E2FF"/>
<stop offset="0.47" stop-color="#DDE9FD"/>
<stop offset="0.78" stop-color="#EAF0FA"/>
</radialGradient>
<radialGradient id="paint6_radial_64_92" cx="0" cy="0" r="1" gradientUnits="userSpaceOnUse" gradientTransform="translate(284.58 226.895) rotate(-23.3457) scale(55.0628 55.006)">
<stop offset="0.15" stop-color="#D0E2FF"/>
<stop offset="0.47" stop-color="#DDE9FD"/>
<stop offset="0.78" stop-color="#EAF0FA"/>
</radialGradient>
<radialGradient id="paint7_radial_64_92" cx="0" cy="0" r="1" gradientUnits="userSpaceOnUse" gradientTransform="translate(293.617 223.021) rotate(-23.3457) scale(55.0628 55.0061)">
<stop offset="0.15" stop-color="#D0E2FF"/>
<stop offset="0.47" stop-color="#DDE9FD"/>
<stop offset="0.78" stop-color="#EAF0FA"/>
</radialGradient>
<radialGradient id="paint8_radial_64_92" cx="0" cy="0" r="1" gradientUnits="userSpaceOnUse" gradientTransform="translate(317.683 188.668) rotate(-23.5599) scale(54.3673 54.3638)">
<stop offset="0.15" stop-color="#D0E2FF"/>
<stop offset="0.47" stop-color="#DDE9FD"/>
<stop offset="0.78" stop-color="#EAF0FA"/>
</radialGradient>
<radialGradient id="paint9_radial_64_92" cx="0" cy="0" r="1" gradientUnits="userSpaceOnUse" gradientTransform="translate(369.345 158.103) rotate(-23.3183) scale(53.7197 53.6659)">
<stop offset="0.15" stop-color="#D0E2FF"/>
<stop offset="0.47" stop-color="#DDE9FD"/>
<stop offset="0.78" stop-color="#EAF0FA"/>
</radialGradient>
<radialGradient id="paint10_radial_64_92" cx="0" cy="0" r="1" gradientUnits="userSpaceOnUse" gradientTransform="translate(372.496 166.082) rotate(-23.3184) scale(53.7197 53.6659)">
<stop offset="0.15" stop-color="#D0E2FF"/>
<stop offset="0.47" stop-color="#DDE9FD"/>
<stop offset="0.78" stop-color="#EAF0FA"/>
</radialGradient>
<radialGradient id="paint11_radial_64_92" cx="0" cy="0" r="1" gradientUnits="userSpaceOnUse" gradientTransform="translate(384.884 197.442) rotate(-23.3183) scale(53.7197 53.6659)">
<stop offset="0.15" stop-color="#D0E2FF"/>
<stop offset="0.47" stop-color="#DDE9FD"/>
<stop offset="0.78" stop-color="#EAF0FA"/>
</radialGradient>
<radialGradient id="paint12_radial_64_92" cx="0" cy="0" r="1" gradientUnits="userSpaceOnUse" gradientTransform="translate(388.037 205.423) rotate(-23.3184) scale(53.7197 53.6659)">
<stop offset="0.15" stop-color="#D0E2FF"/>
<stop offset="0.47" stop-color="#DDE9FD"/>
<stop offset="0.78" stop-color="#EAF0FA"/>
</radialGradient>
<radialGradient id="paint13_radial_64_92" cx="0" cy="0" r="1" gradientUnits="userSpaceOnUse" gradientTransform="translate(333.222 228.007) rotate(-23.5599) scale(54.3673 54.3638)">
<stop offset="0.15" stop-color="#D0E2FF"/>
<stop offset="0.47" stop-color="#DDE9FD"/>
<stop offset="0.78" stop-color="#EAF0FA"/>
</radialGradient>
<radialGradient id="paint14_radial_64_92" cx="0" cy="0" r="1" gradientUnits="userSpaceOnUse" gradientTransform="translate(94.3486 168.441) scale(53.2729 55.5012)">
<stop offset="0.15" stop-color="#D0E2FF"/>
<stop offset="0.47" stop-color="#DDE9FD"/>
<stop offset="0.78" stop-color="#EAF0FA"/>
</radialGradient>
<radialGradient id="paint15_radial_64_92" cx="0" cy="0" r="1" gradientUnits="userSpaceOnUse" gradientTransform="translate(94.3486 185.182) scale(53.2729 55.5013)">
<stop offset="0.15" stop-color="#D0E2FF"/>
<stop offset="0.47" stop-color="#DDE9FD"/>
<stop offset="0.78" stop-color="#EAF0FA"/>
</radialGradient>
<radialGradient id="paint16_radial_64_92" cx="0" cy="0" r="1" gradientUnits="userSpaceOnUse" gradientTransform="translate(94.3486 201.927) scale(53.2729 55.5012)">
<stop offset="0.15" stop-color="#D0E2FF"/>
<stop offset="0.47" stop-color="#DDE9FD"/>
<stop offset="0.78" stop-color="#EAF0FA"/>
</radialGradient>
<radialGradient id="paint17_radial_64_92" cx="0" cy="0" r="1" gradientUnits="userSpaceOnUse" gradientTransform="translate(94.3486 218.669) scale(53.2729 55.5012)">
<stop offset="0.15" stop-color="#D0E2FF"/>
<stop offset="0.47" stop-color="#DDE9FD"/>
<stop offset="0.78" stop-color="#EAF0FA"/>
</radialGradient>
<radialGradient id="paint18_radial_64_92" cx="0" cy="0" r="1" gradientUnits="userSpaceOnUse" gradientTransform="translate(94.3486 235.414) scale(53.2729 55.5013)">
<stop offset="0.15" stop-color="#D0E2FF"/>
<stop offset="0.47" stop-color="#DDE9FD"/>
<stop offset="0.78" stop-color="#EAF0FA"/>
</radialGradient>
<radialGradient id="paint19_radial_64_92" cx="0" cy="0" r="1" gradientUnits="userSpaceOnUse" gradientTransform="translate(93.8158 252.154) scale(53.2729 55.5012)">
<stop offset="0.15" stop-color="#D0E2FF"/>
<stop offset="0.47" stop-color="#DDE9FD"/>
<stop offset="0.78" stop-color="#EAF0FA"/>
</radialGradient>
<clipPath id="clip0_64_92">
<rect width="532.729" height="444.01" fill="white"/>
</clipPath>
</defs>
</svg>
