<svg width="13" height="13" viewBox="0 0 13 13" fill="none" xmlns="http://www.w3.org/2000/svg">
<path d="M10.8333 6.5C10.8333 6.19048 10.8333 6.03572 10.8248 5.90505C10.6935 3.90202 9.09796 2.30651 7.09494 2.17523C6.96427 2.16666 6.80951 2.16666 6.49999 2.16666V2.16666C6.19047 2.16666 6.03571 2.16666 5.90504 2.17523C3.90202 2.30651 2.30651 3.90202 2.17522 5.90505C2.16666 6.03572 2.16666 6.19048 2.16666 6.5V9.1C2.16666 9.78636 2.16666 10.1295 2.32799 10.378C2.40431 10.4955 2.50449 10.5957 2.62202 10.672C2.87044 10.8333 3.21363 10.8333 3.89999 10.8333H6.49999C6.80951 10.8333 6.96427 10.8333 7.09494 10.8248C9.09796 10.6935 10.6935 9.09797 10.8248 7.09494C10.8333 6.96428 10.8333 6.80952 10.8333 6.5V6.5Z" stroke="#5E5E5E"/>
<path d="M4.875 5.41666L8.125 5.41666" stroke="#5E5E5E" stroke-linecap="round" stroke-linejoin="round"/>
<path d="M4.875 7.58334H6.5" stroke="#5E5E5E" stroke-linecap="round" stroke-linejoin="round"/>
</svg>
