<svg width="651" height="353" viewBox="0 0 651 353" fill="none" xmlns="http://www.w3.org/2000/svg">
<path d="M313 75H396.75C401.083 75 404.667 76.4167 407.5 79.25C410.5 81.9167 412 85.4167 412 89.75C412 93.9167 410.5 97.3333 407.5 100C404.667 102.5 401.083 103.75 396.75 103.75H326.75L329 99.5V148.25L327 146.25H385.5C389.833 146.25 393.417 147.667 396.25 150.5C399.25 153.167 400.75 156.667 400.75 161C400.75 165.167 399.25 168.583 396.25 171.25C393.417 173.75 389.833 175 385.5 175H327.75L329 173V223.5L327 221.25H396.75C401.083 221.25 404.667 222.75 407.5 225.75C410.5 228.583 412 231.917 412 235.75C412 239.917 410.5 243.333 407.5 246C404.667 248.667 401.083 250 396.75 250H313C308.667 250 305 248.583 302 245.75C299.167 242.75 297.75 239.083 297.75 234.75V90.25C297.75 85.9167 299.167 82.3333 302 79.5C305 76.5 308.667 75 313 75ZM430.566 229.25C428.9 226.917 428.15 223.917 428.316 220.25C428.483 216.583 430.65 213.417 434.816 210.75C437.483 209.083 440.316 208.417 443.316 208.75C446.316 208.917 449.233 210.417 452.066 213.25C456.9 218.083 461.983 221.833 467.316 224.5C472.65 227.167 479.316 228.5 487.316 228.5C489.816 228.333 492.566 228 495.566 227.5C498.566 226.833 501.15 225.5 503.316 223.5C505.65 221.333 506.816 218.083 506.816 213.75C506.816 210.083 505.566 207.167 503.066 205C500.566 202.833 497.233 201 493.066 199.5C489.066 198 484.566 196.583 479.566 195.25C474.4 193.75 469.066 192.083 463.566 190.25C458.233 188.417 453.316 186.083 448.816 183.25C444.316 180.25 440.65 176.333 437.816 171.5C434.983 166.667 433.566 160.583 433.566 153.25C433.566 144.917 435.9 137.833 440.566 132C445.233 126.167 451.233 121.667 458.566 118.5C466.066 115.333 473.9 113.75 482.066 113.75C487.233 113.75 492.65 114.417 498.316 115.75C503.983 116.917 509.4 118.917 514.566 121.75C519.733 124.417 524.066 128 527.566 132.5C529.4 135 530.483 138 530.816 141.5C531.15 145 529.566 148.167 526.066 151C523.566 153 520.65 153.917 517.316 153.75C513.983 153.417 511.233 152.25 509.066 150.25C506.233 146.583 502.4 143.667 497.566 141.5C492.9 139.333 487.483 138.25 481.316 138.25C478.816 138.25 476.066 138.583 473.066 139.25C470.233 139.75 467.733 141 465.566 143C463.4 144.833 462.316 147.833 462.316 152C462.316 155.833 463.566 158.917 466.066 161.25C468.566 163.417 471.9 165.25 476.066 166.75C480.4 168.083 484.983 169.417 489.816 170.75C494.816 172.083 499.9 173.667 505.066 175.5C510.233 177.333 514.983 179.75 519.316 182.75C523.65 185.75 527.15 189.667 529.816 194.5C532.483 199.167 533.816 205.167 533.816 212.5C533.816 221 531.316 228.25 526.316 234.25C521.316 240.25 515.066 244.833 507.566 248C500.066 251 492.4 252.5 484.566 252.5C474.733 252.5 464.9 250.833 455.066 247.5C445.233 244 437.066 237.917 430.566 229.25ZM587.172 234.75C587.172 239.083 585.755 242.75 582.922 245.75C580.089 248.583 576.505 250 572.172 250C567.839 250 564.255 248.583 561.422 245.75C558.589 242.75 557.172 239.083 557.172 234.75V131.5C557.172 127.167 558.589 123.583 561.422 120.75C564.255 117.75 567.839 116.25 572.172 116.25C576.505 116.25 580.089 117.75 582.922 120.75C585.755 123.583 587.172 127.167 587.172 131.5V234.75ZM571.922 100C566.255 100 562.255 99.0833 559.922 97.25C557.589 95.4167 556.422 92.1667 556.422 87.5V82.75C556.422 77.9167 557.672 74.6667 560.172 73C562.839 71.1667 566.839 70.25 572.172 70.25C578.005 70.25 582.089 71.1667 584.422 73C586.755 74.8333 587.922 78.0833 587.922 82.75V87.5C587.922 92.3333 586.672 95.6667 584.172 97.5C581.672 99.1667 577.589 100 571.922 100Z" fill="#04396A"/>
<path d="M299.604 297.94C302.188 297.94 304.432 298.212 306.336 298.756C308.285 299.3 309.781 300.071 310.824 301.068C311.912 302.02 312.456 303.176 312.456 304.536C312.456 305.443 312.184 306.304 311.64 307.12C311.096 307.891 310.303 308.276 309.26 308.276C308.535 308.276 307.923 308.185 307.424 308.004C306.971 307.777 306.563 307.505 306.2 307.188C305.837 306.871 305.407 306.576 304.908 306.304C304.455 306.032 303.752 305.828 302.8 305.692C301.893 305.511 301.213 305.42 300.76 305.42C298.448 305.42 296.476 305.919 294.844 306.916C293.257 307.913 292.033 309.273 291.172 310.996C290.311 312.673 289.88 314.623 289.88 316.844C289.88 319.02 290.311 320.969 291.172 322.692C292.079 324.369 293.303 325.707 294.844 326.704C296.431 327.701 298.244 328.2 300.284 328.2C301.417 328.2 302.392 328.132 303.208 327.996C304.024 327.86 304.704 327.656 305.248 327.384C305.883 327.021 306.449 326.636 306.948 326.228C307.447 325.82 308.195 325.616 309.192 325.616C310.371 325.616 311.277 326.001 311.912 326.772C312.547 327.497 312.864 328.404 312.864 329.492C312.864 330.625 312.229 331.668 310.96 332.62C309.691 333.527 308.013 334.275 305.928 334.864C303.888 335.408 301.667 335.68 299.264 335.68C295.683 335.68 292.577 334.864 289.948 333.232C287.319 331.555 285.279 329.288 283.828 326.432C282.423 323.576 281.72 320.38 281.72 316.844C281.72 313.127 282.468 309.863 283.964 307.052C285.505 304.196 287.613 301.975 290.288 300.388C293.008 298.756 296.113 297.94 299.604 297.94ZM354.04 316.844C354.04 320.561 353.201 323.848 351.524 326.704C349.892 329.515 347.671 331.713 344.86 333.3C342.095 334.887 338.989 335.68 335.544 335.68C332.099 335.68 328.971 334.887 326.16 333.3C323.395 331.713 321.173 329.515 319.496 326.704C317.864 323.848 317.048 320.561 317.048 316.844C317.048 313.127 317.864 309.863 319.496 307.052C321.173 304.196 323.395 301.975 326.16 300.388C328.971 298.756 332.099 297.94 335.544 297.94C338.989 297.94 342.095 298.756 344.86 300.388C347.671 301.975 349.892 304.196 351.524 307.052C353.201 309.863 354.04 313.127 354.04 316.844ZM345.88 316.844C345.88 314.532 345.404 312.537 344.452 310.86C343.545 309.137 342.299 307.8 340.712 306.848C339.171 305.896 337.448 305.42 335.544 305.42C333.64 305.42 331.895 305.896 330.308 306.848C328.767 307.8 327.52 309.137 326.568 310.86C325.661 312.537 325.208 314.532 325.208 316.844C325.208 319.111 325.661 321.105 326.568 322.828C327.52 324.505 328.767 325.82 330.308 326.772C331.895 327.724 333.64 328.2 335.544 328.2C337.448 328.2 339.171 327.724 340.712 326.772C342.299 325.82 343.545 324.505 344.452 322.828C345.404 321.105 345.88 319.111 345.88 316.844ZM380.29 297.94C383.916 297.94 386.591 298.824 388.314 300.592C390.036 302.315 391.17 304.559 391.714 307.324L390.558 306.712L391.102 305.624C391.646 304.581 392.484 303.471 393.618 302.292C394.751 301.068 396.111 300.048 397.698 299.232C399.33 298.371 401.143 297.94 403.138 297.94C406.402 297.94 408.872 298.643 410.55 300.048C412.272 301.453 413.451 303.335 414.086 305.692C414.72 308.004 415.038 310.588 415.038 313.444V330.852C415.038 332.031 414.652 333.028 413.882 333.844C413.111 334.615 412.136 335 410.958 335C409.779 335 408.804 334.615 408.034 333.844C407.263 333.028 406.878 332.031 406.878 330.852V313.444C406.878 311.948 406.696 310.611 406.334 309.432C405.971 308.208 405.314 307.233 404.362 306.508C403.41 305.783 402.05 305.42 400.282 305.42C398.559 305.42 397.086 305.783 395.862 306.508C394.638 307.233 393.708 308.208 393.074 309.432C392.484 310.611 392.19 311.948 392.19 313.444V330.852C392.19 332.031 391.804 333.028 391.034 333.844C390.263 334.615 389.288 335 388.11 335C386.931 335 385.956 334.615 385.186 333.844C384.415 333.028 384.03 332.031 384.03 330.852V313.444C384.03 311.948 383.848 310.611 383.486 309.432C383.123 308.208 382.466 307.233 381.514 306.508C380.562 305.783 379.202 305.42 377.434 305.42C375.711 305.42 374.238 305.783 373.014 306.508C371.79 307.233 370.86 308.208 370.226 309.432C369.636 310.611 369.342 311.948 369.342 313.444V330.852C369.342 332.031 368.956 333.028 368.186 333.844C367.415 334.615 366.44 335 365.262 335C364.083 335 363.108 334.615 362.338 333.844C361.567 333.028 361.182 332.031 361.182 330.852V302.768C361.182 301.589 361.567 300.615 362.338 299.844C363.108 299.028 364.083 298.62 365.262 298.62C366.44 298.62 367.415 299.028 368.186 299.844C368.956 300.615 369.342 301.589 369.342 302.768V305.692L368.322 305.488C368.73 304.717 369.296 303.901 370.022 303.04C370.747 302.133 371.631 301.295 372.674 300.524C373.716 299.753 374.872 299.141 376.142 298.688C377.411 298.189 378.794 297.94 380.29 297.94ZM442.977 297.94C446.604 297.94 449.279 298.824 451.001 300.592C452.724 302.315 453.857 304.559 454.401 307.324L453.245 306.712L453.789 305.624C454.333 304.581 455.172 303.471 456.305 302.292C457.439 301.068 458.799 300.048 460.385 299.232C462.017 298.371 463.831 297.94 465.825 297.94C469.089 297.94 471.56 298.643 473.237 300.048C474.96 301.453 476.139 303.335 476.773 305.692C477.408 308.004 477.725 310.588 477.725 313.444V330.852C477.725 332.031 477.34 333.028 476.569 333.844C475.799 334.615 474.824 335 473.645 335C472.467 335 471.492 334.615 470.721 333.844C469.951 333.028 469.565 332.031 469.565 330.852V313.444C469.565 311.948 469.384 310.611 469.021 309.432C468.659 308.208 468.001 307.233 467.049 306.508C466.097 305.783 464.737 305.42 462.969 305.42C461.247 305.42 459.773 305.783 458.549 306.508C457.325 307.233 456.396 308.208 455.761 309.432C455.172 310.611 454.877 311.948 454.877 313.444V330.852C454.877 332.031 454.492 333.028 453.721 333.844C452.951 334.615 451.976 335 450.797 335C449.619 335 448.644 334.615 447.873 333.844C447.103 333.028 446.717 332.031 446.717 330.852V313.444C446.717 311.948 446.536 310.611 446.173 309.432C445.811 308.208 445.153 307.233 444.201 306.508C443.249 305.783 441.889 305.42 440.121 305.42C438.399 305.42 436.925 305.783 435.701 306.508C434.477 307.233 433.548 308.208 432.913 309.432C432.324 310.611 432.029 311.948 432.029 313.444V330.852C432.029 332.031 431.644 333.028 430.873 333.844C430.103 334.615 429.128 335 427.949 335C426.771 335 425.796 334.615 425.025 333.844C424.255 333.028 423.869 332.031 423.869 330.852V302.768C423.869 301.589 424.255 300.615 425.025 299.844C425.796 299.028 426.771 298.62 427.949 298.62C429.128 298.62 430.103 299.028 430.873 299.844C431.644 300.615 432.029 301.589 432.029 302.768V305.692L431.009 305.488C431.417 304.717 431.984 303.901 432.709 303.04C433.435 302.133 434.319 301.295 435.361 300.524C436.404 299.753 437.56 299.141 438.829 298.688C440.099 298.189 441.481 297.94 442.977 297.94ZM513.553 298.62C514.731 298.62 515.706 299.028 516.477 299.844C517.247 300.615 517.633 301.589 517.633 302.768V320.04C517.633 324.845 516.295 328.653 513.621 331.464C510.946 334.275 507.093 335.68 502.061 335.68C497.029 335.68 493.175 334.275 490.501 331.464C487.871 328.653 486.557 324.845 486.557 320.04V302.768C486.557 301.589 486.942 300.615 487.713 299.844C488.483 299.028 489.458 298.62 490.637 298.62C491.815 298.62 492.79 299.028 493.561 299.844C494.331 300.615 494.717 301.589 494.717 302.768V320.04C494.717 322.805 495.329 324.868 496.553 326.228C497.777 327.543 499.613 328.2 502.061 328.2C504.554 328.2 506.413 327.543 507.637 326.228C508.861 324.868 509.473 322.805 509.473 320.04V302.768C509.473 301.589 509.858 300.615 510.629 299.844C511.399 299.028 512.374 298.62 513.553 298.62ZM545.915 297.94C549.27 297.94 551.808 298.643 553.531 300.048C555.299 301.453 556.5 303.335 557.135 305.692C557.815 308.004 558.155 310.588 558.155 313.444V330.852C558.155 332.031 557.77 333.028 556.999 333.844C556.228 334.615 555.254 335 554.075 335C552.896 335 551.922 334.615 551.151 333.844C550.38 333.028 549.995 332.031 549.995 330.852V313.444C549.995 311.948 549.791 310.611 549.383 309.432C549.02 308.208 548.34 307.233 547.343 306.508C546.346 305.783 544.918 305.42 543.059 305.42C541.246 305.42 539.704 305.783 538.435 306.508C537.211 307.233 536.259 308.208 535.579 309.432C534.944 310.611 534.627 311.948 534.627 313.444V330.852C534.627 332.031 534.242 333.028 533.471 333.844C532.7 334.615 531.726 335 530.547 335C529.368 335 528.394 334.615 527.623 333.844C526.852 333.028 526.467 332.031 526.467 330.852V302.768C526.467 301.589 526.852 300.615 527.623 299.844C528.394 299.028 529.368 298.62 530.547 298.62C531.726 298.62 532.7 299.028 533.471 299.844C534.242 300.615 534.627 301.589 534.627 302.768V305.692L533.607 305.488C534.015 304.717 534.604 303.901 535.375 303.04C536.146 302.133 537.052 301.295 538.095 300.524C539.138 299.753 540.316 299.141 541.631 298.688C542.946 298.189 544.374 297.94 545.915 297.94ZM574.659 330.852C574.659 332.031 574.273 333.028 573.503 333.844C572.732 334.615 571.757 335 570.579 335C569.4 335 568.425 334.615 567.655 333.844C566.884 333.028 566.499 332.031 566.499 330.852V302.768C566.499 301.589 566.884 300.615 567.655 299.844C568.425 299.028 569.4 298.62 570.579 298.62C571.757 298.62 572.732 299.028 573.503 299.844C574.273 300.615 574.659 301.589 574.659 302.768V330.852ZM570.511 294.2C568.969 294.2 567.881 293.951 567.247 293.452C566.612 292.953 566.295 292.069 566.295 290.8V289.508C566.295 288.193 566.635 287.309 567.315 286.856C568.04 286.357 569.128 286.108 570.579 286.108C572.165 286.108 573.276 286.357 573.911 286.856C574.545 287.355 574.863 288.239 574.863 289.508V290.8C574.863 292.115 574.523 293.021 573.843 293.52C573.163 293.973 572.052 294.2 570.511 294.2ZM583.453 299.3H599.569C600.657 299.3 601.564 299.663 602.289 300.388C603.014 301.113 603.377 302.02 603.377 303.108C603.377 304.151 603.014 305.035 602.289 305.76C601.564 306.44 600.657 306.78 599.569 306.78H583.453C582.365 306.78 581.458 306.417 580.733 305.692C580.008 304.967 579.645 304.06 579.645 302.972C579.645 301.929 580.008 301.068 580.733 300.388C581.458 299.663 582.365 299.3 583.453 299.3ZM590.729 290.8C591.908 290.8 592.86 291.208 593.585 292.024C594.356 292.795 594.741 293.769 594.741 294.948V325.208C594.741 325.843 594.854 326.364 595.081 326.772C595.353 327.18 595.693 327.475 596.101 327.656C596.554 327.837 597.03 327.928 597.529 327.928C598.073 327.928 598.572 327.837 599.025 327.656C599.478 327.429 600 327.316 600.589 327.316C601.224 327.316 601.79 327.611 602.289 328.2C602.833 328.789 603.105 329.605 603.105 330.648C603.105 331.917 602.402 332.96 600.997 333.776C599.637 334.592 598.164 335 596.577 335C595.625 335 594.56 334.932 593.381 334.796C592.248 334.615 591.16 334.229 590.117 333.64C589.12 333.005 588.281 332.053 587.601 330.784C586.921 329.515 586.581 327.769 586.581 325.548V294.948C586.581 293.769 586.966 292.795 587.737 292.024C588.553 291.208 589.55 290.8 590.729 290.8ZM637.865 298.62C639.044 298.62 640.019 299.028 640.789 299.844C641.56 300.615 641.945 301.589 641.945 302.768V331.668C641.945 335.839 641.152 339.148 639.565 341.596C638.024 344.089 635.939 345.88 633.309 346.968C630.68 348.056 627.733 348.6 624.469 348.6C623.019 348.6 621.477 348.487 619.845 348.26C618.213 348.033 616.876 347.693 615.833 347.24C614.473 346.651 613.521 345.903 612.977 344.996C612.479 344.135 612.388 343.205 612.705 342.208C613.113 340.893 613.771 339.987 614.677 339.488C615.584 339.035 616.536 338.989 617.533 339.352C618.259 339.579 619.211 339.919 620.389 340.372C621.568 340.871 622.928 341.12 624.469 341.12C626.555 341.12 628.277 340.825 629.637 340.236C631.043 339.692 632.085 338.74 632.765 337.38C633.491 336.065 633.853 334.252 633.853 331.94V327.384L635.281 329.016C634.511 330.512 633.536 331.759 632.357 332.756C631.224 333.708 629.864 334.433 628.277 334.932C626.691 335.431 624.877 335.68 622.837 335.68C620.435 335.68 618.327 335.136 616.513 334.048C614.745 332.915 613.363 331.373 612.365 329.424C611.368 327.429 610.869 325.163 610.869 322.624V302.768C610.869 301.589 611.255 300.615 612.025 299.844C612.796 299.028 613.771 298.62 614.949 298.62C616.128 298.62 617.103 299.028 617.873 299.844C618.644 300.615 619.029 301.589 619.029 302.768V320.176C619.029 323.123 619.664 325.208 620.933 326.432C622.248 327.611 624.061 328.2 626.373 328.2C627.96 328.2 629.297 327.905 630.385 327.316C631.473 326.681 632.312 325.775 632.901 324.596C633.491 323.372 633.785 321.899 633.785 320.176V302.768C633.785 301.589 634.171 300.615 634.941 299.844C635.712 299.028 636.687 298.62 637.865 298.62Z" fill="#3C87F0"/>
<path d="M569 86H576" stroke="#F2C344" stroke-width="32" stroke-linecap="round"/>
<path fill-rule="evenodd" clip-rule="evenodd" d="M170.518 135.284L123 180.762L128.037 220.084L176.248 260.044C158.682 286.033 129.735 303 97 303C43.4284 303 0 257.557 0 201.5C0 145.443 43.4284 100 97 100C126.392 100 152.73 113.679 170.518 135.284Z" fill="#3C87F0"/>
<mask id="path-4-inside-1_1_20" fill="white">
<path fill-rule="evenodd" clip-rule="evenodd" d="M188.941 116.387C192.947 120.458 192.737 126.858 188.472 130.681C166.403 150.461 152.259 163.157 143.546 170.991C139.189 174.908 136.193 177.607 134.244 179.366L133.922 179.657C139.242 185.774 142.427 193.597 142.413 202.117C142.41 203.822 142.279 205.499 142.028 207.139C147.685 211.501 163.898 224.077 200.864 252.851C205.399 256.381 206.079 262.751 202.383 267.079C198.686 271.406 192.012 272.052 187.477 268.522C164.008 250.254 148.947 238.549 139.656 231.34C136.783 229.11 134.462 227.311 132.616 225.882C125.724 233.003 115.784 237.464 104.741 237.445C83.9692 237.41 67.1576 221.535 67.1912 201.988C67.2249 182.441 84.0911 166.624 104.863 166.66C108.69 166.666 112.383 167.21 115.86 168.216C116.043 168.012 116.237 167.812 116.44 167.619C117.295 166.806 129.946 155.391 173.966 115.936C178.231 112.114 184.936 112.315 188.941 116.387Z"/>
</mask>
<path fill-rule="evenodd" clip-rule="evenodd" d="M188.941 116.387C192.947 120.458 192.737 126.858 188.472 130.681C166.403 150.461 152.259 163.157 143.546 170.991C139.189 174.908 136.193 177.607 134.244 179.366L133.922 179.657C139.242 185.774 142.427 193.597 142.413 202.117C142.41 203.822 142.279 205.499 142.028 207.139C147.685 211.501 163.898 224.077 200.864 252.851C205.399 256.381 206.079 262.751 202.383 267.079C198.686 271.406 192.012 272.052 187.477 268.522C164.008 250.254 148.947 238.549 139.656 231.34C136.783 229.11 134.462 227.311 132.616 225.882C125.724 233.003 115.784 237.464 104.741 237.445C83.9692 237.41 67.1576 221.535 67.1912 201.988C67.2249 182.441 84.0911 166.624 104.863 166.66C108.69 166.666 112.383 167.21 115.86 168.216C116.043 168.012 116.237 167.812 116.44 167.619C117.295 166.806 129.946 155.391 173.966 115.936C178.231 112.114 184.936 112.315 188.941 116.387Z" fill="#F2C344"/>
<path d="M188.472 130.681L190.474 132.915L190.474 132.915L188.472 130.681ZM188.941 116.387L186.803 118.491L186.803 118.491L188.941 116.387ZM143.546 170.991L145.552 173.222L143.546 170.991ZM134.244 179.366L132.234 177.14L132.234 177.14L134.244 179.366ZM133.922 179.657L131.912 177.431L129.726 179.404L131.658 181.626L133.922 179.657ZM142.028 207.139L139.063 206.686L138.796 208.434L140.196 209.514L142.028 207.139ZM200.864 252.851L202.706 250.483L200.864 252.851ZM202.383 267.079L204.664 269.027L202.383 267.079ZM187.477 268.522L189.32 266.154L189.319 266.154L187.477 268.522ZM139.656 231.34L137.817 233.71L137.817 233.71L139.656 231.34ZM132.616 225.882L134.453 223.51L132.329 221.865L130.461 223.795L132.616 225.882ZM115.86 168.216L115.027 171.098L116.837 171.622L118.094 170.219L115.86 168.216ZM116.44 167.619L114.373 165.445L114.372 165.445L116.44 167.619ZM173.966 115.936L175.968 118.17L175.968 118.17L173.966 115.936ZM190.474 132.915C196.008 127.955 196.292 119.58 191.08 114.283L186.803 118.491C189.602 121.336 189.466 125.761 186.47 128.447L190.474 132.915ZM145.552 173.222C154.264 165.39 168.406 152.694 190.474 132.915L186.47 128.447C164.4 148.227 150.255 160.925 141.54 168.76L145.552 173.222ZM136.255 181.593C138.201 179.836 141.196 177.139 145.552 173.222L141.54 168.76C137.183 172.678 134.185 175.378 132.234 177.14L136.255 181.593ZM135.933 181.884L136.255 181.593L132.234 177.14L131.912 177.431L135.933 181.884ZM145.413 202.122C145.429 192.831 141.95 184.317 136.186 177.689L131.658 181.626C136.533 187.232 139.426 194.363 139.413 202.112L145.413 202.122ZM144.994 207.592C145.267 205.804 145.41 203.978 145.413 202.122L139.413 202.112C139.41 203.666 139.291 205.193 139.063 206.686L144.994 207.592ZM140.196 209.514C145.847 213.872 162.054 226.444 199.021 255.218L202.706 250.483C165.742 221.711 149.524 209.131 143.861 204.763L140.196 209.514ZM199.021 255.218C202.23 257.716 202.668 262.126 200.102 265.13L204.664 269.027C209.491 263.377 208.568 255.046 202.706 250.483L199.021 255.218ZM200.102 265.13C197.463 268.218 192.61 268.716 189.32 266.154L185.634 270.889C191.415 275.389 199.908 274.594 204.664 269.027L200.102 265.13ZM189.319 266.154C165.85 247.886 150.788 236.18 141.495 228.97L137.817 233.71C147.107 240.918 162.166 252.622 185.634 270.889L189.319 266.154ZM141.495 228.97C138.621 226.739 136.3 224.94 134.453 223.51L130.78 228.254C132.624 229.682 134.944 231.481 137.817 233.71L141.495 228.97ZM104.736 240.445C116.597 240.466 127.315 235.672 134.772 227.969L130.461 223.795C124.132 230.334 114.971 234.463 104.746 234.445L104.736 240.445ZM64.1913 201.983C64.1544 223.355 82.4816 240.407 104.736 240.445L104.746 234.445C85.4568 234.412 70.1607 219.714 70.1912 201.993L64.1913 201.983ZM104.868 163.66C82.6138 163.621 64.2281 180.61 64.1913 201.983L70.1912 201.993C70.2218 184.272 85.5684 169.626 104.858 169.66L104.868 163.66ZM116.694 165.334C112.948 164.251 108.977 163.667 104.868 163.66L104.858 169.66C108.403 169.666 111.817 170.17 115.027 171.098L116.694 165.334ZM114.372 165.445C114.112 165.693 113.863 165.95 113.626 166.214L118.094 170.219C118.224 170.073 118.362 169.931 118.508 169.793L114.372 165.445ZM171.963 113.702C127.979 153.126 115.27 164.591 114.373 165.445L118.508 169.793C119.32 169.02 131.913 157.657 175.968 118.17L171.963 113.702ZM191.08 114.283C185.945 109.064 177.416 108.815 171.963 113.702L175.968 118.17C179.045 115.412 183.926 115.567 186.803 118.491L191.08 114.283Z" fill="white" mask="url(#path-4-inside-1_1_20)"/>
<ellipse cx="224.65" cy="277.885" rx="37.6108" ry="35.3929" transform="rotate(0.0987018 224.65 277.885)" fill="#F2C344"/>
<ellipse cx="202.772" cy="102.635" rx="37.6108" ry="35.3929" transform="rotate(0.0987018 202.772 102.635)" fill="#F2C344"/>
</svg>
